<svg width="425" height="349" viewBox="0 0 425 349" fill="none" xmlns="http://www.w3.org/2000/svg">
<path d="M328.021 0.0345329C329.411 -0.0954671 330.851 0.144531 332.251 0.704531C333.651 1.26453 335.021 2.12453 336.271 3.23453C337.531 4.34453 338.681 5.70453 339.641 7.23453C340.611 8.76453 341.391 10.4845 341.921 12.3145L423.601 294.085C424.141 295.965 424.381 297.805 424.351 299.525C424.321 301.245 424.021 302.845 423.471 304.245C422.931 305.645 422.141 306.845 421.151 307.755C420.161 308.665 418.961 309.294 417.581 309.555L245.651 341.605C244.131 341.885 242.571 341.755 241.051 341.275C239.531 340.795 238.041 339.955 236.681 338.845C235.311 337.725 234.071 336.325 233.031 334.705C231.991 333.085 231.151 331.255 230.591 329.265L147.051 31.4245C146.511 29.4945 146.311 27.6245 146.401 25.8945C146.501 24.1645 146.891 22.5845 147.551 21.2245C148.201 19.8645 149.121 18.7345 150.251 17.8945C151.381 17.0645 152.741 16.5345 154.271 16.3945L328.011 0.0245384L328.021 0.0345329ZM382.441 202.335L339.811 54.9145L174.721 73.0945L218.171 227.595L382.441 202.335ZM355.301 267.975C355.741 267.895 356.121 267.705 356.441 267.425C356.761 267.145 357.011 266.775 357.191 266.335C357.371 265.895 357.471 265.405 357.481 264.865C357.491 264.325 357.421 263.755 357.251 263.165C357.081 262.575 356.831 262.035 356.521 261.545C356.211 261.055 355.851 260.645 355.451 260.305C355.051 259.965 354.621 259.715 354.181 259.565C353.741 259.415 353.281 259.365 352.841 259.435L236.221 279.115C235.751 279.195 235.341 279.395 234.991 279.685C234.651 279.975 234.371 280.365 234.171 280.815C233.971 281.265 233.861 281.785 233.841 282.345C233.821 282.905 233.881 283.505 234.061 284.115C234.231 284.724 234.491 285.295 234.811 285.795C235.131 286.295 235.511 286.725 235.931 287.075C236.351 287.425 236.811 287.685 237.281 287.835C237.751 287.985 238.231 288.035 238.701 287.955L355.291 267.985M320.641 291.955C321.091 291.875 321.481 291.675 321.811 291.395C322.141 291.105 322.401 290.725 322.581 290.285C322.761 289.845 322.871 289.335 322.881 288.785C322.901 288.235 322.831 287.655 322.661 287.055C322.491 286.454 322.241 285.905 321.921 285.415C321.611 284.925 321.241 284.505 320.831 284.165C320.421 283.825 319.981 283.565 319.531 283.415C319.081 283.265 318.621 283.215 318.171 283.295L241.161 296.685C240.691 296.764 240.281 296.965 239.931 297.265C239.591 297.555 239.311 297.945 239.111 298.405C238.911 298.855 238.801 299.375 238.781 299.935C238.761 300.495 238.831 301.095 239.001 301.705C239.171 302.315 239.431 302.885 239.751 303.385C240.071 303.885 240.451 304.315 240.881 304.665C241.301 305.015 241.761 305.275 242.231 305.425C242.701 305.575 243.181 305.625 243.651 305.535L320.641 291.955ZM224.361 244.175C224.041 245.165 223.921 246.225 223.981 247.315C224.041 248.395 224.271 249.505 224.651 250.555C225.031 251.615 225.571 252.625 226.241 253.525C226.911 254.425 227.701 255.215 228.601 255.835L241.611 264.835L248.591 252.595C249.071 251.755 249.361 250.795 249.481 249.775C249.601 248.755 249.541 247.675 249.321 246.595C249.101 245.525 248.721 244.455 248.191 243.445C247.661 242.445 246.981 241.505 246.171 240.705C245.711 240.255 245.231 239.865 244.741 239.545C244.251 239.225 243.751 238.965 243.251 238.775C242.751 238.585 242.251 238.465 241.761 238.405C241.271 238.345 240.781 238.355 240.321 238.425C239.961 238.485 239.611 238.575 239.281 238.715C238.951 238.855 238.631 239.025 238.331 239.235C238.031 239.445 237.751 239.695 237.491 239.985C237.231 240.275 236.991 240.605 236.781 240.965L235.511 243.165L233.151 241.535C232.761 241.265 232.371 241.035 231.971 240.845C231.571 240.655 231.181 240.515 230.791 240.415C230.401 240.315 230.011 240.255 229.631 240.225C229.251 240.205 228.881 240.225 228.521 240.275C228.051 240.345 227.601 240.485 227.181 240.695C226.761 240.895 226.361 241.165 226.011 241.485C225.651 241.815 225.331 242.195 225.051 242.645C224.771 243.085 224.541 243.595 224.361 244.145M196.561 40.2145C196.091 40.2645 195.681 40.4245 195.341 40.6845C195.001 40.9445 194.721 41.2945 194.531 41.7145C194.331 42.1345 194.221 42.6245 194.191 43.1545C194.161 43.6845 194.231 44.2645 194.401 44.8545C194.571 45.4445 194.821 46.0045 195.141 46.4945C195.461 46.9945 195.831 47.4245 196.251 47.7845C196.671 48.1446 197.121 48.4145 197.581 48.5945C198.051 48.7645 198.521 48.8445 198.991 48.7945L255.511 42.9045C255.961 42.8545 256.361 42.6945 256.691 42.4445C257.021 42.1945 257.281 41.8445 257.471 41.4345C257.661 41.0245 257.771 40.5445 257.791 40.0245C257.811 39.5045 257.741 38.9345 257.581 38.3545C257.411 37.7745 257.161 37.2245 256.851 36.7345C256.541 36.2445 256.171 35.8145 255.771 35.4645C255.371 35.1145 254.931 34.8445 254.471 34.6645C254.021 34.4945 253.551 34.4145 253.101 34.4645L196.561 40.2245M392.791 239.865L385.741 215.495L367.601 218.355L374.661 242.855L382.251 236.185L392.791 239.865ZM173.191 34.2745C171.931 34.4045 170.821 34.8446 169.901 35.5345C168.971 36.2245 168.231 37.1645 167.691 38.2945C167.161 39.4145 166.841 40.7245 166.761 42.1545C166.681 43.5845 166.851 45.1245 167.301 46.7145C167.751 48.3045 168.431 49.7945 169.281 51.1245C170.131 52.4545 171.151 53.6345 172.271 54.5845C173.391 55.5445 174.611 56.2845 175.871 56.7545C177.121 57.2245 178.411 57.4146 179.671 57.2845C180.931 57.1545 182.031 56.7045 182.951 56.0045C183.871 55.3045 184.611 54.3645 185.141 53.2345C185.671 52.1045 185.981 50.8045 186.051 49.3745C186.121 47.9545 185.951 46.4145 185.501 44.8345C185.051 43.2545 184.371 41.7645 183.531 40.4445C182.681 39.1245 181.671 37.9545 180.561 36.9945C179.451 36.0445 178.231 35.2945 176.981 34.8245C175.731 34.3545 174.441 34.1545 173.181 34.2745" fill="url(#paint0_linear_7_145)"/>
<path d="M245.661 341.604L228.051 348.804L399.801 316.594L417.591 309.554L245.661 341.604Z" fill="#8A8A8A"/>
<path d="M244.641 341.724C244.541 341.724 244.441 341.724 244.351 341.734C244.081 341.734 243.811 341.734 243.541 341.724C243.461 341.724 243.371 341.724 243.291 341.714C242.961 341.684 242.621 341.644 242.291 341.574C241.801 341.484 241.311 341.345 240.831 341.174C240.711 341.134 240.581 341.084 240.461 341.034C240.061 340.884 239.671 340.704 239.281 340.514C239.181 340.464 239.071 340.414 238.971 340.364C238.501 340.114 238.041 339.824 237.591 339.514C237.491 339.444 237.391 339.365 237.291 339.294C236.921 339.025 236.561 338.734 236.211 338.424C236.101 338.324 235.991 338.234 235.891 338.134C235.471 337.744 235.061 337.324 234.681 336.884C234.621 336.814 234.561 336.734 234.501 336.664C234.171 336.274 233.851 335.864 233.551 335.434C233.441 335.284 233.341 335.134 233.241 334.984C233.071 334.734 232.921 334.484 232.761 334.224C232.651 334.044 232.541 333.865 232.431 333.674C232.281 333.405 232.131 333.114 231.991 332.834C231.901 332.654 231.801 332.474 231.721 332.284C231.571 331.964 231.441 331.634 231.311 331.304C231.241 331.144 231.171 330.984 231.111 330.814C230.921 330.314 230.761 329.794 230.611 329.274L147.071 31.4345C146.901 30.8445 146.781 30.2545 146.681 29.6845C146.661 29.5745 146.641 29.4745 146.621 29.3645C146.531 28.8145 146.471 28.2645 146.441 27.7345C146.441 27.6345 146.441 27.5345 146.431 27.4245C146.421 27.0945 146.431 26.7745 146.431 26.4545C146.431 26.0245 146.461 25.6045 146.511 25.1945C146.541 24.9645 146.561 24.7245 146.601 24.4945C146.671 24.0745 146.761 23.6645 146.861 23.2645C146.911 23.0745 146.951 22.8845 147.011 22.7045C147.181 22.1545 147.391 21.6245 147.631 21.1345C147.631 21.1145 147.641 21.1045 147.651 21.0845C147.901 20.5745 148.201 20.1145 148.531 19.6745C148.771 19.3545 149.031 19.0445 149.311 18.7645C149.461 18.6145 149.611 18.4545 149.771 18.3245C149.771 18.3245 149.781 18.3145 149.791 18.3045C149.981 18.1345 150.181 17.9845 150.391 17.8345C150.441 17.7945 150.491 17.7645 150.551 17.7245C150.761 17.5845 150.981 17.4445 151.201 17.3245L134.401 26.3645C134.231 26.4545 134.071 26.5545 133.911 26.6545C133.861 26.6845 133.801 26.7245 133.751 26.7645C133.701 26.8045 133.651 26.8345 133.601 26.8745C133.551 26.9145 133.501 26.9445 133.451 26.9845C133.301 27.0945 133.151 27.2145 133.011 27.3445C133.011 27.3445 133.001 27.3545 132.991 27.3645C132.851 27.4845 132.721 27.6045 132.591 27.7345C132.571 27.7545 132.551 27.7845 132.521 27.8145C132.271 28.0645 132.031 28.3345 131.811 28.6145C131.781 28.6445 131.771 28.6845 131.741 28.7245C131.421 29.1545 131.121 29.6245 130.861 30.1245C130.861 30.1445 130.851 30.1645 130.841 30.1745C130.601 30.6645 130.391 31.1845 130.221 31.7345C130.211 31.7845 130.181 31.8245 130.171 31.8645C130.131 32.0045 130.111 32.1545 130.081 32.2945C130.011 32.5745 129.921 32.8345 129.861 33.1245C129.841 33.2545 129.831 33.3845 129.811 33.5145C129.771 33.7445 129.751 33.9745 129.721 34.2145C129.681 34.6245 129.651 35.0345 129.641 35.4645C129.641 35.6145 129.611 35.7445 129.611 35.8945C129.611 36.0745 129.631 36.2545 129.631 36.4345C129.631 36.4945 129.631 36.5545 129.631 36.6145C129.631 36.6545 129.641 36.6945 129.641 36.7345C129.671 37.2645 129.731 37.8045 129.821 38.3545C129.841 38.4545 129.861 38.5645 129.881 38.6745C129.981 39.2445 130.101 39.8245 130.271 40.4145L213.061 336.554C213.211 337.074 213.371 337.584 213.561 338.084C213.561 338.104 213.571 338.134 213.581 338.154C213.631 338.294 213.701 338.434 213.751 338.574C213.881 338.904 214.011 339.234 214.161 339.544C214.181 339.585 214.201 339.634 214.221 339.684C214.291 339.824 214.361 339.954 214.431 340.094C214.571 340.374 214.711 340.654 214.871 340.934C214.911 340.994 214.931 341.064 214.971 341.124C215.041 341.244 215.121 341.354 215.191 341.474C215.291 341.634 215.371 341.794 215.471 341.954C215.531 342.054 215.601 342.134 215.661 342.234C215.711 342.314 215.761 342.395 215.811 342.474C215.861 342.544 215.921 342.614 215.971 342.684C216.271 343.104 216.591 343.514 216.921 343.904C216.981 343.974 217.041 344.054 217.101 344.124C217.491 344.564 217.891 344.974 218.311 345.364C218.351 345.404 218.391 345.444 218.431 345.484C218.501 345.544 218.571 345.594 218.641 345.654C218.801 345.794 218.951 345.944 219.111 346.074C219.311 346.234 219.511 346.374 219.711 346.524C219.811 346.594 219.911 346.674 220.011 346.744C220.461 347.054 220.921 347.344 221.381 347.594C221.411 347.614 221.441 347.634 221.471 347.654C221.541 347.694 221.611 347.714 221.691 347.754C222.081 347.954 222.471 348.124 222.871 348.274C222.991 348.324 223.121 348.374 223.241 348.414C223.321 348.444 223.401 348.474 223.481 348.504C223.881 348.634 224.291 348.734 224.701 348.804C224.721 348.804 224.731 348.814 224.751 348.814C225.071 348.874 225.381 348.904 225.701 348.934C225.781 348.934 225.871 348.934 225.951 348.944C226.221 348.954 226.491 348.964 226.761 348.944C226.861 348.944 226.961 348.944 227.051 348.934C227.391 348.914 227.741 348.874 228.071 348.814L245.691 341.624C245.351 341.684 245.011 341.724 244.661 341.744L244.641 341.724Z" fill="url(#paint1_linear_7_145)"/>
<path d="M339.801 54.9146L174.711 73.0946L218.161 227.595L382.441 202.335L339.801 54.9146Z" fill="url(#paint2_linear_7_145)"/>
<path d="M179.671 57.2946C180.931 57.1646 182.031 56.7146 182.951 56.0146C183.871 55.3146 184.611 54.3746 185.141 53.2446C185.671 52.1146 185.981 50.8146 186.051 49.3846C186.121 47.9646 185.951 46.4246 185.501 44.8446C185.051 43.2646 184.371 41.7746 183.531 40.4546C182.681 39.1346 181.671 37.9645 180.561 37.0045C179.451 36.0445 178.231 35.3046 176.981 34.8346C175.731 34.3646 174.441 34.1646 173.181 34.2846C171.921 34.4146 170.811 34.8546 169.891 35.5446C168.961 36.2346 168.221 37.1746 167.681 38.3046C167.151 39.4246 166.831 40.7346 166.751 42.1646C166.671 43.5946 166.851 45.1345 167.291 46.7245C167.741 48.3145 168.421 49.8046 169.271 51.1346C170.121 52.4646 171.141 53.6446 172.261 54.5946C173.381 55.5546 174.601 56.2946 175.861 56.7646C177.111 57.2346 178.401 57.4246 179.661 57.2946H179.671Z" fill="url(#paint3_linear_7_145)"/>
<path d="M195.131 46.5146C195.451 47.0146 195.821 47.4446 196.241 47.8046C196.661 48.1646 197.111 48.4346 197.571 48.6146C198.041 48.7946 198.511 48.8646 198.981 48.8146L255.501 42.9246C255.951 42.8746 256.351 42.7146 256.681 42.4646C257.011 42.2146 257.271 41.8646 257.461 41.4546C257.651 41.0446 257.761 40.5646 257.781 40.0446C257.801 39.5246 257.731 38.9546 257.571 38.3746C257.401 37.7946 257.151 37.2446 256.841 36.7546C256.531 36.2646 256.161 35.8346 255.761 35.4846C255.361 35.1346 254.921 34.8646 254.461 34.6846C254.001 34.5046 253.541 34.4346 253.091 34.4846L196.551 40.2446C196.081 40.2946 195.671 40.4546 195.331 40.7146C194.991 40.9746 194.711 41.3246 194.521 41.7446C194.321 42.1646 194.211 42.6546 194.181 43.1846C194.151 43.7146 194.221 44.2946 194.391 44.8846C194.561 45.4746 194.811 46.0346 195.131 46.5246V46.5146Z" fill="#748DFA"/>
<path d="M248.591 252.595C249.071 251.755 249.361 250.795 249.481 249.775C249.601 248.755 249.541 247.675 249.321 246.595C249.101 245.525 248.721 244.445 248.191 243.445C247.661 242.445 246.981 241.505 246.171 240.705C245.711 240.255 245.231 239.865 244.741 239.545C244.251 239.225 243.751 238.965 243.251 238.775C242.751 238.585 242.251 238.465 241.761 238.405C241.271 238.345 240.781 238.355 240.321 238.425C239.961 238.485 239.611 238.575 239.281 238.715C238.951 238.845 238.631 239.025 238.331 239.235C238.031 239.445 237.751 239.695 237.491 239.985C237.231 240.275 236.991 240.605 236.781 240.965L235.501 243.165L233.141 241.535C232.751 241.265 232.361 241.035 231.961 240.845C231.571 240.655 231.171 240.515 230.781 240.415C230.391 240.315 230.001 240.255 229.621 240.225C229.241 240.205 228.871 240.225 228.511 240.275C228.041 240.345 227.591 240.485 227.171 240.695C226.751 240.895 226.351 241.165 226.001 241.485C225.641 241.815 225.321 242.195 225.041 242.645C224.761 243.085 224.531 243.595 224.351 244.145C224.031 245.135 223.911 246.195 223.971 247.285C224.031 248.365 224.261 249.475 224.641 250.525C225.021 251.585 225.561 252.595 226.231 253.495C226.901 254.395 227.691 255.185 228.591 255.805L241.601 264.805L248.581 252.565L248.591 252.595Z" fill="url(#paint4_linear_7_145)"/>
<path d="M385.741 215.505L367.601 218.365L374.671 242.875L382.251 236.205L392.791 239.885L385.741 215.505Z" fill="#748DFA"/>
<path d="M356.521 261.545C356.211 261.065 355.851 260.645 355.451 260.305C355.051 259.965 354.621 259.715 354.181 259.565C353.741 259.415 353.281 259.365 352.841 259.435L236.221 279.115C235.751 279.195 235.341 279.395 234.991 279.685C234.651 279.975 234.371 280.365 234.171 280.815C233.971 281.265 233.861 281.785 233.841 282.345C233.821 282.905 233.881 283.505 234.061 284.115C234.231 284.725 234.491 285.295 234.811 285.795C235.131 286.295 235.511 286.725 235.931 287.075C236.351 287.425 236.811 287.685 237.281 287.835C237.751 287.985 238.231 288.035 238.701 287.955L355.291 267.985C355.731 267.905 356.111 267.715 356.431 267.435C356.751 267.155 357.001 266.785 357.181 266.345C357.361 265.905 357.461 265.415 357.471 264.875C357.481 264.335 357.411 263.765 357.241 263.175C357.071 262.585 356.821 262.035 356.511 261.555L356.521 261.545Z" fill="#748DFA"/>
<path d="M321.931 285.415C321.621 284.925 321.251 284.505 320.841 284.165C320.431 283.825 319.991 283.565 319.541 283.415C319.091 283.265 318.631 283.215 318.181 283.295L241.171 296.685C240.701 296.765 240.291 296.965 239.941 297.265C239.601 297.555 239.321 297.945 239.131 298.405C238.931 298.855 238.821 299.375 238.801 299.935C238.781 300.495 238.851 301.095 239.021 301.705C239.191 302.315 239.451 302.885 239.771 303.385C240.091 303.885 240.471 304.315 240.891 304.665C241.311 305.015 241.771 305.275 242.241 305.425C242.711 305.575 243.191 305.625 243.661 305.535L320.651 291.955C321.101 291.875 321.491 291.675 321.821 291.395C322.151 291.105 322.411 290.725 322.591 290.285C322.771 289.845 322.881 289.335 322.891 288.785C322.911 288.235 322.841 287.655 322.671 287.055C322.501 286.455 322.251 285.905 321.931 285.415Z" fill="#748DFA"/>
<path d="M121.051 282.515L133.821 275.805C135.701 274.815 137.891 276.415 137.531 278.505L135.091 292.725C134.951 293.555 135.221 294.405 135.831 294.995L146.161 305.065C147.681 306.545 146.841 309.125 144.741 309.435L130.471 311.505C129.641 311.625 128.921 312.145 128.541 312.905L122.161 325.835C121.221 327.735 118.511 327.735 117.571 325.835L111.191 312.905C110.821 312.145 110.101 311.625 109.261 311.505L94.9913 309.435C92.8913 309.125 92.0513 306.545 93.5713 305.065L103.901 294.995C104.501 294.405 104.781 293.555 104.641 292.725L102.201 278.505C101.841 276.415 104.041 274.815 105.911 275.805L118.681 282.515C119.431 282.905 120.321 282.905 121.061 282.515H121.051Z" fill="url(#paint5_linear_7_145)"/>
<g style="mix-blend-mode:multiply" opacity="0.45">
<path d="M121.051 282.515L133.821 275.805C135.701 274.815 137.891 276.415 137.531 278.505L135.091 292.725C134.951 293.555 135.221 294.405 135.831 294.995L146.161 305.065C147.681 306.545 146.841 309.125 144.741 309.435L130.471 311.505C129.641 311.625 128.921 312.145 128.541 312.905L122.161 325.835C121.221 327.735 118.511 327.735 117.571 325.835L111.191 312.905C110.821 312.145 110.101 311.625 109.261 311.505L94.9913 309.435C92.8913 309.125 92.0513 306.545 93.5713 305.065L103.901 294.995C104.501 294.405 104.781 293.555 104.641 292.725L102.201 278.505C101.841 276.415 104.041 274.815 105.911 275.805L118.681 282.515C119.431 282.905 120.321 282.905 121.061 282.515H121.051Z" fill="#FFAE00"/>
</g>
<path d="M20.9013 212.364L30.3313 207.404C31.7213 206.674 33.3413 207.854 33.0713 209.394L31.2713 219.904C31.1613 220.514 31.3713 221.144 31.8113 221.574L39.4413 229.014C40.5613 230.104 39.9413 232.014 38.3913 232.244L27.8413 233.774C27.2213 233.864 26.6913 234.254 26.4213 234.804L21.7013 244.364C21.0113 245.774 19.0013 245.774 18.3113 244.364L13.5913 234.804C13.3113 234.244 12.7813 233.854 12.1713 233.774L1.62129 232.244C0.0712928 232.014 -0.548726 230.114 0.571274 229.014L8.20128 221.574C8.65128 221.144 8.85129 220.514 8.74129 219.904L6.9413 209.394C6.6813 207.844 8.30129 206.674 9.68129 207.404L19.1113 212.364C19.6613 212.654 20.3213 212.654 20.8713 212.364H20.9013Z" fill="url(#paint6_linear_7_145)"/>
<g style="mix-blend-mode:multiply" opacity="0.45">
<path d="M20.9013 212.364L30.3313 207.404C31.7213 206.674 33.3413 207.854 33.0713 209.394L31.2713 219.904C31.1613 220.514 31.3713 221.144 31.8113 221.574L39.4413 229.014C40.5613 230.104 39.9413 232.014 38.3913 232.244L27.8413 233.774C27.2213 233.864 26.6913 234.254 26.4213 234.804L21.7013 244.364C21.0113 245.774 19.0013 245.774 18.3113 244.364L13.5913 234.804C13.3113 234.244 12.7813 233.854 12.1713 233.774L1.62129 232.244C0.0712928 232.014 -0.548726 230.114 0.571274 229.014L8.20128 221.574C8.65128 221.144 8.85129 220.514 8.74129 219.904L6.9413 209.394C6.6813 207.844 8.30129 206.674 9.68129 207.404L19.1113 212.364C19.6613 212.654 20.3213 212.654 20.8713 212.364H20.9013Z" fill="#FFAE00"/>
</g>
<mask id="mask0_7_145" style="mask-type:luminance" maskUnits="userSpaceOnUse" x="143" y="199" width="72" height="24">
<path d="M214.921 212.315L207.381 216.885C201.391 220.515 194.361 222.635 186.561 222.835C171.091 223.215 155.761 215.955 143.961 204.115L151.501 199.545C163.301 211.385 178.631 218.655 194.101 218.265C201.901 218.075 208.941 215.955 214.921 212.315Z" fill="white"/>
</mask>
<g mask="url(#mask0_7_145)">
<path d="M214.921 212.315L207.381 216.885C201.391 220.515 194.361 222.635 186.561 222.835C171.091 223.215 155.761 215.955 143.961 204.115L151.501 199.545C163.301 211.385 178.631 218.655 194.101 218.265C201.901 218.075 208.941 215.955 214.921 212.315Z" fill="url(#paint7_linear_7_145)"/>
</g>
<mask id="mask1_7_145" style="mask-type:luminance" maskUnits="userSpaceOnUse" x="122" y="107" width="30" height="98">
<path d="M143.621 111.664L151.161 107.094C135.111 116.834 126.601 137.444 131.051 161.004C133.871 175.914 141.401 189.414 151.501 199.544L143.961 204.114C133.851 193.984 126.321 180.484 123.511 165.574C119.061 142.014 127.581 121.404 143.621 111.664Z" fill="white"/>
</mask>
<g mask="url(#mask1_7_145)">
<path d="M151.491 199.534L143.951 204.104C133.841 193.974 126.311 180.474 123.501 165.564C119.051 142.004 127.571 121.394 143.611 111.654L151.151 107.084C135.101 116.824 126.591 137.434 131.041 160.994C133.861 175.904 141.391 189.404 151.491 199.534Z" fill="url(#paint8_linear_7_145)"/>
</g>
<path d="M171.981 101.145C200.711 100.435 228.941 126.065 235.041 158.415C237.601 171.955 235.871 184.525 230.881 194.615C222.491 174.965 203.741 160.795 184.721 161.265C164.771 161.765 151.181 178.205 151.491 199.545C141.381 189.415 133.851 175.915 131.041 161.005C124.931 128.655 143.261 101.865 171.981 101.145ZM182.301 155.795C192.261 155.545 198.621 146.265 196.501 135.045C194.381 123.835 184.591 114.945 174.631 115.185C164.671 115.435 158.321 124.725 160.441 135.935C162.561 147.145 172.341 156.035 182.301 155.785" fill="url(#paint9_linear_7_145)"/>
<path d="M174.631 115.195C184.591 114.945 194.381 123.845 196.501 135.055C198.621 146.265 192.261 155.555 182.301 155.805C172.341 156.055 162.561 147.165 160.441 135.955C158.321 124.745 164.671 115.445 174.631 115.205V115.195Z" fill="white"/>
<path d="M184.721 161.265C203.741 160.795 222.491 174.965 230.881 194.615C223.961 208.625 210.781 217.845 194.091 218.265C178.621 218.645 163.291 211.385 151.491 199.545C151.181 178.215 164.781 161.765 184.721 161.265Z" fill="white"/>
<path d="M174.631 115.195C184.591 114.945 194.381 123.845 196.501 135.055C198.621 146.265 192.261 155.555 182.301 155.805C172.341 156.055 162.561 147.165 160.441 135.955C158.321 124.745 164.671 115.445 174.631 115.205V115.195Z" fill="url(#paint10_linear_7_145)"/>
<path d="M184.721 161.265C203.741 160.795 222.491 174.965 230.881 194.615C223.961 208.625 210.781 217.845 194.091 218.265C178.621 218.645 163.291 211.385 151.491 199.545C151.181 178.215 164.781 161.765 184.721 161.265Z" fill="url(#paint11_linear_7_145)"/>
<path d="M395.271 141.604L314.861 152.204L305.111 156.484L385.521 145.884C385.981 145.824 386.401 145.705 386.801 145.525L396.551 141.245C396.151 141.415 395.721 141.544 395.271 141.604Z" fill="#0085B8"/>
<path d="M381.461 82.5345C384.671 82.1145 388.011 84.8945 388.911 88.7445L399.461 133.865C400.361 137.715 398.481 141.184 395.271 141.604L314.861 152.205L303.581 175.254L298.691 154.335L285.031 156.134C281.821 156.554 278.481 153.775 277.581 149.925L267.031 104.805C266.131 100.955 268.001 97.4845 271.221 97.0645L381.471 82.5345H381.461ZM373.871 111.015C375.161 110.845 375.911 109.454 375.551 107.914C375.191 106.374 373.851 105.255 372.561 105.425L289.951 116.315C288.661 116.485 287.911 117.874 288.271 119.414C288.631 120.954 289.971 122.075 291.251 121.905L373.861 111.015M347.821 125.905C349.111 125.735 349.861 124.345 349.501 122.805C349.141 121.265 347.801 120.145 346.511 120.315L292.531 127.435C291.241 127.605 290.491 128.995 290.851 130.535C291.211 132.075 292.551 133.195 293.841 133.025L347.821 125.905Z" fill="url(#paint12_linear_7_145)"/>
<path d="M372.561 105.425C373.851 105.255 375.181 106.365 375.551 107.915C375.911 109.455 375.161 110.845 373.871 111.015L291.261 121.905C289.971 122.075 288.641 120.965 288.281 119.415C287.921 117.875 288.671 116.485 289.961 116.315L372.571 105.425H372.561Z" fill="#FDFDFD"/>
<path d="M346.531 120.305C347.821 120.135 349.151 121.245 349.521 122.795C349.881 124.335 349.131 125.725 347.841 125.895L293.861 133.015C292.571 133.185 291.241 132.075 290.881 130.525C290.521 128.985 291.271 127.595 292.561 127.425L346.541 120.305H346.531Z" fill="#FDFDFD"/>
<path d="M298.681 154.345L285.021 156.145C281.811 156.565 278.471 153.785 277.571 149.935L267.021 104.815C266.251 101.505 267.521 98.4846 269.921 97.4246L260.171 101.705C257.761 102.765 256.491 105.785 257.271 109.095L267.821 154.215C268.721 158.065 272.051 160.845 275.271 160.425L288.931 158.625L293.821 179.545L303.571 175.265L298.681 154.345Z" fill="url(#paint13_linear_7_145)"/>
<defs>
<linearGradient id="paint0_linear_7_145" x1="203.331" y1="-7.00547" x2="362.951" y2="335.285" gradientUnits="userSpaceOnUse">
<stop stop-color="white"/>
<stop offset="1" stop-color="#C4D3FF"/>
</linearGradient>
<linearGradient id="paint1_linear_7_145" x1="115.321" y1="34.0445" x2="256.401" y2="336.604" gradientUnits="userSpaceOnUse">
<stop stop-color="#C4D3FF"/>
<stop offset="0.27" stop-color="#B4C3F4"/>
<stop offset="0.78" stop-color="#8B9ADA"/>
<stop offset="1" stop-color="#7887CE"/>
</linearGradient>
<linearGradient id="paint2_linear_7_145" x1="234.251" y1="45.3346" x2="320.861" y2="231.055" gradientUnits="userSpaceOnUse">
<stop stop-color="#FFA839"/>
<stop offset="0.1" stop-color="#FF9649"/>
<stop offset="0.31" stop-color="#FF6773"/>
<stop offset="0.54" stop-color="#FF2CAB"/>
<stop offset="1" stop-color="#9000FF"/>
</linearGradient>
<linearGradient id="paint3_linear_7_145" x1="171.261" y1="34.7646" x2="181.551" y2="56.8246" gradientUnits="userSpaceOnUse">
<stop stop-color="#FF4D8F"/>
<stop offset="1" stop-color="#C42673"/>
</linearGradient>
<linearGradient id="paint4_linear_7_145" x1="232.351" y1="238.305" x2="244.161" y2="263.645" gradientUnits="userSpaceOnUse">
<stop stop-color="#FF4D8F"/>
<stop offset="1" stop-color="#C42673"/>
</linearGradient>
<linearGradient id="paint5_linear_7_145" x1="106.711" y1="274.305" x2="129.441" y2="323.055" gradientUnits="userSpaceOnUse">
<stop offset="0.17" stop-color="#FFFADB"/>
<stop offset="0.49" stop-color="#FFED74"/>
<stop offset="1" stop-color="#FFAE00"/>
</linearGradient>
<linearGradient id="paint6_linear_7_145" x1="10.3113" y1="206.304" x2="27.1013" y2="242.324" gradientUnits="userSpaceOnUse">
<stop offset="0.17" stop-color="#FFFADB"/>
<stop offset="0.49" stop-color="#FFED74"/>
<stop offset="1" stop-color="#FFAE00"/>
</linearGradient>
<linearGradient id="paint7_linear_7_145" x1="143.961" y1="211.195" x2="214.921" y2="211.195" gradientUnits="userSpaceOnUse">
<stop stop-color="#AEBDF1"/>
<stop offset="0.74" stop-color="#8695D7"/>
<stop offset="1" stop-color="#7887CE"/>
</linearGradient>
<linearGradient id="paint8_linear_7_145" x1="127.581" y1="118.084" x2="163.461" y2="195.014" gradientUnits="userSpaceOnUse">
<stop stop-color="#78C552"/>
<stop offset="1" stop-color="#468F35"/>
</linearGradient>
<linearGradient id="paint9_linear_7_145" x1="157.091" y1="104.055" x2="204.961" y2="206.705" gradientUnits="userSpaceOnUse">
<stop offset="0.26" stop-color="#C2FF7F"/>
<stop offset="1" stop-color="#78DA52"/>
</linearGradient>
<linearGradient id="paint10_linear_7_145" x1="156.351" y1="122.325" x2="201.381" y2="218.895" gradientUnits="userSpaceOnUse">
<stop stop-color="white"/>
<stop offset="1" stop-color="#C4D3FF"/>
</linearGradient>
<linearGradient id="paint11_linear_7_145" x1="156.351" y1="122.325" x2="201.381" y2="218.895" gradientUnits="userSpaceOnUse">
<stop stop-color="white"/>
<stop offset="1" stop-color="#C4D3FF"/>
</linearGradient>
<linearGradient id="paint12_linear_7_145" x1="313.541" y1="77.0845" x2="352.941" y2="161.585" gradientUnits="userSpaceOnUse">
<stop stop-color="#94FFFF"/>
<stop offset="1" stop-color="#74BAE3"/>
</linearGradient>
<linearGradient id="paint13_linear_7_145" x1="258.911" y1="102.295" x2="294.831" y2="179.335" gradientUnits="userSpaceOnUse">
<stop stop-color="#74BAE3"/>
<stop offset="1" stop-color="#0085B8"/>
</linearGradient>
</defs>
</svg>
