<svg width="301" height="371" viewBox="0 0 301 371" fill="none" xmlns="http://www.w3.org/2000/svg">
<path d="M51.8076 33.5881L63.1876 42.4581C64.8576 43.7581 64.3076 46.4181 62.2576 46.9581L48.2976 50.5981C47.4776 50.8081 46.8276 51.4081 46.5376 52.1981L41.6176 65.7581C40.8976 67.7481 38.1976 68.0481 37.0576 66.2681L29.2876 54.1181C28.8376 53.4081 28.0576 52.9681 27.2176 52.9381L12.7976 52.4481C10.6776 52.3781 9.55761 49.9081 10.9076 48.2681L20.0676 37.1181C20.5976 36.4681 20.7776 35.5981 20.5476 34.7881L16.5576 20.9281C15.9676 18.8881 17.9776 17.0581 19.9476 17.8381L33.3776 23.0981C34.1576 23.4081 35.0476 23.3081 35.7476 22.8381L47.6977 14.7581C49.4576 13.5681 51.8076 14.9081 51.6876 17.0281L50.8277 31.4281C50.7777 32.2681 51.1476 33.0781 51.8076 33.5981V33.5881Z" fill="url(#paint0_linear_7_144)"/>
<g style="mix-blend-mode:multiply" opacity="0.45">
<path d="M51.8076 33.5881L63.1876 42.4581C64.8576 43.7581 64.3076 46.4181 62.2576 46.9581L48.2976 50.5981C47.4776 50.8081 46.8276 51.4081 46.5376 52.1981L41.6176 65.7581C40.8976 67.7481 38.1976 68.0481 37.0576 66.2681L29.2876 54.1181C28.8376 53.4081 28.0576 52.9681 27.2176 52.9381L12.7976 52.4481C10.6776 52.3781 9.55761 49.9081 10.9076 48.2681L20.0676 37.1181C20.5976 36.4681 20.7776 35.5981 20.5476 34.7881L16.5576 20.9281C15.9676 18.8881 17.9776 17.0581 19.9476 17.8381L33.3776 23.0981C34.1576 23.4081 35.0476 23.3081 35.7476 22.8381L47.6977 14.7581C49.4576 13.5681 51.8076 14.9081 51.6876 17.0281L50.8277 31.4281C50.7777 32.2681 51.1476 33.0781 51.8076 33.5981V33.5881Z" fill="#FFAE00"/>
</g>
<path d="M281.178 282.838L290.608 277.878C291.998 277.148 293.618 278.328 293.348 279.868L291.548 290.378C291.438 290.988 291.648 291.618 292.088 292.048L299.718 299.488C300.838 300.578 300.218 302.488 298.668 302.718L288.118 304.248C287.498 304.338 286.968 304.728 286.698 305.278L281.978 314.838C281.288 316.248 279.278 316.248 278.588 314.838L273.868 305.278C273.588 304.718 273.058 304.328 272.448 304.248L261.898 302.718C260.348 302.488 259.728 300.588 260.848 299.488L268.478 292.048C268.928 291.618 269.128 290.988 269.018 290.378L267.218 279.868C266.958 278.318 268.578 277.148 269.958 277.878L279.388 282.838C279.938 283.128 280.598 283.128 281.148 282.838H281.178Z" fill="url(#paint1_linear_7_144)"/>
<g style="mix-blend-mode:multiply" opacity="0.45">
<path d="M281.178 282.838L290.608 277.878C291.998 277.148 293.618 278.328 293.348 279.868L291.548 290.378C291.438 290.988 291.648 291.618 292.088 292.048L299.718 299.488C300.838 300.578 300.218 302.488 298.668 302.718L288.118 304.248C287.498 304.338 286.968 304.728 286.698 305.278L281.978 314.838C281.288 316.248 279.278 316.248 278.588 314.838L273.868 305.278C273.588 304.718 273.058 304.328 272.448 304.248L261.898 302.718C260.348 302.488 259.728 300.588 260.848 299.488L268.478 292.048C268.928 291.618 269.128 290.988 269.018 290.378L267.218 279.868C266.958 278.318 268.578 277.148 269.958 277.878L279.388 282.838C279.938 283.128 280.598 283.128 281.148 282.838H281.178Z" fill="#FFAE00"/>
</g>
<path d="M272.748 35.8381C274.218 36.1581 275.518 36.8581 276.598 37.8581C277.688 38.8581 278.558 40.1681 279.188 41.6781C279.818 43.1881 280.188 44.9181 280.278 46.7581C280.368 48.5981 280.168 50.5681 279.648 52.5581L200.438 355.608C199.918 357.598 199.128 359.408 198.148 360.958C197.168 362.518 195.998 363.828 194.718 364.838C193.438 365.838 192.038 366.538 190.598 366.878C189.168 367.208 187.688 367.178 186.258 366.718L24.5178 314.978C23.2178 314.568 22.0878 313.788 21.1478 312.738C20.2078 311.688 19.4577 310.368 18.9377 308.858C18.4177 307.348 18.1177 305.668 18.0677 303.878C18.0177 302.098 18.2277 300.218 18.7177 298.338L93.5377 11.7481C94.0277 9.86807 94.7677 8.12807 95.6777 6.59807C96.5877 5.06807 97.6777 3.74807 98.8677 2.69807C100.058 1.64807 101.358 0.868072 102.688 0.428072C104.018 -0.0119282 105.388 -0.131925 106.718 0.158075L272.748 35.8381ZM211.988 251.408L253.188 93.7981L95.8677 57.1081L56.6177 207.428L211.998 251.408M151.568 299.488C151.998 299.618 152.448 299.618 152.878 299.508C153.308 299.398 153.738 299.178 154.118 298.868C154.508 298.558 154.858 298.148 155.158 297.678C155.458 297.198 155.698 296.648 155.848 296.038C156.008 295.428 156.068 294.828 156.048 294.248C156.028 293.668 155.918 293.128 155.738 292.648C155.558 292.168 155.308 291.738 154.988 291.408C154.668 291.078 154.288 290.828 153.858 290.698L46.4477 258.478C46.0377 258.358 45.6277 258.358 45.2177 258.478C44.8077 258.588 44.4177 258.808 44.0477 259.108C43.6777 259.408 43.3477 259.808 43.0677 260.268C42.7877 260.728 42.5577 261.268 42.4077 261.848C42.2577 262.438 42.1878 263.018 42.2078 263.568C42.2278 264.118 42.3177 264.638 42.4777 265.108C42.6377 265.568 42.8777 265.978 43.1677 266.298C43.4577 266.618 43.8177 266.858 44.2177 266.978L151.558 299.488M109.028 305.238C109.448 305.368 109.888 305.368 110.308 305.268C110.728 305.158 111.148 304.948 111.528 304.638C111.908 304.328 112.258 303.928 112.548 303.458C112.838 302.988 113.078 302.438 113.228 301.838C113.388 301.238 113.448 300.638 113.428 300.068C113.408 299.498 113.308 298.968 113.128 298.488C112.958 298.008 112.708 297.588 112.398 297.258C112.088 296.928 111.718 296.678 111.298 296.548L42.0277 275.368C41.6277 275.248 41.2077 275.248 40.7977 275.358C40.3877 275.468 39.9977 275.678 39.6277 275.988C39.2677 276.288 38.9278 276.678 38.6478 277.148C38.3678 277.608 38.1377 278.148 37.9877 278.728C37.8377 279.318 37.7677 279.898 37.7877 280.448C37.8077 280.998 37.8977 281.528 38.0577 281.988C38.2177 282.448 38.4577 282.858 38.7477 283.188C39.0377 283.508 39.3977 283.748 39.7977 283.878L109.028 305.238ZM53.6377 224.008C52.9277 224.728 52.3277 225.598 51.8577 226.548C51.3877 227.498 51.0477 228.528 50.8477 229.578C50.6477 230.628 50.5877 231.698 50.6877 232.728C50.7877 233.758 51.0277 234.748 51.4477 235.628L57.4477 248.468L68.8777 240.728C69.6677 240.198 70.3678 239.478 70.9578 238.648C71.5478 237.808 72.0177 236.858 72.3677 235.838C72.7077 234.818 72.9177 233.748 72.9777 232.668C73.0377 231.588 72.9377 230.518 72.6777 229.508C72.5277 228.938 72.3278 228.408 72.0878 227.938C71.8478 227.468 71.5677 227.048 71.2577 226.698C70.9477 226.338 70.6077 226.038 70.2377 225.798C69.8677 225.558 69.4777 225.378 69.0677 225.258C68.7477 225.168 68.4277 225.118 68.0977 225.098C67.7677 225.088 67.4278 225.108 67.0878 225.178C66.7478 225.248 66.3977 225.348 66.0577 225.498C65.7177 225.648 65.3677 225.838 65.0277 226.068L62.9578 227.478L61.8677 225.148C61.6877 224.768 61.4777 224.418 61.2577 224.098C61.0377 223.788 60.7877 223.508 60.5277 223.268C60.2677 223.028 59.9877 222.828 59.6977 222.658C59.4077 222.488 59.1077 222.368 58.7877 222.278C58.3777 222.158 57.9577 222.108 57.5277 222.118C57.0977 222.128 56.6577 222.208 56.2177 222.348C55.7777 222.488 55.3377 222.698 54.9077 222.968C54.4777 223.238 54.0578 223.588 53.6478 223.998M130.218 33.8381C129.798 33.7481 129.368 33.7781 128.948 33.9081C128.528 34.0481 128.118 34.2881 127.748 34.6081C127.368 34.9381 127.028 35.3481 126.748 35.8181C126.458 36.2981 126.228 36.8381 126.078 37.4281C125.928 38.0181 125.858 38.5981 125.878 39.1481C125.898 39.6981 125.998 40.2081 126.168 40.6581C126.338 41.1081 126.588 41.4981 126.888 41.7881C127.188 42.0781 127.558 42.2981 127.978 42.3881L180.358 54.2481C180.788 54.3481 181.238 54.3181 181.668 54.1781C182.098 54.0381 182.518 53.7981 182.908 53.4681C183.298 53.1381 183.648 52.7181 183.938 52.2381C184.228 51.7481 184.468 51.1981 184.628 50.5981C184.788 49.9981 184.848 49.4081 184.828 48.8481C184.808 48.2881 184.698 47.7681 184.518 47.3181C184.338 46.8581 184.078 46.4681 183.768 46.1581C183.448 45.8581 183.068 45.6381 182.638 45.5481L130.228 33.8281M201.128 290.938L207.868 265.128L189.258 259.778L182.548 285.438L193.238 282.738L201.128 290.938ZM113.568 21.6281C112.468 21.3881 111.328 21.4681 110.228 21.8281C109.128 22.1881 108.048 22.8281 107.058 23.6981C106.068 24.5581 105.168 25.6581 104.408 26.9181C103.648 28.1881 103.038 29.6181 102.628 31.1881C102.218 32.7581 102.048 34.2981 102.098 35.7481C102.148 37.1981 102.408 38.5481 102.858 39.7381C103.308 40.9281 103.948 41.9581 104.758 42.7481C105.558 43.5381 106.528 44.0981 107.628 44.3481C108.728 44.5981 109.868 44.5181 110.978 44.1681C112.088 43.8081 113.168 43.1781 114.158 42.3081C115.158 41.4481 116.058 40.3481 116.828 39.0781C117.588 37.8081 118.208 36.3581 118.618 34.7881C119.028 33.2181 119.198 31.6681 119.138 30.2181C119.088 28.7681 118.818 27.4081 118.358 26.2181C117.898 25.0281 117.248 24.0081 116.438 23.2181C115.628 22.4281 114.658 21.8781 113.548 21.6381" fill="url(#paint2_linear_7_144)"/>
<path d="M104.748 42.7781C105.548 43.5681 106.518 44.1281 107.618 44.3781C108.718 44.6281 109.858 44.5481 110.968 44.1981C112.078 43.8381 113.158 43.2081 114.148 42.3381C115.148 41.4781 116.048 40.3781 116.818 39.1081C117.578 37.8381 118.198 36.3881 118.608 34.8181C119.018 33.2481 119.188 31.6981 119.128 30.2481C119.078 28.7981 118.808 27.4381 118.348 26.2481C117.888 25.0581 117.238 24.0381 116.428 23.2481C115.618 22.4581 114.648 21.9081 113.548 21.6681C112.448 21.4281 111.308 21.5081 110.208 21.8681C109.108 22.2281 108.028 22.8681 107.038 23.7381C106.048 24.5981 105.148 25.6981 104.388 26.9581C103.628 28.2281 103.018 29.6581 102.608 31.2281C102.198 32.7981 102.028 34.3381 102.078 35.7881C102.128 37.2381 102.388 38.5881 102.838 39.7781C103.288 40.9681 103.928 41.9981 104.738 42.7881L104.748 42.7781Z" fill="url(#paint3_linear_7_144)"/>
<path d="M112.398 297.268C112.088 296.938 111.718 296.688 111.298 296.558L42.0278 275.378C41.6278 275.258 41.2078 275.258 40.7978 275.368C40.3878 275.478 39.9978 275.688 39.6278 275.998C39.2578 276.298 38.9278 276.688 38.6478 277.158C38.3678 277.618 38.1378 278.158 37.9878 278.738C37.8378 279.328 37.7678 279.908 37.7878 280.458C37.8078 281.008 37.8978 281.538 38.0578 281.998C38.2178 282.468 38.4578 282.868 38.7478 283.198C39.0378 283.518 39.3978 283.758 39.7978 283.888L109.028 305.248C109.448 305.378 109.888 305.378 110.308 305.278C110.728 305.168 111.148 304.958 111.528 304.648C111.908 304.338 112.258 303.938 112.548 303.468C112.838 302.998 113.078 302.448 113.228 301.848C113.388 301.248 113.448 300.648 113.428 300.078C113.408 299.508 113.308 298.978 113.128 298.498C112.958 298.018 112.708 297.598 112.398 297.268Z" fill="#748DFA"/>
<path d="M126.878 41.8181C127.188 42.1181 127.548 42.3281 127.968 42.4181L180.348 54.2781C180.778 54.3781 181.228 54.3481 181.658 54.2081C182.088 54.0681 182.508 53.8281 182.898 53.4981C183.288 53.1681 183.638 52.7481 183.928 52.2681C184.218 51.7781 184.458 51.2281 184.618 50.6281C184.778 50.0281 184.838 49.4381 184.818 48.8781C184.798 48.3181 184.688 47.7981 184.508 47.3481C184.328 46.8881 184.068 46.4981 183.758 46.1881C183.438 45.8881 183.058 45.6681 182.628 45.5781L130.218 33.8581C129.798 33.7681 129.368 33.7981 128.948 33.9281C128.528 34.0681 128.118 34.3081 127.748 34.6281C127.368 34.9581 127.028 35.3681 126.748 35.8381C126.458 36.3181 126.228 36.8581 126.078 37.4481C125.928 38.0381 125.858 38.6181 125.878 39.1681C125.898 39.7181 125.998 40.2281 126.168 40.6781C126.338 41.1281 126.588 41.5181 126.888 41.8081L126.878 41.8181Z" fill="#748DFA"/>
<path d="M51.4479 235.638L57.4479 248.478L68.8779 240.738C69.6679 240.208 70.3679 239.488 70.9579 238.658C71.5479 237.818 72.0179 236.868 72.3679 235.848C72.7179 234.828 72.9179 233.758 72.9779 232.678C73.0379 231.598 72.9379 230.528 72.6779 229.518C72.5279 228.948 72.3279 228.418 72.0879 227.948C71.8479 227.478 71.5679 227.058 71.2579 226.708C70.9479 226.348 70.6079 226.048 70.2379 225.808C69.8679 225.568 69.4779 225.388 69.0679 225.268C68.7479 225.178 68.4279 225.128 68.0979 225.108C67.7679 225.088 67.4279 225.118 67.0879 225.188C66.7479 225.258 66.3979 225.358 66.0579 225.508C65.7079 225.658 65.3679 225.848 65.0179 226.078L62.9479 227.488L61.8579 225.158C61.6779 224.778 61.4679 224.428 61.2479 224.108C61.0279 223.788 60.7779 223.518 60.5179 223.278C60.2579 223.038 59.9779 222.838 59.6879 222.668C59.3979 222.508 59.0979 222.378 58.7779 222.288C58.3679 222.168 57.9479 222.118 57.5179 222.128C57.0879 222.138 56.6479 222.218 56.2079 222.358C55.7679 222.498 55.3279 222.708 54.8979 222.978C54.4679 223.248 54.0479 223.598 53.6379 224.008C52.9279 224.728 52.3279 225.598 51.8579 226.548C51.3879 227.498 51.0479 228.528 50.8479 229.578C50.6479 230.628 50.5879 231.698 50.6879 232.728C50.7879 233.758 51.0279 234.748 51.4479 235.628V235.638Z" fill="url(#paint4_linear_7_144)"/>
<path d="M95.8578 57.108L56.6078 207.428L211.988 251.408L253.178 93.798L95.8578 57.108Z" fill="url(#paint5_linear_7_144)"/>
<path d="M154.978 291.418C154.658 291.088 154.278 290.838 153.848 290.708L46.4377 258.488C46.0277 258.368 45.6177 258.368 45.2077 258.488C44.7977 258.598 44.4076 258.818 44.0376 259.118C43.6676 259.418 43.3377 259.818 43.0577 260.278C42.7777 260.738 42.5477 261.278 42.3977 261.858C42.2477 262.438 42.1777 263.028 42.1977 263.578C42.2177 264.128 42.3076 264.648 42.4676 265.118C42.6276 265.578 42.8676 265.988 43.1576 266.308C43.4476 266.628 43.8077 266.868 44.2077 266.988L151.548 299.498C151.978 299.628 152.428 299.628 152.858 299.518C153.288 299.408 153.718 299.188 154.098 298.878C154.478 298.568 154.838 298.158 155.138 297.688C155.438 297.208 155.678 296.658 155.828 296.048C155.988 295.438 156.048 294.838 156.028 294.258C156.008 293.688 155.898 293.138 155.718 292.658C155.538 292.178 155.288 291.748 154.968 291.418H154.978Z" fill="#748DFA"/>
<path d="M182.538 285.468L193.218 282.768L201.108 290.968L207.858 265.158L189.238 259.808L182.538 285.468Z" fill="#748DFA"/>
<path d="M298.648 52.768C298.648 52.768 298.648 52.7181 298.648 52.6981C298.628 52.2481 298.598 51.798 298.548 51.358C298.548 51.358 298.548 51.338 298.548 51.328C298.548 51.248 298.518 51.178 298.508 51.098C298.458 50.728 298.398 50.368 298.328 50.008C298.328 49.968 298.318 49.928 298.308 49.898C298.278 49.778 298.248 49.668 298.218 49.548C298.148 49.2681 298.078 48.988 297.998 48.718C297.978 48.658 297.968 48.598 297.948 48.538C297.918 48.438 297.878 48.338 297.848 48.238C297.818 48.138 297.778 48.038 297.738 47.938C297.728 47.898 297.708 47.858 297.698 47.818C297.698 47.818 297.698 47.8081 297.698 47.798C297.698 47.798 297.698 47.788 297.698 47.778C297.678 47.728 297.658 47.678 297.648 47.638C297.608 47.538 297.568 47.448 297.528 47.348C297.498 47.278 297.468 47.198 297.428 47.128C297.398 47.058 297.358 46.9781 297.328 46.9081C297.298 46.8481 297.268 46.7881 297.238 46.7281C297.238 46.7281 297.238 46.708 297.228 46.698C297.198 46.628 297.158 46.558 297.118 46.488C297.088 46.428 297.058 46.368 297.028 46.308C296.998 46.248 296.968 46.188 296.928 46.128C296.888 46.068 296.858 46.008 296.828 45.958C296.798 45.898 296.758 45.848 296.728 45.788C296.718 45.768 296.708 45.758 296.698 45.738C296.698 45.738 296.698 45.7381 296.698 45.7281C296.678 45.6981 296.658 45.668 296.648 45.638C296.618 45.588 296.588 45.538 296.558 45.488C296.528 45.438 296.498 45.3881 296.458 45.3381C296.418 45.2881 296.388 45.238 296.358 45.198C296.328 45.158 296.298 45.108 296.268 45.068C296.238 45.028 296.208 44.978 296.168 44.938C296.138 44.898 296.108 44.858 296.078 44.828C296.078 44.828 296.078 44.828 296.078 44.818C296.048 44.778 296.008 44.728 295.978 44.688C295.948 44.648 295.918 44.608 295.878 44.568C295.848 44.528 295.818 44.488 295.778 44.448C295.748 44.408 295.708 44.368 295.678 44.328C295.648 44.288 295.608 44.248 295.578 44.218C295.548 44.178 295.518 44.148 295.478 44.108C295.448 44.078 295.408 44.038 295.378 44.008C295.348 43.978 295.318 43.9481 295.288 43.9081C295.258 43.8781 295.218 43.838 295.188 43.808C295.158 43.778 295.118 43.748 295.088 43.708C295.058 43.678 295.018 43.648 294.988 43.618C294.958 43.588 294.918 43.558 294.888 43.528C294.858 43.498 294.818 43.468 294.788 43.438C294.758 43.408 294.718 43.378 294.688 43.348C294.668 43.328 294.638 43.308 294.618 43.288C294.618 43.288 294.598 43.278 294.588 43.268C294.558 43.238 294.518 43.208 294.488 43.188C294.448 43.158 294.418 43.128 294.378 43.108C294.338 43.078 294.308 43.058 294.268 43.028C294.228 42.998 294.198 42.978 294.158 42.948C294.118 42.918 294.088 42.898 294.048 42.868C294.008 42.848 293.978 42.818 293.938 42.798C293.898 42.778 293.868 42.7481 293.828 42.7281C293.808 42.7181 293.788 42.698 293.758 42.688C293.748 42.688 293.728 42.668 293.718 42.668C293.678 42.648 293.648 42.618 293.608 42.598C293.568 42.578 293.528 42.548 293.498 42.528C293.458 42.508 293.418 42.488 293.378 42.458C293.338 42.438 293.298 42.418 293.258 42.398C293.218 42.378 293.178 42.3581 293.138 42.3381C293.098 42.3181 293.058 42.298 293.018 42.278C292.978 42.258 292.938 42.238 292.898 42.218C292.878 42.218 292.858 42.198 292.838 42.188C292.818 42.188 292.798 42.1681 292.778 42.1581C292.738 42.1381 292.698 42.118 292.648 42.098C292.608 42.078 292.568 42.0581 292.518 42.048C292.478 42.028 292.428 42.008 292.388 41.998C292.348 41.978 292.298 41.968 292.258 41.948C292.218 41.928 292.168 41.918 292.128 41.898C292.088 41.878 292.038 41.868 291.998 41.848C291.988 41.848 291.978 41.8481 291.958 41.8381C291.948 41.8381 291.938 41.838 291.918 41.828C291.908 41.828 291.898 41.828 291.878 41.818C291.858 41.808 291.858 41.818 291.838 41.808C285.718 39.888 279.608 37.978 273.488 36.058C273.828 36.168 274.148 36.288 274.468 36.438C274.778 36.588 275.088 36.748 275.378 36.938C275.668 37.128 275.948 37.328 276.218 37.548C276.488 37.768 276.748 38.008 276.998 38.268C277.248 38.528 277.478 38.7981 277.698 39.0881C277.918 39.3781 278.128 39.678 278.318 39.998C278.318 39.998 278.318 39.998 278.318 40.008C278.508 40.328 278.688 40.658 278.858 40.998C278.858 40.998 278.858 40.998 278.858 41.008C279.018 41.348 279.168 41.698 279.308 42.058C279.308 42.068 279.308 42.088 279.318 42.098C279.428 42.388 279.528 42.698 279.618 43.008C279.698 43.278 279.768 43.558 279.838 43.848C279.878 43.998 279.918 44.158 279.948 44.308C280.018 44.668 280.078 45.028 280.128 45.398C280.138 45.488 280.158 45.578 280.168 45.668C280.218 46.128 280.258 46.6081 280.268 47.0881C280.268 47.2281 280.268 47.358 280.268 47.498C280.268 47.848 280.268 48.198 280.248 48.558C280.228 48.958 280.198 49.348 280.158 49.758C280.108 50.228 280.038 50.6881 279.948 51.1681C279.858 51.6381 279.758 52.118 279.628 52.598L200.418 355.648C200.298 356.118 200.158 356.578 200.008 357.028C200.008 357.028 200.008 357.028 200.008 357.038C199.858 357.488 199.688 357.918 199.508 358.348C199.328 358.778 199.138 359.188 198.938 359.588C198.738 359.988 198.518 360.378 198.288 360.748C198.058 361.118 197.828 361.478 197.578 361.828C197.328 362.178 197.078 362.508 196.808 362.818C196.538 363.138 196.268 363.438 195.988 363.718C195.988 363.718 195.988 363.718 195.978 363.728C195.698 364.008 195.408 364.278 195.118 364.518C195.118 364.518 195.108 364.528 195.098 364.538C194.808 364.788 194.508 365.008 194.208 365.228C194.208 365.228 194.188 365.238 194.178 365.248C193.938 365.418 193.698 365.558 193.448 365.708C193.358 365.768 193.258 365.828 193.168 365.878C192.878 366.038 192.578 366.188 192.278 366.328C192.278 366.328 192.268 366.328 192.258 366.328C191.948 366.458 191.638 366.578 191.328 366.678C191.228 366.708 191.128 366.738 191.028 366.758C190.818 366.818 190.598 366.878 190.378 366.918C190.258 366.938 190.148 366.958 190.028 366.978C189.828 367.008 189.618 367.038 189.408 367.058C189.288 367.068 189.168 367.078 189.058 367.088C188.838 367.088 188.618 367.088 188.408 367.088C188.308 367.088 188.198 367.088 188.098 367.078C187.778 367.058 187.458 367.018 187.138 366.948L205.998 370.698C206.318 370.758 206.638 370.798 206.958 370.828C207.058 370.828 207.158 370.828 207.268 370.838C207.418 370.838 207.568 370.858 207.728 370.858C207.798 370.858 207.858 370.848 207.928 370.848C208.048 370.848 208.168 370.838 208.278 370.818C208.488 370.798 208.688 370.778 208.898 370.738C209.018 370.718 209.128 370.698 209.248 370.678C209.308 370.668 209.378 370.658 209.438 370.648C209.588 370.618 209.738 370.568 209.888 370.518C209.958 370.498 210.038 370.488 210.108 370.458C210.128 370.458 210.158 370.438 210.178 370.428C210.488 370.328 210.798 370.218 211.108 370.088C211.108 370.088 211.118 370.088 211.128 370.078C211.428 369.948 211.718 369.798 212.008 369.638C212.108 369.588 212.198 369.528 212.298 369.468C212.438 369.388 212.578 369.308 212.718 369.218C212.798 369.168 212.878 369.108 212.958 369.058C212.978 369.048 212.998 369.028 213.018 369.018C213.018 369.018 213.038 369.008 213.048 368.998C213.098 368.958 213.148 368.928 213.198 368.888C213.278 368.828 213.358 368.768 213.438 368.708C213.518 368.648 213.598 368.588 213.678 368.528C213.738 368.478 213.798 368.428 213.868 368.378C213.898 368.358 213.918 368.338 213.948 368.318C213.948 368.318 213.948 368.318 213.958 368.318C213.958 368.318 213.958 368.318 213.968 368.318C213.998 368.298 214.028 368.268 214.058 368.248C214.118 368.198 214.178 368.138 214.238 368.088C214.298 368.038 214.358 367.978 214.418 367.928C214.468 367.878 214.518 367.828 214.578 367.778C214.628 367.728 214.678 367.678 214.728 367.628C214.758 367.598 214.798 367.558 214.828 367.528C214.828 367.528 214.828 367.528 214.838 367.518C214.848 367.508 214.868 367.488 214.878 367.478C214.928 367.428 214.978 367.378 215.028 367.328C215.068 367.278 215.118 367.238 215.158 367.188C215.198 367.138 215.248 367.098 215.288 367.048C215.328 366.998 215.378 366.948 215.418 366.908C215.458 366.858 215.508 366.808 215.548 366.758C215.588 366.718 215.618 366.678 215.658 366.638C215.658 366.638 215.658 366.638 215.668 366.628C215.708 366.578 215.748 366.538 215.788 366.488C215.828 366.438 215.868 366.388 215.908 366.348C215.948 366.298 215.988 366.248 216.028 366.198C216.068 366.148 216.098 366.108 216.138 366.058C216.178 366.008 216.208 365.958 216.248 365.918C216.288 365.868 216.318 365.818 216.358 365.778C216.388 365.738 216.408 365.698 216.438 365.668C216.438 365.668 216.448 365.648 216.458 365.648C216.488 365.598 216.528 365.558 216.558 365.508C216.588 365.458 216.628 365.418 216.658 365.368C216.688 365.318 216.718 365.268 216.758 365.228C216.788 365.178 216.818 365.128 216.858 365.088C216.888 365.038 216.918 364.998 216.948 364.948C216.978 364.898 217.008 364.848 217.038 364.808C217.068 364.758 217.098 364.708 217.128 364.658C217.128 364.648 217.148 364.628 217.158 364.618C217.178 364.588 217.198 364.558 217.218 364.518C217.248 364.468 217.278 364.418 217.308 364.368C217.338 364.318 217.368 364.268 217.388 364.218C217.418 364.168 217.448 364.118 217.468 364.068C217.498 364.018 217.528 363.968 217.548 363.918C217.578 363.868 217.598 363.818 217.628 363.768C217.658 363.718 217.678 363.668 217.708 363.618C217.738 363.568 217.758 363.518 217.788 363.468C217.788 363.468 217.788 363.458 217.788 363.448C217.808 363.398 217.838 363.358 217.858 363.308C217.888 363.258 217.908 363.208 217.938 363.158C217.968 363.108 217.988 363.058 218.018 362.998C218.038 362.948 218.068 362.898 218.088 362.838C218.108 362.788 218.138 362.728 218.158 362.678C218.178 362.628 218.208 362.568 218.228 362.518C218.248 362.468 218.278 362.408 218.298 362.358C218.318 362.308 218.338 362.258 218.358 362.208C218.378 362.158 218.408 362.098 218.428 362.048C218.448 361.988 218.478 361.938 218.498 361.878C218.518 361.818 218.538 361.768 218.568 361.708C218.588 361.648 218.608 361.598 218.638 361.538C218.668 361.478 218.678 361.428 218.698 361.368C218.718 361.308 218.738 361.248 218.758 361.188C218.778 361.128 218.798 361.068 218.818 361.008C218.828 360.978 218.838 360.948 218.848 360.908C218.848 360.888 218.868 360.858 218.868 360.838C218.888 360.778 218.908 360.718 218.928 360.658C218.948 360.598 218.968 360.528 218.988 360.468C219.008 360.408 219.028 360.338 219.048 360.278C219.068 360.218 219.088 360.148 219.108 360.078C219.128 360.008 219.148 359.948 219.168 359.878C219.168 359.848 219.188 359.818 219.188 359.798C219.188 359.768 219.208 359.738 219.208 359.718C219.208 359.688 219.228 359.658 219.228 359.638C219.228 359.608 219.238 359.578 219.248 359.558L297.998 58.348C297.998 58.348 298.018 58.258 298.028 58.218C298.038 58.178 298.048 58.1281 298.058 58.0881C298.068 58.048 298.078 57.998 298.088 57.958C298.098 57.918 298.108 57.868 298.118 57.828C298.138 57.748 298.158 57.678 298.168 57.598C298.188 57.518 298.198 57.448 298.218 57.368C298.238 57.288 298.248 57.2181 298.268 57.1381C298.278 57.0681 298.298 56.998 298.308 56.928C298.308 56.928 298.308 56.9281 298.308 56.9181C298.328 56.8281 298.338 56.738 298.358 56.658C298.378 56.568 298.388 56.478 298.398 56.398C298.408 56.308 298.428 56.2181 298.438 56.1381C298.448 56.0481 298.458 55.958 298.478 55.878C298.488 55.768 298.508 55.658 298.518 55.548C298.518 55.548 298.518 55.548 298.518 55.538C298.528 55.428 298.538 55.3081 298.548 55.1981C298.558 55.0881 298.568 54.968 298.578 54.858C298.578 54.748 298.598 54.628 298.598 54.518C298.598 54.468 298.598 54.418 298.598 54.368C298.618 54.018 298.618 53.668 298.608 53.318C298.608 53.208 298.608 53.088 298.608 52.968C298.608 52.948 298.608 52.928 298.608 52.908L298.648 52.768Z" fill="url(#paint6_linear_7_144)"/>
<path d="M277.377 173.508L269.478 170.048C268.758 170.788 268.027 171.508 267.277 172.208C267.227 172.248 267.187 172.298 267.147 172.338C266.557 172.888 265.958 173.418 265.348 173.948C265.218 174.058 265.098 174.168 264.968 174.278C264.368 174.788 263.747 175.298 263.127 175.788C263.057 175.848 262.977 175.898 262.907 175.958C262.087 176.598 261.267 177.218 260.417 177.808C260.337 177.868 260.247 177.928 260.167 177.978C259.337 178.558 258.487 179.118 257.637 179.658C257.507 179.738 257.368 179.818 257.238 179.908C256.768 180.198 256.298 180.478 255.828 180.758C255.678 180.848 255.528 180.938 255.368 181.028C254.778 181.368 254.178 181.698 253.568 182.008C253.468 182.058 253.367 182.108 253.267 182.158C252.747 182.428 252.228 182.688 251.698 182.938C251.528 183.018 251.357 183.098 251.188 183.178C250.607 183.448 250.038 183.708 249.448 183.958C249.398 183.978 249.357 183.998 249.307 184.018C248.677 184.288 248.047 184.538 247.417 184.778C247.247 184.848 247.077 184.908 246.907 184.968C246.397 185.158 245.878 185.348 245.358 185.518C245.218 185.568 245.077 185.618 244.938 185.658C244.298 185.868 243.657 186.068 243.017 186.258C242.867 186.298 242.728 186.338 242.578 186.378C242.058 186.528 241.527 186.668 240.997 186.798C240.817 186.838 240.648 186.888 240.468 186.928C239.818 187.088 239.157 187.228 238.497 187.358C238.427 187.368 238.357 187.378 238.297 187.398C237.697 187.518 237.098 187.618 236.488 187.718C236.298 187.748 236.117 187.778 235.927 187.798C235.347 187.878 234.767 187.958 234.188 188.028C234.087 188.038 233.987 188.058 233.887 188.068C233.217 188.138 232.547 188.198 231.877 188.238C231.707 188.248 231.528 188.258 231.348 188.268C230.808 188.298 230.268 188.318 229.728 188.328C229.568 188.328 229.398 188.338 229.238 188.338C228.568 188.338 227.888 188.338 227.218 188.328C227.088 188.328 226.958 188.318 226.828 188.308C226.268 188.288 225.697 188.258 225.137 188.218C224.947 188.208 224.768 188.188 224.578 188.178C223.898 188.118 223.207 188.058 222.527 187.978C217.797 187.398 213.348 186.158 209.218 184.348L217.118 187.808C221.248 189.618 225.697 190.858 230.427 191.438C231.117 191.518 231.798 191.588 232.478 191.638C232.668 191.658 232.847 191.668 233.037 191.678C233.607 191.718 234.168 191.748 234.728 191.768C234.858 191.768 234.988 191.778 235.118 191.788C235.798 191.808 236.467 191.808 237.137 191.798C237.297 191.798 237.467 191.798 237.627 191.788C238.167 191.778 238.707 191.758 239.247 191.728C239.417 191.728 239.597 191.708 239.777 191.698C240.447 191.658 241.117 191.598 241.787 191.528C241.887 191.518 241.988 191.508 242.088 191.488C242.668 191.418 243.248 191.348 243.828 191.258C244.018 191.228 244.197 191.198 244.387 191.178C244.987 191.078 245.598 190.978 246.198 190.858C246.268 190.848 246.327 190.838 246.397 190.818C247.057 190.688 247.718 190.538 248.368 190.388C248.548 190.348 248.717 190.298 248.897 190.258C249.427 190.128 249.948 189.988 250.478 189.838C250.628 189.798 250.767 189.758 250.917 189.718C251.567 189.528 252.208 189.328 252.848 189.118C252.988 189.068 253.127 189.018 253.267 188.978C253.787 188.798 254.308 188.618 254.828 188.428C254.998 188.368 255.168 188.298 255.338 188.238C255.968 187.998 256.598 187.748 257.228 187.478C257.278 187.458 257.327 187.438 257.377 187.408C257.957 187.158 258.538 186.898 259.108 186.628C259.278 186.548 259.447 186.468 259.627 186.378C260.147 186.128 260.678 185.868 261.198 185.598C261.298 185.548 261.397 185.498 261.497 185.448C262.097 185.128 262.697 184.798 263.297 184.468C263.447 184.378 263.597 184.288 263.757 184.198C264.227 183.918 264.697 183.638 265.167 183.348C265.267 183.288 265.358 183.238 265.458 183.178C265.498 183.158 265.528 183.128 265.568 183.108C266.428 182.568 267.268 182.008 268.098 181.428C268.178 181.368 268.268 181.318 268.348 181.258C269.188 180.668 270.018 180.048 270.838 179.408C270.888 179.368 270.928 179.338 270.978 179.308C271.008 179.288 271.037 179.258 271.057 179.238C271.677 178.748 272.287 178.248 272.887 177.728C273.017 177.618 273.147 177.508 273.277 177.398C273.887 176.878 274.488 176.338 275.078 175.788C275.088 175.778 275.108 175.768 275.118 175.748C275.148 175.718 275.178 175.688 275.208 175.658C275.958 174.958 276.687 174.238 277.407 173.508H277.377Z" fill="url(#paint7_linear_7_144)"/>
<path d="M245.338 68.0681C275.108 71.7181 294.128 101.528 287.828 134.648C285.188 148.518 278.528 160.768 269.478 170.048C268.508 149.218 254.768 132.258 235.048 129.838C214.368 127.298 194.008 141.598 186.038 162.878C179.598 151.248 177.108 136.678 180.018 121.398C186.318 88.2881 215.568 64.4081 245.328 68.0581L245.338 68.0681ZM234.688 124.038C245.008 125.308 255.148 117.018 257.328 105.538C259.508 94.0581 252.918 83.7281 242.598 82.4581C232.278 81.1881 222.138 89.4681 219.948 100.948C217.768 112.428 224.358 122.768 234.678 124.038" fill="url(#paint8_linear_7_144)"/>
<path d="M242.598 82.4581C252.918 83.7281 259.508 94.0581 257.328 105.538C255.148 117.018 245.008 125.308 234.688 124.038C224.368 122.768 217.768 112.428 219.958 100.948C222.138 89.4681 232.288 81.1881 242.608 82.4581H242.598Z" fill="url(#paint9_linear_7_144)"/>
<path d="M242.598 82.4581C252.918 83.7281 259.508 94.0581 257.328 105.538C255.148 117.018 245.008 125.308 234.688 124.038C224.368 122.768 217.768 112.428 219.958 100.948C222.138 89.4681 232.288 81.1881 242.608 82.4581H242.598Z" fill="#A6A6A6"/>
<path d="M235.058 129.838C254.768 132.258 268.508 149.218 269.488 170.048C256.948 182.938 239.828 190.118 222.528 187.998C206.488 186.028 193.578 176.458 186.058 162.888C194.028 141.608 214.388 127.308 235.068 129.848L235.058 129.838Z" fill="url(#paint10_linear_7_144)"/>
<path d="M235.058 129.838C254.768 132.258 268.508 149.218 269.488 170.048C256.948 182.938 239.828 190.118 222.528 187.998C206.488 186.028 193.578 176.458 186.058 162.888C194.028 141.608 214.388 127.308 235.068 129.848L235.058 129.838Z" fill="#A6A6A6"/>
<path d="M242.598 82.4581C252.918 83.7281 259.508 94.0581 257.328 105.538C255.148 117.018 245.008 125.308 234.688 124.038C224.368 122.768 217.768 112.428 219.958 100.948C222.138 89.4681 232.288 81.1881 242.608 82.4581H242.598Z" fill="url(#paint11_linear_7_144)"/>
<path d="M242.598 82.4581C252.918 83.7281 259.508 94.0581 257.328 105.538C255.148 117.018 245.008 125.308 234.688 124.038C224.368 122.768 217.768 112.428 219.958 100.948C222.138 89.4681 232.288 81.1881 242.608 82.4581H242.598Z" fill="url(#paint12_linear_7_144)"/>
<path d="M242.598 82.4581C252.918 83.7281 259.508 94.0581 257.328 105.538C255.148 117.018 245.008 125.308 234.688 124.038C224.368 122.768 217.768 112.428 219.958 100.948C222.138 89.4681 232.288 81.1881 242.608 82.4581H242.598Z" fill="url(#paint13_linear_7_144)"/>
<path d="M235.058 129.838C254.768 132.258 268.508 149.218 269.488 170.048C256.948 182.938 239.828 190.118 222.528 187.998C206.488 186.028 193.578 176.458 186.058 162.888C194.028 141.608 214.388 127.308 235.068 129.848L235.058 129.838Z" fill="url(#paint14_linear_7_144)"/>
<path d="M235.058 129.838C254.768 132.258 268.508 149.218 269.488 170.048C256.948 182.938 239.828 190.118 222.528 187.998C206.488 186.028 193.578 176.458 186.058 162.888C194.028 141.608 214.388 127.308 235.068 129.848L235.058 129.838Z" fill="url(#paint15_linear_7_144)"/>
<path d="M235.058 129.838C254.768 132.258 268.508 149.218 269.488 170.048C256.948 182.938 239.828 190.118 222.528 187.998C206.488 186.028 193.578 176.458 186.058 162.888C194.028 141.608 214.388 127.308 235.068 129.848L235.058 129.838Z" fill="url(#paint16_linear_7_144)"/>
<path d="M296.468 133.278C296.498 133.058 296.517 132.848 296.537 132.628C296.617 131.898 296.688 131.168 296.738 130.448C296.738 130.408 296.738 130.368 296.738 130.328C296.788 129.708 296.818 129.098 296.848 128.478C296.848 128.388 296.848 128.298 296.848 128.208C296.888 127.158 296.917 126.118 296.907 125.078C296.907 124.888 296.907 124.708 296.897 124.518C296.887 123.648 296.857 122.788 296.807 121.928C296.787 121.628 296.777 121.338 296.757 121.048C296.697 120.158 296.617 119.268 296.517 118.388C296.497 118.248 296.488 118.108 296.478 117.978C296.358 116.978 296.207 115.988 296.047 114.998C296.007 114.738 295.957 114.468 295.907 114.208C295.767 113.438 295.618 112.678 295.448 111.918C295.388 111.668 295.337 111.418 295.277 111.158C295.047 110.198 294.807 109.248 294.537 108.318C294.497 108.168 294.447 108.028 294.397 107.878C294.157 107.078 293.907 106.288 293.637 105.508C293.547 105.248 293.458 104.978 293.358 104.718C293.078 103.948 292.788 103.178 292.478 102.428C292.428 102.318 292.398 102.198 292.348 102.088C292.338 102.058 292.317 102.028 292.307 101.998C291.907 101.048 291.477 100.118 291.027 99.1981C290.917 98.9781 290.808 98.7581 290.698 98.5381C290.268 97.6781 289.818 96.8281 289.338 95.9881C289.308 95.9381 289.277 95.8781 289.247 95.8281C289.247 95.8081 289.228 95.7981 289.218 95.7781C288.798 95.0581 288.367 94.3481 287.927 93.6581C287.797 93.4581 287.667 93.2781 287.537 93.0781C287.207 92.5781 286.877 92.0881 286.537 91.6081C286.477 91.5281 286.428 91.4381 286.368 91.3581C286.218 91.1581 286.067 90.9581 285.917 90.7581C285.687 90.4481 285.448 90.1281 285.218 89.8181C284.998 89.5281 284.767 89.2481 284.537 88.9681C284.297 88.6681 284.047 88.3681 283.797 88.0681C283.717 87.9681 283.637 87.8681 283.557 87.7681C283.377 87.5681 283.197 87.3681 283.017 87.1681C282.807 86.9381 282.607 86.7081 282.397 86.4781C282.117 86.1781 281.827 85.8781 281.537 85.5781C281.327 85.3681 281.117 85.1481 280.907 84.9381C280.847 84.8781 280.798 84.8281 280.738 84.7681C280.438 84.4681 280.117 84.1781 279.807 83.8881C279.667 83.7581 279.537 83.6281 279.397 83.5081C278.897 83.0581 278.397 82.6081 277.877 82.1781C277.857 82.1681 277.848 82.1481 277.828 82.1381C277.728 82.0581 277.627 81.9781 277.527 81.8881C277.097 81.5381 276.668 81.1881 276.228 80.8581C276.038 80.7181 275.847 80.5781 275.657 80.4381C275.417 80.2581 275.188 80.0781 274.948 79.9081C274.818 79.8181 274.687 79.7281 274.557 79.6381C274.357 79.4981 274.148 79.3581 273.938 79.2181C273.568 78.9681 273.187 78.7181 272.807 78.4781C272.607 78.3481 272.398 78.2181 272.198 78.0881C272.098 78.0281 271.997 77.9581 271.897 77.8981C271.567 77.6981 271.217 77.5081 270.877 77.3081C270.727 77.2181 270.577 77.1281 270.427 77.0481C269.857 76.7281 269.288 76.4281 268.698 76.1381C268.678 76.1281 268.647 76.1181 268.627 76.1081C267.937 75.7681 267.237 75.4381 266.527 75.1181L258.627 71.6581C259.337 71.9681 260.038 72.2981 260.728 72.6481C261.338 72.9481 261.937 73.2681 262.527 73.5981C262.677 73.6881 262.838 73.7781 262.988 73.8681C263.428 74.1181 263.867 74.3781 264.297 74.6381C264.507 74.7681 264.707 74.8981 264.917 75.0281C265.297 75.2681 265.667 75.5081 266.037 75.7581C266.247 75.8981 266.447 76.0381 266.657 76.1781C267.027 76.4381 267.397 76.7081 267.757 76.9781C267.947 77.1181 268.138 77.2581 268.328 77.3981C268.768 77.7281 269.198 78.0781 269.618 78.4281C269.718 78.5081 269.827 78.5881 269.927 78.6781C270.457 79.1181 270.978 79.5781 271.488 80.0481C271.628 80.1781 271.757 80.3081 271.897 80.4381C272.267 80.7781 272.628 81.1281 272.988 81.4781C273.198 81.6881 273.408 81.9081 273.618 82.1181C273.908 82.4181 274.198 82.7081 274.478 83.0181C274.688 83.2481 274.898 83.4781 275.098 83.7081C275.358 83.9981 275.617 84.2981 275.877 84.5981C276.127 84.8981 276.378 85.1981 276.618 85.4981C276.848 85.7781 277.077 86.0581 277.297 86.3481C277.537 86.6581 277.767 86.9681 277.997 87.2881C278.207 87.5681 278.418 87.8481 278.618 88.1381C278.958 88.6181 279.288 89.1181 279.618 89.6081C279.748 89.7981 279.877 89.9881 280.007 90.1881C280.457 90.8881 280.887 91.5881 281.297 92.3081C281.337 92.3781 281.377 92.4481 281.407 92.5181C281.887 93.3481 282.337 94.1981 282.767 95.0681C282.877 95.2881 282.988 95.5081 283.098 95.7281C283.548 96.6481 283.977 97.5781 284.377 98.5281C284.437 98.6681 284.487 98.8181 284.547 98.9581C284.857 99.7081 285.147 100.478 285.427 101.248C285.527 101.508 285.618 101.778 285.708 102.038C285.978 102.818 286.228 103.608 286.468 104.408C286.508 104.558 286.558 104.698 286.608 104.848C286.878 105.788 287.118 106.728 287.348 107.688C287.408 107.938 287.457 108.188 287.517 108.448C287.687 109.208 287.838 109.968 287.978 110.738C288.028 110.998 288.078 111.258 288.118 111.528C288.288 112.508 288.427 113.498 288.547 114.508C288.567 114.648 288.578 114.788 288.588 114.918C288.688 115.798 288.768 116.688 288.828 117.578C288.848 117.868 288.867 118.168 288.877 118.458C288.927 119.318 288.958 120.178 288.968 121.048C288.968 121.238 288.978 121.418 288.978 121.608C288.978 122.648 288.957 123.688 288.917 124.738C288.887 125.438 288.857 126.148 288.797 126.858C288.797 126.898 288.797 126.938 288.787 126.978C288.737 127.698 288.668 128.428 288.588 129.158C288.568 129.378 288.537 129.588 288.517 129.808C288.447 130.428 288.357 131.058 288.267 131.678C288.247 131.838 288.228 131.998 288.198 132.158C288.068 132.978 287.927 133.808 287.777 134.638C287.577 135.708 287.338 136.768 287.088 137.828C286.988 138.228 286.887 138.628 286.787 139.018C286.687 139.408 286.588 139.798 286.478 140.188C286.358 140.628 286.228 141.058 286.098 141.488C285.988 141.868 285.867 142.258 285.747 142.638C285.597 143.118 285.437 143.588 285.277 144.058C285.177 144.348 285.078 144.648 284.978 144.938C284.788 145.478 284.587 146.008 284.387 146.538C284.297 146.768 284.217 146.998 284.127 147.228C283.837 147.968 283.538 148.698 283.218 149.428C283.148 149.588 283.077 149.748 283.007 149.908C282.757 150.478 282.498 151.038 282.238 151.588C282.128 151.828 282.007 152.068 281.887 152.308C281.657 152.778 281.427 153.238 281.188 153.708C281.058 153.968 280.917 154.218 280.787 154.468C280.617 154.778 280.447 155.088 280.277 155.398C279.687 156.468 279.077 157.518 278.438 158.548C278.388 158.628 278.327 158.718 278.277 158.798C277.647 159.798 276.987 160.778 276.307 161.738C276.197 161.898 276.078 162.068 275.968 162.228C275.248 163.238 274.498 164.218 273.718 165.178C273.498 165.448 273.277 165.718 273.057 165.988C272.837 166.248 272.627 166.508 272.397 166.768C272.107 167.108 271.807 167.448 271.507 167.788C271.287 168.038 271.068 168.288 270.838 168.538C270.368 169.048 269.897 169.558 269.417 170.058L277.318 173.518C277.708 173.118 278.088 172.718 278.468 172.308C278.558 172.208 278.648 172.108 278.738 172.008C278.968 171.758 279.187 171.508 279.407 171.258C279.707 170.918 280.007 170.588 280.297 170.238C280.517 169.978 280.738 169.718 280.958 169.458C281.108 169.278 281.257 169.108 281.407 168.928C281.477 168.838 281.548 168.738 281.618 168.648C282.388 167.688 283.138 166.698 283.868 165.698C283.908 165.638 283.948 165.588 283.988 165.538C284.068 165.428 284.128 165.318 284.208 165.208C284.888 164.248 285.537 163.268 286.177 162.268C286.217 162.208 286.257 162.148 286.297 162.078C286.307 162.058 286.318 162.038 286.338 162.008C286.978 160.978 287.587 159.928 288.177 158.858C288.247 158.738 288.317 158.628 288.387 158.508C288.487 158.318 288.587 158.128 288.688 157.938C288.817 157.688 288.958 157.428 289.088 157.178C289.328 156.718 289.557 156.248 289.787 155.778C289.907 155.538 290.017 155.308 290.137 155.068C290.177 154.978 290.227 154.878 290.277 154.788C290.497 154.328 290.707 153.848 290.907 153.378C290.977 153.218 291.058 153.058 291.118 152.898C291.418 152.208 291.708 151.518 291.978 150.818C291.998 150.778 292.007 150.738 292.017 150.698C292.107 150.468 292.187 150.238 292.277 150.008C292.477 149.478 292.678 148.948 292.868 148.408C292.968 148.118 293.067 147.818 293.167 147.528C293.287 147.188 293.407 146.848 293.517 146.508C293.557 146.378 293.597 146.238 293.637 146.108C293.757 145.728 293.868 145.338 293.988 144.958C294.118 144.528 294.248 144.088 294.368 143.658C294.478 143.268 294.577 142.878 294.677 142.488C294.747 142.218 294.827 141.938 294.897 141.668C294.927 141.548 294.948 141.418 294.978 141.298C295.228 140.248 295.467 139.188 295.667 138.108C295.817 137.348 295.948 136.588 296.068 135.828C296.068 135.768 296.088 135.698 296.098 135.638C296.118 135.478 296.147 135.318 296.167 135.158C296.257 134.528 296.337 133.908 296.417 133.288L296.468 133.278Z" fill="url(#paint17_linear_7_144)"/>
<mask id="mask0_7_144" style="mask-type:luminance" maskUnits="userSpaceOnUse" x="4" y="156" width="9" height="4">
<path d="M11.6877 158.868L4.11768 156.178C4.31768 156.248 4.51767 156.308 4.73767 156.358L12.3077 159.048C12.0977 158.998 11.8877 158.938 11.6877 158.868Z" fill="white"/>
</mask>
<g mask="url(#mask0_7_144)">
<path d="M4.73767 156.358L12.3077 159.048C12.0977 158.998 11.8877 158.938 11.6877 158.868L4.11768 156.178C4.31768 156.248 4.51767 156.308 4.73767 156.358Z" fill="#858585"/>
</g>
<path d="M19.4775 159.838L27.0475 162.518L12.2975 159.048L4.73755 156.358L19.4775 159.838Z" fill="#468F35"/>
<path d="M36.9476 163.948L44.5176 166.638L21.6076 183.498L14.0476 180.818L36.9476 163.948Z" fill="#468F35"/>
<path d="M139.118 125.198C142.588 126.018 144.598 129.808 143.598 133.668L131.868 178.908C130.868 182.768 127.238 185.228 123.768 184.408L36.9376 163.958L14.0375 180.828L19.4776 159.848L4.72755 156.378C1.25755 155.558 -0.74242 151.778 0.25758 147.908L11.9876 102.668C12.9876 98.8081 16.6076 96.3481 20.0776 97.1581L139.118 125.198ZM117.268 148.408C118.658 148.738 120.108 147.748 120.508 146.198C120.908 144.648 120.108 143.128 118.718 142.808L29.5176 121.798C28.1276 121.468 26.6775 122.458 26.2775 124.008C25.8775 125.558 26.6776 127.078 28.0676 127.398L117.268 148.408ZM83.4675 152.268C84.8575 152.598 86.3076 151.608 86.7076 150.058C87.1076 148.508 86.3076 146.988 84.9176 146.668L26.6376 132.938C25.2476 132.608 23.7976 133.598 23.3976 135.148C22.9976 136.698 23.7976 138.218 25.1876 138.538L83.4675 152.268Z" fill="url(#paint18_linear_7_144)"/>
<path d="M84.9275 146.658C86.3175 146.988 87.1175 148.508 86.7175 150.048C86.3175 151.598 84.8675 152.578 83.4775 152.258L25.1975 138.528C23.8075 138.198 23.0075 136.678 23.4075 135.138C23.8075 133.598 25.2575 132.608 26.6475 132.928L84.9275 146.658Z" fill="#FDFDFD"/>
<path d="M118.728 142.798C120.118 143.128 120.918 144.648 120.518 146.188C120.118 147.738 118.668 148.718 117.278 148.398L28.0776 127.388C26.6876 127.058 25.8876 125.538 26.2876 123.998C26.6876 122.448 28.1376 121.468 29.5276 121.788L118.728 142.798Z" fill="#FDFDFD"/>
<path d="M151.398 133.808C151.398 133.688 151.378 133.578 151.368 133.468C151.358 133.368 151.348 133.258 151.328 133.158C151.308 133.048 151.288 132.938 151.268 132.828C151.248 132.728 151.228 132.628 151.198 132.528C151.168 132.418 151.138 132.308 151.108 132.208C151.078 132.108 151.048 132.018 151.018 131.928C150.978 131.818 150.938 131.718 150.898 131.618C150.868 131.558 150.848 131.488 150.818 131.418C150.818 131.398 150.798 131.378 150.788 131.358C150.678 131.108 150.548 130.858 150.398 130.628C150.388 130.608 150.378 130.588 150.368 130.578C150.338 130.528 150.298 130.478 150.268 130.428C150.198 130.318 150.128 130.218 150.048 130.108C150.028 130.078 150.008 130.048 149.988 130.018C149.948 129.968 149.898 129.918 149.858 129.868C149.798 129.798 149.748 129.728 149.688 129.668C149.668 129.638 149.648 129.618 149.618 129.588C149.558 129.528 149.498 129.468 149.438 129.408C149.388 129.368 149.348 129.318 149.298 129.278C149.288 129.268 149.268 129.248 149.258 129.238C149.138 129.128 149.018 129.028 148.898 128.938C148.888 128.938 148.878 128.918 148.868 128.918C148.758 128.838 148.648 128.758 148.538 128.688C148.508 128.668 148.478 128.658 148.458 128.638C148.418 128.608 148.368 128.588 148.328 128.558C148.278 128.528 148.218 128.488 148.168 128.458C148.108 128.428 148.038 128.388 147.968 128.358C147.928 128.338 147.878 128.308 147.838 128.288C147.818 128.278 147.788 128.268 147.768 128.258C147.628 128.198 147.488 128.138 147.338 128.088C147.338 128.088 147.328 128.088 147.318 128.088L141.288 125.948L139.778 125.408C139.778 125.408 139.768 125.408 139.758 125.408C139.938 125.468 140.108 125.548 140.278 125.618C140.318 125.638 140.368 125.658 140.408 125.688C140.528 125.748 140.648 125.818 140.768 125.888C140.818 125.918 140.858 125.938 140.898 125.968C141.038 126.058 141.178 126.148 141.308 126.248C141.318 126.248 141.328 126.268 141.338 126.268C141.478 126.378 141.618 126.498 141.748 126.618C141.798 126.658 141.838 126.708 141.888 126.748C141.978 126.828 142.058 126.918 142.138 127.008C142.198 127.068 142.248 127.138 142.308 127.208C142.368 127.288 142.438 127.368 142.498 127.448C142.578 127.548 142.648 127.658 142.718 127.768C142.758 127.838 142.808 127.898 142.848 127.968C142.988 128.198 143.118 128.448 143.238 128.698C143.278 128.778 143.308 128.868 143.348 128.948C143.388 129.048 143.428 129.148 143.468 129.258C143.498 129.348 143.528 129.448 143.558 129.548C143.588 129.658 143.618 129.758 143.648 129.868C143.668 129.968 143.698 130.068 143.718 130.168C143.738 130.278 143.768 130.388 143.778 130.498C143.798 130.598 143.808 130.698 143.818 130.808C143.828 130.918 143.848 131.038 143.848 131.148C143.848 131.228 143.848 131.318 143.858 131.398C143.858 131.658 143.858 131.918 143.858 132.178C143.858 132.218 143.858 132.258 143.858 132.298C143.848 132.478 143.818 132.668 143.788 132.848C143.788 132.898 143.778 132.948 143.768 132.998C143.768 133.028 143.758 133.058 143.748 133.098C143.708 133.298 143.668 133.488 143.618 133.688L131.888 178.928C131.838 179.138 131.768 179.348 131.698 179.548C131.678 179.608 131.658 179.668 131.638 179.728C131.568 179.908 131.498 180.078 131.428 180.248C131.418 180.268 131.408 180.298 131.398 180.328C131.308 180.518 131.208 180.708 131.108 180.888C131.078 180.938 131.048 180.988 131.028 181.028C130.938 181.168 130.858 181.308 130.758 181.448C130.728 181.488 130.698 181.538 130.668 181.578C130.548 181.748 130.418 181.918 130.288 182.078C130.258 182.108 130.228 182.138 130.208 182.168C130.098 182.298 129.988 182.418 129.868 182.538C129.798 182.608 129.718 182.678 129.648 182.748C129.558 182.828 129.478 182.908 129.388 182.978C129.238 183.108 129.078 183.228 128.918 183.338C128.878 183.368 128.838 183.398 128.798 183.428C128.698 183.498 128.598 183.558 128.488 183.618C128.398 183.668 128.318 183.728 128.228 183.778C128.118 183.838 128.008 183.888 127.898 183.938C127.808 183.978 127.728 184.028 127.638 184.068C127.528 184.118 127.408 184.158 127.298 184.198C127.208 184.228 127.118 184.268 127.028 184.298C126.908 184.338 126.788 184.358 126.668 184.398C126.578 184.418 126.488 184.448 126.398 184.468C126.278 184.498 126.148 184.508 126.028 184.528C125.938 184.538 125.848 184.558 125.758 184.568C125.628 184.578 125.498 184.578 125.368 184.588C125.278 184.588 125.198 184.598 125.108 184.598C124.958 184.598 124.808 184.578 124.658 184.568C124.588 184.568 124.518 184.568 124.458 184.558C124.238 184.528 124.018 184.498 123.808 184.438L36.9775 163.988L44.5475 166.678L131.378 187.128C131.598 187.178 131.818 187.218 132.038 187.248C132.108 187.248 132.178 187.248 132.238 187.258C132.388 187.268 132.538 187.288 132.688 187.288C132.778 187.288 132.858 187.288 132.948 187.278C133.078 187.278 133.208 187.278 133.338 187.258C133.428 187.258 133.518 187.228 133.608 187.218C133.728 187.198 133.858 187.188 133.978 187.158C134.068 187.138 134.158 187.108 134.248 187.088C134.368 187.058 134.488 187.028 134.608 186.988C134.698 186.958 134.788 186.918 134.878 186.888C134.988 186.848 135.108 186.808 135.218 186.758C135.308 186.718 135.398 186.668 135.488 186.628C135.598 186.578 135.708 186.528 135.808 186.468C135.898 186.418 135.988 186.358 136.078 186.308C136.178 186.248 136.278 186.188 136.378 186.118C136.378 186.118 136.388 186.118 136.398 186.108C136.428 186.088 136.468 186.058 136.498 186.028C136.658 185.918 136.818 185.798 136.968 185.668C136.988 185.648 137.008 185.638 137.028 185.618C137.098 185.558 137.158 185.498 137.228 185.428C137.298 185.358 137.378 185.288 137.448 185.218C137.468 185.198 137.488 185.188 137.508 185.168C137.608 185.068 137.698 184.958 137.788 184.858C137.818 184.828 137.848 184.798 137.878 184.758C137.878 184.758 137.878 184.748 137.888 184.738C137.998 184.608 138.108 184.468 138.218 184.318C138.228 184.298 138.248 184.278 138.258 184.258C138.288 184.218 138.318 184.168 138.348 184.128C138.398 184.048 138.448 183.978 138.498 183.898C138.538 183.838 138.568 183.768 138.608 183.708C138.638 183.658 138.668 183.608 138.698 183.558C138.718 183.528 138.738 183.498 138.758 183.468C138.838 183.328 138.908 183.178 138.978 183.028C138.978 183.028 138.978 183.008 138.988 183.008C138.998 182.988 139.008 182.958 139.018 182.928C139.068 182.808 139.128 182.688 139.178 182.568C139.198 182.518 139.218 182.458 139.238 182.408C139.258 182.348 139.278 182.288 139.298 182.228C139.318 182.178 139.338 182.128 139.358 182.068C139.408 181.918 139.448 181.768 139.488 181.608L151.218 136.368C151.218 136.368 151.228 136.308 151.238 136.288C151.278 136.118 151.308 135.958 151.338 135.788C151.338 135.758 151.358 135.718 151.358 135.688C151.358 135.648 151.358 135.598 151.378 135.558C151.408 135.368 151.428 135.188 151.448 134.998C151.448 134.988 151.448 134.978 151.448 134.968C151.448 134.938 151.448 134.908 151.448 134.878C151.468 134.618 151.468 134.358 151.448 134.098C151.448 134.058 151.448 134.018 151.448 133.978C151.448 133.938 151.448 133.888 151.438 133.848L151.398 133.808Z" fill="url(#paint19_linear_7_144)"/>
<defs>
<linearGradient id="paint0_linear_7_144" x1="22.6926" y1="15.7356" x2="45.5759" y2="64.8169" gradientUnits="userSpaceOnUse">
<stop offset="0.17" stop-color="#FFFADB"/>
<stop offset="0.49" stop-color="#FFED74"/>
<stop offset="1" stop-color="#FFAE00"/>
</linearGradient>
<linearGradient id="paint1_linear_7_144" x1="270.588" y1="276.768" x2="287.378" y2="312.788" gradientUnits="userSpaceOnUse">
<stop offset="0.17" stop-color="#FFFADB"/>
<stop offset="0.49" stop-color="#FFED74"/>
<stop offset="1" stop-color="#FFAE00"/>
</linearGradient>
<linearGradient id="paint2_linear_7_144" x1="74.7977" y1="338.488" x2="226.158" y2="13.8981" gradientUnits="userSpaceOnUse">
<stop stop-color="#C4D3FF"/>
<stop offset="1" stop-color="white"/>
</linearGradient>
<linearGradient id="paint3_linear_7_144" x1="105.668" y1="43.6081" x2="115.548" y2="22.4381" gradientUnits="userSpaceOnUse">
<stop stop-color="#FF8939"/>
<stop offset="0.31" stop-color="#FB9845"/>
<stop offset="0.91" stop-color="#F2C166"/>
<stop offset="1" stop-color="#F1C86C"/>
</linearGradient>
<linearGradient id="paint4_linear_7_144" x1="54.6979" y1="247.188" x2="65.6879" y2="223.618" gradientUnits="userSpaceOnUse">
<stop stop-color="#FF4D8F"/>
<stop offset="1" stop-color="#C42673"/>
</linearGradient>
<linearGradient id="paint5_linear_7_144" x1="78.6778" y1="229.498" x2="233.778" y2="74.3981" gradientUnits="userSpaceOnUse">
<stop stop-color="#4790FE"/>
<stop offset="0.56" stop-color="#9000FF"/>
<stop offset="0.75" stop-color="#C615D5"/>
<stop offset="0.91" stop-color="#EF25B6"/>
<stop offset="1" stop-color="#FF2CAB"/>
</linearGradient>
<linearGradient id="paint6_linear_7_144" x1="171.128" y1="359.478" x2="314.398" y2="52.228" gradientUnits="userSpaceOnUse">
<stop stop-color="#7887CE"/>
<stop offset="0.22" stop-color="#8B9ADA"/>
<stop offset="0.73" stop-color="#B4C3F4"/>
<stop offset="1" stop-color="#C4D3FF"/>
</linearGradient>
<linearGradient id="paint7_linear_7_144" x1="235.128" y1="196.448" x2="251.468" y2="161.428" gradientUnits="userSpaceOnUse">
<stop stop-color="#7887CE"/>
<stop offset="0.26" stop-color="#8695D7"/>
<stop offset="1" stop-color="#AEBDF1"/>
</linearGradient>
<linearGradient id="paint8_linear_7_144" x1="212.028" y1="174.998" x2="259.918" y2="72.2781" gradientUnits="userSpaceOnUse">
<stop stop-color="#5D9BFB"/>
<stop offset="1" stop-color="#93D6FB"/>
</linearGradient>
<linearGradient id="paint9_linear_7_144" x1="230.248" y1="85.2481" x2="247.038" y2="121.248" gradientUnits="userSpaceOnUse">
<stop stop-color="#C4D3FF"/>
<stop offset="1" stop-color="white"/>
</linearGradient>
<linearGradient id="paint10_linear_7_144" x1="214.078" y1="132.858" x2="239.988" y2="188.408" gradientUnits="userSpaceOnUse">
<stop stop-color="#C4D3FF"/>
<stop offset="1" stop-color="white"/>
</linearGradient>
<linearGradient id="paint11_linear_7_144" x1="217.508" y1="188.248" x2="262.858" y2="91.0081" gradientUnits="userSpaceOnUse">
<stop stop-color="#C4D3FF"/>
<stop offset="0.85" stop-color="white"/>
</linearGradient>
<linearGradient id="paint12_linear_7_144" x1="217.508" y1="188.248" x2="262.858" y2="91.0081" gradientUnits="userSpaceOnUse">
<stop stop-color="#C4D3FF"/>
<stop offset="0.85" stop-color="white"/>
</linearGradient>
<linearGradient id="paint13_linear_7_144" x1="217.508" y1="188.248" x2="262.858" y2="91.0081" gradientUnits="userSpaceOnUse">
<stop stop-color="#C4D3FF"/>
<stop offset="0.85" stop-color="white"/>
</linearGradient>
<linearGradient id="paint14_linear_7_144" x1="217.508" y1="188.248" x2="262.858" y2="91.0081" gradientUnits="userSpaceOnUse">
<stop stop-color="#C4D3FF"/>
<stop offset="0.85" stop-color="white"/>
</linearGradient>
<linearGradient id="paint15_linear_7_144" x1="217.508" y1="188.248" x2="262.858" y2="91.0081" gradientUnits="userSpaceOnUse">
<stop stop-color="#C4D3FF"/>
<stop offset="0.85" stop-color="white"/>
</linearGradient>
<linearGradient id="paint16_linear_7_144" x1="217.508" y1="188.248" x2="262.858" y2="91.0081" gradientUnits="userSpaceOnUse">
<stop stop-color="#C4D3FF"/>
<stop offset="0.85" stop-color="white"/>
</linearGradient>
<linearGradient id="paint17_linear_7_144" x1="251.837" y1="161.818" x2="287.657" y2="84.9881" gradientUnits="userSpaceOnUse">
<stop stop-color="#3F6EFB"/>
<stop offset="0.73" stop-color="#5D9BFB"/>
<stop offset="1" stop-color="#3F6EFB"/>
</linearGradient>
<linearGradient id="paint18_linear_7_144" x1="45.4176" y1="83.9181" x2="98.4476" y2="197.638" gradientUnits="userSpaceOnUse">
<stop offset="0.26" stop-color="#C2FF7F"/>
<stop offset="1" stop-color="#78DA52"/>
</linearGradient>
<linearGradient id="paint19_linear_7_144" x1="67.3675" y1="194.378" x2="140.888" y2="120.858" gradientUnits="userSpaceOnUse">
<stop stop-color="#468F35"/>
<stop offset="1" stop-color="#78C552"/>
</linearGradient>
</defs>
</svg>
