<svg width="648" height="708" viewBox="0 0 648 708" fill="none" xmlns="http://www.w3.org/2000/svg">
<path d="M328.021 359.035C329.411 358.905 330.851 359.145 332.251 359.705C333.651 360.265 335.021 361.125 336.271 362.235C337.531 363.345 338.681 364.705 339.641 366.235C340.611 367.765 341.391 369.485 341.921 371.315L423.601 653.085C424.141 654.965 424.381 656.805 424.351 658.525C424.321 660.245 424.021 661.845 423.471 663.245C422.931 664.645 422.141 665.845 421.151 666.755C420.161 667.665 418.961 668.294 417.581 668.555L245.651 700.605C244.131 700.885 242.571 700.755 241.051 700.275C239.531 699.795 238.041 698.955 236.681 697.845C235.311 696.725 234.071 695.325 233.031 693.705C231.991 692.085 231.151 690.255 230.591 688.265L147.051 390.425C146.511 388.495 146.311 386.625 146.401 384.895C146.501 383.165 146.891 381.585 147.551 380.225C148.201 378.865 149.121 377.735 150.251 376.895C151.381 376.065 152.741 375.535 154.271 375.395L328.011 359.025L328.021 359.035ZM382.441 561.335L339.811 413.915L174.721 432.095L218.171 586.595L382.441 561.335ZM355.301 626.975C355.741 626.895 356.121 626.705 356.441 626.425C356.761 626.145 357.011 625.775 357.191 625.335C357.371 624.895 357.471 624.405 357.481 623.865C357.491 623.325 357.421 622.755 357.251 622.165C357.081 621.575 356.831 621.035 356.521 620.545C356.211 620.055 355.851 619.645 355.451 619.305C355.051 618.965 354.621 618.715 354.181 618.565C353.741 618.415 353.281 618.365 352.841 618.435L236.221 638.115C235.751 638.195 235.341 638.395 234.991 638.685C234.651 638.975 234.371 639.365 234.171 639.815C233.971 640.265 233.861 640.785 233.841 641.345C233.821 641.905 233.881 642.505 234.061 643.115C234.231 643.724 234.491 644.295 234.811 644.795C235.131 645.295 235.511 645.725 235.931 646.075C236.351 646.425 236.811 646.685 237.281 646.835C237.751 646.985 238.231 647.035 238.701 646.955L355.291 626.985M320.641 650.955C321.091 650.875 321.481 650.675 321.811 650.395C322.141 650.105 322.401 649.725 322.581 649.285C322.761 648.845 322.871 648.335 322.881 647.785C322.901 647.235 322.831 646.655 322.661 646.055C322.491 645.454 322.241 644.905 321.921 644.415C321.611 643.925 321.241 643.505 320.831 643.165C320.421 642.825 319.981 642.565 319.531 642.415C319.081 642.265 318.621 642.215 318.171 642.295L241.161 655.685C240.691 655.764 240.281 655.965 239.931 656.265C239.591 656.555 239.311 656.945 239.111 657.405C238.911 657.855 238.801 658.375 238.781 658.935C238.761 659.495 238.831 660.095 239.001 660.705C239.171 661.315 239.431 661.885 239.751 662.385C240.071 662.885 240.451 663.315 240.881 663.665C241.301 664.015 241.761 664.275 242.231 664.425C242.701 664.575 243.181 664.625 243.651 664.535L320.641 650.955ZM224.361 603.175C224.041 604.165 223.921 605.225 223.981 606.315C224.041 607.395 224.271 608.505 224.651 609.555C225.031 610.615 225.571 611.625 226.241 612.525C226.911 613.425 227.701 614.215 228.601 614.835L241.611 623.835L248.591 611.595C249.071 610.755 249.361 609.795 249.481 608.775C249.601 607.755 249.541 606.675 249.321 605.595C249.101 604.525 248.721 603.455 248.191 602.445C247.661 601.445 246.981 600.505 246.171 599.705C245.711 599.255 245.231 598.865 244.741 598.545C244.251 598.225 243.751 597.965 243.251 597.775C242.751 597.585 242.251 597.465 241.761 597.405C241.271 597.345 240.781 597.355 240.321 597.425C239.961 597.485 239.611 597.575 239.281 597.715C238.951 597.855 238.631 598.025 238.331 598.235C238.031 598.445 237.751 598.695 237.491 598.985C237.231 599.275 236.991 599.605 236.781 599.965L235.511 602.165L233.151 600.535C232.761 600.265 232.371 600.035 231.971 599.845C231.571 599.655 231.181 599.515 230.791 599.415C230.401 599.315 230.011 599.255 229.631 599.225C229.251 599.205 228.881 599.225 228.521 599.275C228.051 599.345 227.601 599.485 227.181 599.695C226.761 599.895 226.361 600.165 226.011 600.485C225.651 600.815 225.331 601.195 225.051 601.645C224.771 602.085 224.541 602.595 224.361 603.145M196.561 399.215C196.091 399.265 195.681 399.425 195.341 399.685C195.001 399.945 194.721 400.295 194.531 400.715C194.331 401.135 194.221 401.625 194.191 402.155C194.161 402.685 194.231 403.265 194.401 403.855C194.571 404.445 194.821 405.005 195.141 405.495C195.461 405.995 195.831 406.425 196.251 406.785C196.671 407.145 197.121 407.415 197.581 407.595C198.051 407.765 198.521 407.845 198.991 407.795L255.511 401.905C255.961 401.855 256.361 401.695 256.691 401.445C257.021 401.195 257.281 400.845 257.471 400.435C257.661 400.025 257.771 399.545 257.791 399.025C257.811 398.505 257.741 397.935 257.581 397.355C257.411 396.775 257.161 396.225 256.851 395.735C256.541 395.245 256.171 394.815 255.771 394.465C255.371 394.115 254.931 393.845 254.471 393.665C254.021 393.495 253.551 393.415 253.101 393.465L196.561 399.225M392.791 598.865L385.741 574.495L367.601 577.355L374.661 601.855L382.251 595.185L392.791 598.865ZM173.191 393.275C171.931 393.405 170.821 393.845 169.901 394.535C168.971 395.225 168.231 396.165 167.691 397.295C167.161 398.415 166.841 399.725 166.761 401.155C166.681 402.585 166.851 404.125 167.301 405.715C167.751 407.305 168.431 408.795 169.281 410.125C170.131 411.455 171.151 412.635 172.271 413.585C173.391 414.545 174.611 415.285 175.871 415.755C177.121 416.225 178.411 416.415 179.671 416.285C180.931 416.155 182.031 415.705 182.951 415.005C183.871 414.305 184.611 413.365 185.141 412.235C185.671 411.105 185.981 409.805 186.051 408.375C186.121 406.955 185.951 405.415 185.501 403.835C185.051 402.255 184.371 400.765 183.531 399.445C182.681 398.125 181.671 396.955 180.561 395.995C179.451 395.045 178.231 394.295 176.981 393.825C175.731 393.355 174.441 393.155 173.181 393.275" fill="url(#paint0_linear_7_147)"/>
<path d="M245.661 700.604L228.051 707.804L399.801 675.594L417.591 668.554L245.661 700.604Z" fill="#8A8A8A"/>
<path d="M244.641 700.724C244.541 700.724 244.441 700.724 244.351 700.734C244.081 700.734 243.811 700.734 243.541 700.724C243.461 700.724 243.371 700.724 243.291 700.714C242.961 700.684 242.621 700.644 242.291 700.574C241.801 700.484 241.311 700.345 240.831 700.174C240.711 700.134 240.581 700.084 240.461 700.034C240.061 699.884 239.671 699.704 239.281 699.514C239.181 699.464 239.071 699.414 238.971 699.364C238.501 699.114 238.041 698.824 237.591 698.514C237.491 698.444 237.391 698.365 237.291 698.294C236.921 698.025 236.561 697.734 236.211 697.424C236.101 697.324 235.991 697.234 235.891 697.134C235.471 696.744 235.061 696.324 234.681 695.884C234.621 695.814 234.561 695.734 234.501 695.664C234.171 695.274 233.851 694.864 233.551 694.434C233.441 694.284 233.341 694.134 233.241 693.984C233.071 693.734 232.921 693.484 232.761 693.224C232.651 693.044 232.541 692.865 232.431 692.674C232.281 692.405 232.131 692.114 231.991 691.834C231.901 691.654 231.801 691.474 231.721 691.284C231.571 690.964 231.441 690.634 231.311 690.304C231.241 690.144 231.171 689.984 231.111 689.814C230.921 689.314 230.761 688.794 230.611 688.274L147.071 390.434C146.901 389.844 146.781 389.254 146.681 388.684C146.661 388.574 146.641 388.474 146.621 388.364C146.531 387.814 146.471 387.264 146.441 386.734C146.441 386.634 146.441 386.534 146.431 386.424C146.421 386.094 146.431 385.774 146.431 385.454C146.431 385.024 146.461 384.604 146.511 384.194C146.541 383.964 146.561 383.724 146.601 383.494C146.671 383.074 146.761 382.664 146.861 382.264C146.911 382.074 146.951 381.884 147.011 381.704C147.181 381.154 147.391 380.624 147.631 380.134C147.631 380.114 147.641 380.104 147.651 380.084C147.901 379.574 148.201 379.114 148.531 378.674C148.771 378.354 149.031 378.044 149.311 377.764C149.461 377.614 149.611 377.454 149.771 377.324C149.771 377.324 149.781 377.314 149.791 377.304C149.981 377.134 150.181 376.984 150.391 376.834C150.441 376.794 150.491 376.764 150.551 376.724C150.761 376.584 150.981 376.444 151.201 376.324L134.401 385.364C134.231 385.454 134.071 385.554 133.911 385.654C133.861 385.684 133.801 385.724 133.751 385.764C133.701 385.804 133.651 385.834 133.601 385.874C133.551 385.914 133.501 385.944 133.451 385.984C133.301 386.094 133.151 386.214 133.011 386.344C133.011 386.344 133.001 386.354 132.991 386.364C132.851 386.484 132.721 386.604 132.591 386.734C132.571 386.754 132.551 386.784 132.521 386.814C132.271 387.064 132.031 387.334 131.811 387.614C131.781 387.644 131.771 387.684 131.741 387.724C131.421 388.154 131.121 388.624 130.861 389.124C130.861 389.144 130.851 389.164 130.841 389.174C130.601 389.664 130.391 390.184 130.221 390.734C130.211 390.784 130.181 390.824 130.171 390.864C130.131 391.004 130.111 391.154 130.081 391.294C130.011 391.574 129.921 391.834 129.861 392.124C129.841 392.254 129.831 392.384 129.811 392.514C129.771 392.744 129.751 392.974 129.721 393.214C129.681 393.624 129.651 394.034 129.641 394.464C129.641 394.614 129.611 394.744 129.611 394.894C129.611 395.074 129.631 395.254 129.631 395.434C129.631 395.494 129.631 395.554 129.631 395.614C129.631 395.654 129.641 395.694 129.641 395.734C129.671 396.264 129.731 396.804 129.821 397.354C129.841 397.454 129.861 397.564 129.881 397.674C129.981 398.244 130.101 398.824 130.271 399.414L213.061 695.554C213.211 696.074 213.371 696.584 213.561 697.084C213.561 697.104 213.571 697.134 213.581 697.154C213.631 697.294 213.701 697.434 213.751 697.574C213.881 697.904 214.011 698.234 214.161 698.544C214.181 698.585 214.201 698.634 214.221 698.684C214.291 698.824 214.361 698.954 214.431 699.094C214.571 699.374 214.711 699.654 214.871 699.934C214.911 699.994 214.931 700.064 214.971 700.124C215.041 700.244 215.121 700.354 215.191 700.474C215.291 700.634 215.371 700.794 215.471 700.954C215.531 701.054 215.601 701.134 215.661 701.234C215.711 701.314 215.761 701.395 215.811 701.474C215.861 701.544 215.921 701.614 215.971 701.684C216.271 702.104 216.591 702.514 216.921 702.904C216.981 702.974 217.041 703.054 217.101 703.124C217.491 703.564 217.891 703.974 218.311 704.364C218.351 704.404 218.391 704.444 218.431 704.484C218.501 704.544 218.571 704.594 218.641 704.654C218.801 704.794 218.951 704.944 219.111 705.074C219.311 705.234 219.511 705.374 219.711 705.524C219.811 705.594 219.911 705.674 220.011 705.744C220.461 706.054 220.921 706.344 221.381 706.594C221.411 706.614 221.441 706.634 221.471 706.654C221.541 706.694 221.611 706.714 221.691 706.754C222.081 706.954 222.471 707.124 222.871 707.274C222.991 707.324 223.121 707.374 223.241 707.414C223.321 707.444 223.401 707.474 223.481 707.504C223.881 707.634 224.291 707.734 224.701 707.804C224.721 707.804 224.731 707.814 224.751 707.814C225.071 707.874 225.381 707.904 225.701 707.934C225.781 707.934 225.871 707.934 225.951 707.944C226.221 707.954 226.491 707.964 226.761 707.944C226.861 707.944 226.961 707.944 227.051 707.934C227.391 707.914 227.741 707.874 228.071 707.814L245.691 700.624C245.351 700.684 245.011 700.724 244.661 700.744L244.641 700.724Z" fill="url(#paint1_linear_7_147)"/>
<path d="M339.801 413.915L174.711 432.095L218.161 586.595L382.441 561.335L339.801 413.915Z" fill="url(#paint2_linear_7_147)"/>
<path d="M179.671 416.295C180.931 416.165 182.031 415.715 182.951 415.015C183.871 414.315 184.611 413.375 185.141 412.245C185.671 411.115 185.981 409.815 186.051 408.385C186.121 406.965 185.951 405.425 185.501 403.845C185.051 402.265 184.371 400.775 183.531 399.455C182.681 398.135 181.671 396.965 180.561 396.005C179.451 395.045 178.231 394.305 176.981 393.835C175.731 393.365 174.441 393.165 173.181 393.285C171.921 393.415 170.811 393.855 169.891 394.545C168.961 395.235 168.221 396.175 167.681 397.305C167.151 398.425 166.831 399.735 166.751 401.165C166.671 402.595 166.851 404.135 167.291 405.725C167.741 407.315 168.421 408.805 169.271 410.135C170.121 411.465 171.141 412.645 172.261 413.595C173.381 414.555 174.601 415.295 175.861 415.765C177.111 416.235 178.401 416.425 179.661 416.295H179.671Z" fill="url(#paint3_linear_7_147)"/>
<path d="M195.131 405.515C195.451 406.015 195.821 406.445 196.241 406.805C196.661 407.165 197.111 407.435 197.571 407.615C198.041 407.795 198.511 407.865 198.981 407.815L255.501 401.925C255.951 401.875 256.351 401.715 256.681 401.465C257.011 401.215 257.271 400.865 257.461 400.455C257.651 400.045 257.761 399.565 257.781 399.045C257.801 398.525 257.731 397.955 257.571 397.375C257.401 396.795 257.151 396.245 256.841 395.755C256.531 395.265 256.161 394.835 255.761 394.485C255.361 394.135 254.921 393.865 254.461 393.685C254.001 393.505 253.541 393.435 253.091 393.485L196.551 399.245C196.081 399.295 195.671 399.455 195.331 399.715C194.991 399.975 194.711 400.325 194.521 400.745C194.321 401.165 194.211 401.655 194.181 402.185C194.151 402.715 194.221 403.295 194.391 403.885C194.561 404.475 194.811 405.035 195.131 405.525V405.515Z" fill="#748DFA"/>
<path d="M248.591 611.595C249.071 610.755 249.361 609.795 249.481 608.775C249.601 607.755 249.541 606.675 249.321 605.595C249.101 604.525 248.721 603.445 248.191 602.445C247.661 601.445 246.981 600.505 246.171 599.705C245.711 599.255 245.231 598.865 244.741 598.545C244.251 598.225 243.751 597.965 243.251 597.775C242.751 597.585 242.251 597.465 241.761 597.405C241.271 597.345 240.781 597.355 240.321 597.425C239.961 597.485 239.611 597.575 239.281 597.715C238.951 597.845 238.631 598.025 238.331 598.235C238.031 598.445 237.751 598.695 237.491 598.985C237.231 599.275 236.991 599.605 236.781 599.965L235.501 602.165L233.141 600.535C232.751 600.265 232.361 600.035 231.961 599.845C231.571 599.655 231.171 599.515 230.781 599.415C230.391 599.315 230.001 599.255 229.621 599.225C229.241 599.205 228.871 599.225 228.511 599.275C228.041 599.345 227.591 599.485 227.171 599.695C226.751 599.895 226.351 600.165 226.001 600.485C225.641 600.815 225.321 601.195 225.041 601.645C224.761 602.085 224.531 602.595 224.351 603.145C224.031 604.135 223.911 605.195 223.971 606.285C224.031 607.365 224.261 608.475 224.641 609.525C225.021 610.585 225.561 611.595 226.231 612.495C226.901 613.395 227.691 614.185 228.591 614.805L241.601 623.805L248.581 611.565L248.591 611.595Z" fill="url(#paint4_linear_7_147)"/>
<path d="M385.741 574.505L367.601 577.365L374.671 601.875L382.251 595.205L392.791 598.885L385.741 574.505Z" fill="#748DFA"/>
<path d="M356.521 620.545C356.211 620.065 355.851 619.645 355.451 619.305C355.051 618.965 354.621 618.715 354.181 618.565C353.741 618.415 353.281 618.365 352.841 618.435L236.221 638.115C235.751 638.195 235.341 638.395 234.991 638.685C234.651 638.975 234.371 639.365 234.171 639.815C233.971 640.265 233.861 640.785 233.841 641.345C233.821 641.905 233.881 642.505 234.061 643.115C234.231 643.725 234.491 644.295 234.811 644.795C235.131 645.295 235.511 645.725 235.931 646.075C236.351 646.425 236.811 646.685 237.281 646.835C237.751 646.985 238.231 647.035 238.701 646.955L355.291 626.985C355.731 626.905 356.111 626.715 356.431 626.435C356.751 626.155 357.001 625.785 357.181 625.345C357.361 624.905 357.461 624.415 357.471 623.875C357.481 623.335 357.411 622.765 357.241 622.175C357.071 621.585 356.821 621.035 356.511 620.555L356.521 620.545Z" fill="#748DFA"/>
<path d="M321.931 644.415C321.621 643.925 321.251 643.505 320.841 643.165C320.431 642.825 319.991 642.565 319.541 642.415C319.091 642.265 318.631 642.215 318.181 642.295L241.171 655.685C240.701 655.765 240.291 655.965 239.941 656.265C239.601 656.555 239.321 656.945 239.131 657.405C238.931 657.855 238.821 658.375 238.801 658.935C238.781 659.495 238.851 660.095 239.021 660.705C239.191 661.315 239.451 661.885 239.771 662.385C240.091 662.885 240.471 663.315 240.891 663.665C241.311 664.015 241.771 664.275 242.241 664.425C242.711 664.575 243.191 664.625 243.661 664.535L320.651 650.955C321.101 650.875 321.491 650.675 321.821 650.395C322.151 650.105 322.411 649.725 322.591 649.285C322.771 648.845 322.881 648.335 322.891 647.785C322.911 647.235 322.841 646.655 322.671 646.055C322.501 645.455 322.251 644.905 321.931 644.415Z" fill="#748DFA"/>
<path d="M121.051 641.515L133.821 634.805C135.701 633.815 137.891 635.415 137.531 637.505L135.091 651.725C134.951 652.555 135.221 653.405 135.831 653.995L146.161 664.065C147.681 665.545 146.841 668.125 144.741 668.435L130.471 670.505C129.641 670.625 128.921 671.145 128.541 671.905L122.161 684.835C121.221 686.735 118.511 686.735 117.571 684.835L111.191 671.905C110.821 671.145 110.101 670.625 109.261 670.505L94.9913 668.435C92.8913 668.125 92.0513 665.545 93.5713 664.065L103.901 653.995C104.501 653.405 104.781 652.555 104.641 651.725L102.201 637.505C101.841 635.415 104.041 633.815 105.911 634.805L118.681 641.515C119.431 641.905 120.321 641.905 121.061 641.515H121.051Z" fill="url(#paint5_linear_7_147)"/>
<g style="mix-blend-mode:multiply" opacity="0.45">
<path d="M121.051 641.515L133.821 634.805C135.701 633.815 137.891 635.415 137.531 637.505L135.091 651.725C134.951 652.555 135.221 653.405 135.831 653.995L146.161 664.065C147.681 665.545 146.841 668.125 144.741 668.435L130.471 670.505C129.641 670.625 128.921 671.145 128.541 671.905L122.161 684.835C121.221 686.735 118.511 686.735 117.571 684.835L111.191 671.905C110.821 671.145 110.101 670.625 109.261 670.505L94.9913 668.435C92.8913 668.125 92.0513 665.545 93.5713 664.065L103.901 653.995C104.501 653.405 104.781 652.555 104.641 651.725L102.201 637.505C101.841 635.415 104.041 633.815 105.911 634.805L118.681 641.515C119.431 641.905 120.321 641.905 121.061 641.515H121.051Z" fill="#FFAE00"/>
</g>
<path d="M20.9013 571.364L30.3313 566.404C31.7213 565.674 33.3413 566.854 33.0713 568.394L31.2713 578.904C31.1613 579.514 31.3713 580.144 31.8113 580.574L39.4413 588.014C40.5613 589.104 39.9413 591.014 38.3913 591.244L27.8413 592.774C27.2213 592.864 26.6913 593.254 26.4213 593.804L21.7013 603.364C21.0113 604.774 19.0013 604.774 18.3113 603.364L13.5913 593.804C13.3113 593.244 12.7813 592.854 12.1713 592.774L1.62129 591.244C0.0712928 591.014 -0.548726 589.114 0.571274 588.014L8.20128 580.574C8.65128 580.144 8.85129 579.514 8.74129 578.904L6.9413 568.394C6.6813 566.844 8.30129 565.674 9.68129 566.404L19.1113 571.364C19.6613 571.654 20.3213 571.654 20.8713 571.364H20.9013Z" fill="url(#paint6_linear_7_147)"/>
<g style="mix-blend-mode:multiply" opacity="0.45">
<path d="M20.9013 571.364L30.3313 566.404C31.7213 565.674 33.3413 566.854 33.0713 568.394L31.2713 578.904C31.1613 579.514 31.3713 580.144 31.8113 580.574L39.4413 588.014C40.5613 589.104 39.9413 591.014 38.3913 591.244L27.8413 592.774C27.2213 592.864 26.6913 593.254 26.4213 593.804L21.7013 603.364C21.0113 604.774 19.0013 604.774 18.3113 603.364L13.5913 593.804C13.3113 593.244 12.7813 592.854 12.1713 592.774L1.62129 591.244C0.0712928 591.014 -0.548726 589.114 0.571274 588.014L8.20128 580.574C8.65128 580.144 8.85129 579.514 8.74129 578.904L6.9413 568.394C6.6813 566.844 8.30129 565.674 9.68129 566.404L19.1113 571.364C19.6613 571.654 20.3213 571.654 20.8713 571.364H20.9013Z" fill="#FFAE00"/>
</g>
<mask id="mask0_7_147" style="mask-type:luminance" maskUnits="userSpaceOnUse" x="143" y="558" width="72" height="24">
<path d="M214.921 571.315L207.381 575.885C201.391 579.515 194.361 581.635 186.561 581.835C171.091 582.215 155.761 574.955 143.961 563.115L151.501 558.545C163.301 570.385 178.631 577.655 194.101 577.265C201.901 577.075 208.941 574.955 214.921 571.315Z" fill="white"/>
</mask>
<g mask="url(#mask0_7_147)">
<path d="M214.921 571.315L207.381 575.885C201.391 579.515 194.361 581.635 186.561 581.835C171.091 582.215 155.761 574.955 143.961 563.115L151.501 558.545C163.301 570.385 178.631 577.655 194.101 577.265C201.901 577.075 208.941 574.955 214.921 571.315Z" fill="url(#paint7_linear_7_147)"/>
</g>
<mask id="mask1_7_147" style="mask-type:luminance" maskUnits="userSpaceOnUse" x="122" y="466" width="30" height="98">
<path d="M143.621 470.664L151.161 466.094C135.111 475.834 126.601 496.444 131.051 520.004C133.871 534.914 141.401 548.414 151.501 558.544L143.961 563.114C133.851 552.984 126.321 539.484 123.511 524.574C119.061 501.014 127.581 480.404 143.621 470.664Z" fill="white"/>
</mask>
<g mask="url(#mask1_7_147)">
<path d="M151.491 558.534L143.951 563.104C133.841 552.974 126.311 539.474 123.501 524.564C119.051 501.004 127.571 480.394 143.611 470.654L151.151 466.084C135.101 475.824 126.591 496.434 131.041 519.994C133.861 534.904 141.391 548.404 151.491 558.534Z" fill="url(#paint8_linear_7_147)"/>
</g>
<path d="M171.981 460.145C200.711 459.435 228.941 485.065 235.041 517.415C237.601 530.955 235.871 543.525 230.881 553.615C222.491 533.965 203.741 519.795 184.721 520.265C164.771 520.765 151.181 537.205 151.491 558.545C141.381 548.415 133.851 534.915 131.041 520.005C124.931 487.655 143.261 460.865 171.981 460.145ZM182.301 514.795C192.261 514.545 198.621 505.265 196.501 494.045C194.381 482.835 184.591 473.945 174.631 474.185C164.671 474.435 158.321 483.725 160.441 494.935C162.561 506.145 172.341 515.035 182.301 514.785" fill="url(#paint9_linear_7_147)"/>
<path d="M174.631 474.195C184.591 473.945 194.381 482.845 196.501 494.055C198.621 505.265 192.261 514.555 182.301 514.805C172.341 515.055 162.561 506.165 160.441 494.955C158.321 483.745 164.671 474.445 174.631 474.205V474.195Z" fill="white"/>
<path d="M184.721 520.265C203.741 519.795 222.491 533.965 230.881 553.615C223.961 567.625 210.781 576.845 194.091 577.265C178.621 577.645 163.291 570.385 151.491 558.545C151.181 537.215 164.781 520.765 184.721 520.265Z" fill="white"/>
<path d="M174.631 474.195C184.591 473.945 194.381 482.845 196.501 494.055C198.621 505.265 192.261 514.555 182.301 514.805C172.341 515.055 162.561 506.165 160.441 494.955C158.321 483.745 164.671 474.445 174.631 474.205V474.195Z" fill="url(#paint10_linear_7_147)"/>
<path d="M184.721 520.265C203.741 519.795 222.491 533.965 230.881 553.615C223.961 567.625 210.781 576.845 194.091 577.265C178.621 577.645 163.291 570.385 151.491 558.545C151.181 537.215 164.781 520.765 184.721 520.265Z" fill="url(#paint11_linear_7_147)"/>
<path d="M395.271 500.604L314.861 511.204L305.111 515.484L385.521 504.884C385.981 504.824 386.401 504.705 386.801 504.525L396.551 500.245C396.151 500.415 395.721 500.544 395.271 500.604Z" fill="#0085B8"/>
<path d="M381.461 441.535C384.671 441.115 388.011 443.895 388.911 447.745L399.461 492.865C400.361 496.715 398.481 500.184 395.271 500.604L314.861 511.205L303.581 534.254L298.691 513.335L285.031 515.134C281.821 515.554 278.481 512.775 277.581 508.925L267.031 463.805C266.131 459.955 268.001 456.485 271.221 456.065L381.471 441.535H381.461ZM373.871 470.015C375.161 469.845 375.911 468.454 375.551 466.914C375.191 465.374 373.851 464.255 372.561 464.425L289.951 475.315C288.661 475.485 287.911 476.874 288.271 478.414C288.631 479.954 289.971 481.075 291.251 480.905L373.861 470.015M347.821 484.905C349.111 484.735 349.861 483.345 349.501 481.805C349.141 480.265 347.801 479.145 346.511 479.315L292.531 486.435C291.241 486.605 290.491 487.995 290.851 489.535C291.211 491.075 292.551 492.195 293.841 492.025L347.821 484.905Z" fill="url(#paint12_linear_7_147)"/>
<path d="M372.561 464.425C373.851 464.255 375.181 465.365 375.551 466.915C375.911 468.455 375.161 469.845 373.871 470.015L291.261 480.905C289.971 481.075 288.641 479.965 288.281 478.415C287.921 476.875 288.671 475.485 289.961 475.315L372.571 464.425H372.561Z" fill="#FDFDFD"/>
<path d="M346.531 479.305C347.821 479.135 349.151 480.245 349.521 481.795C349.881 483.335 349.131 484.725 347.841 484.895L293.861 492.015C292.571 492.185 291.241 491.075 290.881 489.525C290.521 487.985 291.271 486.595 292.561 486.425L346.541 479.305H346.531Z" fill="#FDFDFD"/>
<path d="M298.681 513.345L285.021 515.145C281.811 515.565 278.471 512.785 277.571 508.935L267.021 463.815C266.251 460.505 267.521 457.485 269.921 456.425L260.171 460.705C257.761 461.765 256.491 464.785 257.271 468.095L267.821 513.215C268.721 517.065 272.051 519.845 275.271 519.425L288.931 517.625L293.821 538.545L303.571 534.265L298.681 513.345Z" fill="url(#paint13_linear_7_147)"/>
<path d="M398.808 33.5881L410.188 42.4581C411.858 43.7581 411.308 46.4181 409.258 46.9581L395.298 50.5981C394.478 50.8081 393.828 51.4081 393.538 52.1981L388.618 65.7581C387.898 67.7481 385.198 68.0481 384.058 66.2681L376.288 54.1181C375.838 53.4081 375.058 52.9681 374.218 52.9381L359.798 52.4481C357.678 52.3781 356.558 49.9081 357.908 48.2681L367.068 37.1181C367.598 36.4681 367.778 35.5981 367.548 34.7881L363.558 20.9281C362.968 18.8881 364.978 17.0581 366.948 17.8381L380.378 23.0981C381.158 23.4081 382.048 23.3081 382.748 22.8381L394.698 14.7581C396.458 13.5681 398.808 14.9081 398.688 17.0281L397.828 31.4281C397.778 32.2681 398.148 33.0781 398.808 33.5981V33.5881Z" fill="url(#paint14_linear_7_147)"/>
<g style="mix-blend-mode:multiply" opacity="0.45">
<path d="M398.808 33.5881L410.188 42.4581C411.858 43.7581 411.308 46.4181 409.258 46.9581L395.298 50.5981C394.478 50.8081 393.828 51.4081 393.538 52.1981L388.618 65.7581C387.898 67.7481 385.198 68.0481 384.058 66.2681L376.288 54.1181C375.838 53.4081 375.058 52.9681 374.218 52.9381L359.798 52.4481C357.678 52.3781 356.558 49.9081 357.908 48.2681L367.068 37.1181C367.598 36.4681 367.778 35.5981 367.548 34.7881L363.558 20.9281C362.968 18.8881 364.978 17.0581 366.948 17.8381L380.378 23.0981C381.158 23.4081 382.048 23.3081 382.748 22.8381L394.698 14.7581C396.458 13.5681 398.808 14.9081 398.688 17.0281L397.828 31.4281C397.778 32.2681 398.148 33.0781 398.808 33.5981V33.5881Z" fill="#FFAE00"/>
</g>
<path d="M628.178 282.838L637.608 277.878C638.998 277.148 640.618 278.328 640.348 279.868L638.548 290.378C638.438 290.988 638.648 291.618 639.088 292.048L646.718 299.488C647.838 300.578 647.218 302.488 645.668 302.718L635.118 304.248C634.498 304.338 633.968 304.728 633.698 305.278L628.978 314.838C628.288 316.248 626.278 316.248 625.588 314.838L620.868 305.278C620.588 304.718 620.058 304.328 619.448 304.248L608.898 302.718C607.348 302.488 606.728 300.588 607.848 299.488L615.478 292.048C615.928 291.618 616.128 290.988 616.018 290.378L614.218 279.868C613.958 278.318 615.578 277.148 616.958 277.878L626.388 282.838C626.938 283.128 627.598 283.128 628.148 282.838H628.178Z" fill="url(#paint15_linear_7_147)"/>
<g style="mix-blend-mode:multiply" opacity="0.45">
<path d="M628.178 282.838L637.608 277.878C638.998 277.148 640.618 278.328 640.348 279.868L638.548 290.378C638.438 290.988 638.648 291.618 639.088 292.048L646.718 299.488C647.838 300.578 647.218 302.488 645.668 302.718L635.118 304.248C634.498 304.338 633.968 304.728 633.698 305.278L628.978 314.838C628.288 316.248 626.278 316.248 625.588 314.838L620.868 305.278C620.588 304.718 620.058 304.328 619.448 304.248L608.898 302.718C607.348 302.488 606.728 300.588 607.848 299.488L615.478 292.048C615.928 291.618 616.128 290.988 616.018 290.378L614.218 279.868C613.958 278.318 615.578 277.148 616.958 277.878L626.388 282.838C626.938 283.128 627.598 283.128 628.148 282.838H628.178Z" fill="#FFAE00"/>
</g>
<path d="M619.748 35.8381C621.218 36.1581 622.518 36.8581 623.598 37.8581C624.688 38.8581 625.558 40.1681 626.188 41.6781C626.818 43.1881 627.188 44.9181 627.278 46.7581C627.368 48.5981 627.168 50.5681 626.648 52.5581L547.438 355.608C546.918 357.598 546.128 359.408 545.148 360.958C544.168 362.518 542.998 363.828 541.718 364.838C540.438 365.838 539.038 366.538 537.598 366.878C536.168 367.208 534.688 367.178 533.258 366.718L371.518 314.978C370.218 314.568 369.088 313.788 368.148 312.738C367.208 311.688 366.458 310.368 365.938 308.858C365.418 307.348 365.118 305.668 365.068 303.878C365.018 302.098 365.228 300.218 365.718 298.338L440.538 11.7481C441.028 9.86807 441.768 8.12807 442.678 6.59807C443.588 5.06807 444.678 3.74807 445.868 2.69807C447.058 1.64807 448.358 0.868072 449.688 0.428072C451.018 -0.0119282 452.388 -0.131925 453.718 0.158075L619.748 35.8381ZM558.988 251.408L600.188 93.7981L442.868 57.1081L403.618 207.428L558.998 251.408M498.568 299.488C498.998 299.618 499.448 299.618 499.878 299.508C500.308 299.398 500.738 299.178 501.118 298.868C501.508 298.558 501.858 298.148 502.158 297.678C502.458 297.198 502.698 296.648 502.848 296.038C503.008 295.428 503.068 294.828 503.048 294.248C503.028 293.668 502.918 293.128 502.738 292.648C502.558 292.168 502.308 291.738 501.988 291.408C501.668 291.078 501.288 290.828 500.858 290.698L393.448 258.478C393.038 258.358 392.628 258.358 392.218 258.478C391.808 258.588 391.418 258.808 391.048 259.108C390.678 259.408 390.348 259.808 390.068 260.268C389.788 260.728 389.558 261.268 389.408 261.848C389.258 262.438 389.188 263.018 389.208 263.568C389.228 264.118 389.318 264.638 389.478 265.108C389.638 265.568 389.878 265.978 390.168 266.298C390.458 266.618 390.818 266.858 391.218 266.978L498.558 299.488M456.028 305.238C456.448 305.368 456.888 305.368 457.308 305.268C457.728 305.158 458.148 304.948 458.528 304.638C458.908 304.328 459.258 303.928 459.548 303.458C459.838 302.988 460.078 302.438 460.228 301.838C460.388 301.238 460.448 300.638 460.428 300.068C460.408 299.498 460.308 298.968 460.128 298.488C459.958 298.008 459.708 297.588 459.398 297.258C459.088 296.928 458.718 296.678 458.298 296.548L389.028 275.368C388.628 275.248 388.208 275.248 387.798 275.358C387.388 275.468 386.998 275.678 386.628 275.988C386.268 276.288 385.928 276.678 385.648 277.148C385.368 277.608 385.138 278.148 384.988 278.728C384.838 279.318 384.768 279.898 384.788 280.448C384.808 280.998 384.898 281.528 385.058 281.988C385.218 282.448 385.458 282.858 385.748 283.188C386.038 283.508 386.398 283.748 386.798 283.878L456.028 305.238ZM400.638 224.008C399.928 224.728 399.328 225.598 398.858 226.548C398.388 227.498 398.048 228.528 397.848 229.578C397.648 230.628 397.588 231.698 397.688 232.728C397.788 233.758 398.028 234.748 398.448 235.628L404.448 248.468L415.878 240.728C416.668 240.198 417.368 239.478 417.958 238.648C418.548 237.808 419.018 236.858 419.368 235.838C419.708 234.818 419.918 233.748 419.978 232.668C420.038 231.588 419.938 230.518 419.678 229.508C419.528 228.938 419.328 228.408 419.088 227.938C418.848 227.468 418.568 227.048 418.258 226.698C417.948 226.338 417.608 226.038 417.238 225.798C416.868 225.558 416.478 225.378 416.068 225.258C415.748 225.168 415.428 225.118 415.098 225.098C414.768 225.088 414.428 225.108 414.088 225.178C413.748 225.248 413.398 225.348 413.058 225.498C412.718 225.648 412.368 225.838 412.028 226.068L409.958 227.478L408.868 225.148C408.688 224.768 408.478 224.418 408.258 224.098C408.038 223.788 407.788 223.508 407.528 223.268C407.268 223.028 406.988 222.828 406.698 222.658C406.408 222.488 406.108 222.368 405.788 222.278C405.378 222.158 404.958 222.108 404.528 222.118C404.098 222.128 403.658 222.208 403.218 222.348C402.778 222.488 402.338 222.698 401.908 222.968C401.478 223.238 401.058 223.588 400.648 223.998M477.218 33.8381C476.798 33.7481 476.368 33.7781 475.948 33.9081C475.528 34.0481 475.118 34.2881 474.748 34.6081C474.368 34.9381 474.028 35.3481 473.748 35.8181C473.458 36.2981 473.228 36.8381 473.078 37.4281C472.928 38.0181 472.858 38.5981 472.878 39.1481C472.898 39.6981 472.998 40.2081 473.168 40.6581C473.338 41.1081 473.588 41.4981 473.888 41.7881C474.188 42.0781 474.558 42.2981 474.978 42.3881L527.358 54.2481C527.788 54.3481 528.238 54.3181 528.668 54.1781C529.098 54.0381 529.518 53.7981 529.908 53.4681C530.298 53.1381 530.648 52.7181 530.938 52.2381C531.228 51.7481 531.468 51.1981 531.628 50.5981C531.788 49.9981 531.848 49.4081 531.828 48.8481C531.808 48.2881 531.698 47.7681 531.518 47.3181C531.338 46.8581 531.078 46.4681 530.768 46.1581C530.448 45.8581 530.068 45.6381 529.638 45.5481L477.228 33.8281M548.128 290.938L554.868 265.128L536.258 259.778L529.548 285.438L540.238 282.738L548.128 290.938ZM460.568 21.6281C459.468 21.3881 458.328 21.4681 457.228 21.8281C456.128 22.1881 455.048 22.8281 454.058 23.6981C453.068 24.5581 452.168 25.6581 451.408 26.9181C450.648 28.1881 450.038 29.6181 449.628 31.1881C449.218 32.7581 449.048 34.2981 449.098 35.7481C449.148 37.1981 449.408 38.5481 449.858 39.7381C450.308 40.9281 450.948 41.9581 451.758 42.7481C452.558 43.5381 453.528 44.0981 454.628 44.3481C455.728 44.5981 456.868 44.5181 457.978 44.1681C459.088 43.8081 460.168 43.1781 461.158 42.3081C462.158 41.4481 463.058 40.3481 463.828 39.0781C464.588 37.8081 465.208 36.3581 465.618 34.7881C466.028 33.2181 466.198 31.6681 466.138 30.2181C466.088 28.7681 465.818 27.4081 465.358 26.2181C464.898 25.0281 464.248 24.0081 463.438 23.2181C462.628 22.4281 461.658 21.8781 460.548 21.6381" fill="url(#paint16_linear_7_147)"/>
<path d="M451.748 42.7781C452.548 43.5681 453.518 44.1281 454.618 44.3781C455.718 44.6281 456.858 44.5481 457.968 44.1981C459.078 43.8381 460.158 43.2081 461.148 42.3381C462.148 41.4781 463.048 40.3781 463.818 39.1081C464.578 37.8381 465.198 36.3881 465.608 34.8181C466.018 33.2481 466.188 31.6981 466.128 30.2481C466.078 28.7981 465.808 27.4381 465.348 26.2481C464.888 25.0581 464.238 24.0381 463.428 23.2481C462.618 22.4581 461.648 21.9081 460.548 21.6681C459.448 21.4281 458.308 21.5081 457.208 21.8681C456.108 22.2281 455.028 22.8681 454.038 23.7381C453.048 24.5981 452.148 25.6981 451.388 26.9581C450.628 28.2281 450.018 29.6581 449.608 31.2281C449.198 32.7981 449.028 34.3381 449.078 35.7881C449.128 37.2381 449.388 38.5881 449.838 39.7781C450.288 40.9681 450.928 41.9981 451.738 42.7881L451.748 42.7781Z" fill="url(#paint17_linear_7_147)"/>
<path d="M459.398 297.268C459.088 296.938 458.718 296.688 458.298 296.558L389.028 275.378C388.628 275.258 388.208 275.258 387.798 275.368C387.388 275.478 386.998 275.688 386.628 275.998C386.258 276.298 385.928 276.688 385.648 277.158C385.368 277.618 385.138 278.158 384.988 278.738C384.838 279.328 384.768 279.908 384.788 280.458C384.808 281.008 384.898 281.538 385.058 281.998C385.218 282.468 385.458 282.868 385.748 283.198C386.038 283.518 386.398 283.758 386.798 283.888L456.028 305.248C456.448 305.378 456.888 305.378 457.308 305.278C457.728 305.168 458.148 304.958 458.528 304.648C458.908 304.338 459.258 303.938 459.548 303.468C459.838 302.998 460.078 302.448 460.228 301.848C460.388 301.248 460.448 300.648 460.428 300.078C460.408 299.508 460.308 298.978 460.128 298.498C459.958 298.018 459.708 297.598 459.398 297.268Z" fill="#748DFA"/>
<path d="M473.878 41.8181C474.188 42.1181 474.548 42.3281 474.968 42.4181L527.348 54.2781C527.778 54.3781 528.228 54.3481 528.658 54.2081C529.088 54.0681 529.508 53.8281 529.898 53.4981C530.288 53.1681 530.638 52.7481 530.928 52.2681C531.218 51.7781 531.458 51.2281 531.618 50.6281C531.778 50.0281 531.838 49.4381 531.818 48.8781C531.798 48.3181 531.688 47.7981 531.508 47.3481C531.328 46.8881 531.068 46.4981 530.758 46.1881C530.438 45.8881 530.058 45.6681 529.628 45.5781L477.218 33.8581C476.798 33.7681 476.368 33.7981 475.948 33.9281C475.528 34.0681 475.118 34.3081 474.748 34.6281C474.368 34.9581 474.028 35.3681 473.748 35.8381C473.458 36.3181 473.228 36.8581 473.078 37.4481C472.928 38.0381 472.858 38.6181 472.878 39.1681C472.898 39.7181 472.998 40.2281 473.168 40.6781C473.338 41.1281 473.588 41.5181 473.888 41.8081L473.878 41.8181Z" fill="#748DFA"/>
<path d="M398.448 235.638L404.448 248.478L415.878 240.738C416.668 240.208 417.368 239.488 417.958 238.658C418.548 237.818 419.018 236.868 419.368 235.848C419.718 234.828 419.918 233.758 419.978 232.678C420.038 231.598 419.938 230.528 419.678 229.518C419.528 228.948 419.328 228.418 419.088 227.948C418.848 227.478 418.568 227.058 418.258 226.708C417.948 226.348 417.608 226.048 417.238 225.808C416.868 225.568 416.478 225.388 416.068 225.268C415.748 225.178 415.428 225.128 415.098 225.108C414.768 225.088 414.428 225.118 414.088 225.188C413.748 225.258 413.398 225.358 413.058 225.508C412.708 225.658 412.368 225.848 412.018 226.078L409.948 227.488L408.858 225.158C408.678 224.778 408.468 224.428 408.248 224.108C408.028 223.788 407.778 223.518 407.518 223.278C407.258 223.038 406.978 222.838 406.688 222.668C406.398 222.508 406.098 222.378 405.778 222.288C405.368 222.168 404.948 222.118 404.518 222.128C404.088 222.138 403.648 222.218 403.208 222.358C402.768 222.498 402.328 222.708 401.898 222.978C401.468 223.248 401.048 223.598 400.638 224.008C399.928 224.728 399.328 225.598 398.858 226.548C398.388 227.498 398.048 228.528 397.848 229.578C397.648 230.628 397.588 231.698 397.688 232.728C397.788 233.758 398.028 234.748 398.448 235.628V235.638Z" fill="url(#paint18_linear_7_147)"/>
<path d="M442.858 57.108L403.608 207.428L558.988 251.408L600.178 93.798L442.858 57.108Z" fill="url(#paint19_linear_7_147)"/>
<path d="M501.978 291.418C501.658 291.088 501.278 290.838 500.848 290.708L393.438 258.488C393.028 258.368 392.618 258.368 392.208 258.488C391.798 258.598 391.408 258.818 391.038 259.118C390.668 259.418 390.338 259.818 390.058 260.278C389.778 260.738 389.548 261.278 389.398 261.858C389.248 262.438 389.178 263.028 389.198 263.578C389.218 264.128 389.308 264.648 389.468 265.118C389.628 265.578 389.868 265.988 390.158 266.308C390.448 266.628 390.808 266.868 391.208 266.988L498.548 299.498C498.978 299.628 499.428 299.628 499.858 299.518C500.288 299.408 500.718 299.188 501.098 298.878C501.478 298.568 501.838 298.158 502.138 297.688C502.438 297.208 502.678 296.658 502.828 296.048C502.988 295.438 503.048 294.838 503.028 294.258C503.008 293.688 502.898 293.138 502.718 292.658C502.538 292.178 502.288 291.748 501.968 291.418H501.978Z" fill="#748DFA"/>
<path d="M529.538 285.468L540.218 282.768L548.108 290.968L554.858 265.158L536.238 259.808L529.538 285.468Z" fill="#748DFA"/>
<path d="M645.648 52.768C645.648 52.768 645.648 52.7181 645.648 52.6981C645.628 52.2481 645.598 51.798 645.548 51.358C645.548 51.358 645.548 51.338 645.548 51.328C645.548 51.248 645.518 51.178 645.508 51.098C645.458 50.728 645.398 50.368 645.328 50.008C645.328 49.968 645.318 49.928 645.308 49.898C645.278 49.778 645.248 49.668 645.218 49.548C645.148 49.2681 645.078 48.988 644.998 48.718C644.978 48.658 644.968 48.598 644.948 48.538C644.918 48.438 644.878 48.338 644.848 48.238C644.818 48.138 644.778 48.038 644.738 47.938C644.728 47.898 644.708 47.858 644.698 47.818C644.698 47.818 644.698 47.8081 644.698 47.798C644.698 47.798 644.698 47.788 644.698 47.778C644.678 47.728 644.658 47.678 644.648 47.638C644.608 47.538 644.568 47.448 644.528 47.348C644.498 47.278 644.468 47.198 644.428 47.128C644.398 47.058 644.358 46.9781 644.328 46.9081C644.298 46.8481 644.268 46.7881 644.238 46.7281C644.238 46.7281 644.238 46.708 644.228 46.698C644.198 46.628 644.158 46.558 644.118 46.488C644.088 46.428 644.058 46.368 644.028 46.308C643.998 46.248 643.968 46.188 643.928 46.128C643.888 46.068 643.858 46.008 643.828 45.958C643.798 45.898 643.758 45.848 643.728 45.788C643.718 45.768 643.708 45.758 643.698 45.738C643.698 45.738 643.698 45.7381 643.698 45.7281C643.678 45.6981 643.658 45.668 643.648 45.638C643.618 45.588 643.588 45.538 643.558 45.488C643.528 45.438 643.498 45.3881 643.458 45.3381C643.418 45.2881 643.388 45.238 643.358 45.198C643.328 45.158 643.298 45.108 643.268 45.068C643.238 45.028 643.208 44.978 643.168 44.938C643.138 44.898 643.108 44.858 643.078 44.828C643.078 44.828 643.078 44.828 643.078 44.818C643.048 44.778 643.008 44.728 642.978 44.688C642.948 44.648 642.918 44.608 642.878 44.568C642.848 44.528 642.818 44.488 642.778 44.448C642.748 44.408 642.708 44.368 642.678 44.328C642.648 44.288 642.608 44.248 642.578 44.218C642.548 44.178 642.518 44.148 642.478 44.108C642.448 44.078 642.408 44.038 642.378 44.008C642.348 43.978 642.318 43.9481 642.288 43.9081C642.258 43.8781 642.218 43.838 642.188 43.808C642.158 43.778 642.118 43.748 642.088 43.708C642.058 43.678 642.018 43.648 641.988 43.618C641.958 43.588 641.918 43.558 641.888 43.528C641.858 43.498 641.818 43.468 641.788 43.438C641.758 43.408 641.718 43.378 641.688 43.348C641.668 43.328 641.638 43.308 641.618 43.288C641.618 43.288 641.598 43.278 641.588 43.268C641.558 43.238 641.518 43.208 641.488 43.188C641.448 43.158 641.418 43.128 641.378 43.108C641.338 43.078 641.308 43.058 641.268 43.028C641.228 42.998 641.198 42.978 641.158 42.948C641.118 42.918 641.088 42.898 641.048 42.868C641.008 42.848 640.978 42.818 640.938 42.798C640.898 42.778 640.868 42.7481 640.828 42.7281C640.808 42.7181 640.788 42.698 640.758 42.688C640.748 42.688 640.728 42.668 640.718 42.668C640.678 42.648 640.648 42.618 640.608 42.598C640.568 42.578 640.528 42.548 640.498 42.528C640.458 42.508 640.418 42.488 640.378 42.458C640.338 42.438 640.298 42.418 640.258 42.398C640.218 42.378 640.178 42.3581 640.138 42.3381C640.098 42.3181 640.058 42.298 640.018 42.278C639.978 42.258 639.938 42.238 639.898 42.218C639.878 42.218 639.858 42.198 639.838 42.188C639.818 42.188 639.798 42.1681 639.778 42.1581C639.738 42.1381 639.698 42.118 639.648 42.098C639.608 42.078 639.568 42.0581 639.518 42.048C639.478 42.028 639.428 42.008 639.388 41.998C639.348 41.978 639.298 41.968 639.258 41.948C639.218 41.928 639.168 41.918 639.128 41.898C639.088 41.878 639.038 41.868 638.998 41.848C638.988 41.848 638.978 41.8481 638.958 41.8381C638.948 41.8381 638.938 41.838 638.918 41.828C638.908 41.828 638.898 41.828 638.878 41.818C638.858 41.808 638.858 41.818 638.838 41.808C632.718 39.888 626.608 37.978 620.488 36.058C620.828 36.168 621.148 36.288 621.468 36.438C621.778 36.588 622.088 36.748 622.378 36.938C622.668 37.128 622.948 37.328 623.218 37.548C623.488 37.768 623.748 38.008 623.998 38.268C624.248 38.528 624.478 38.7981 624.698 39.0881C624.918 39.3781 625.128 39.678 625.318 39.998C625.318 39.998 625.318 39.998 625.318 40.008C625.508 40.328 625.688 40.658 625.858 40.998C625.858 40.998 625.858 40.998 625.858 41.008C626.018 41.348 626.168 41.698 626.308 42.058C626.308 42.068 626.308 42.088 626.318 42.098C626.428 42.388 626.528 42.698 626.618 43.008C626.698 43.278 626.768 43.558 626.838 43.848C626.878 43.998 626.918 44.158 626.948 44.308C627.018 44.668 627.078 45.028 627.128 45.398C627.138 45.488 627.158 45.578 627.168 45.668C627.218 46.128 627.258 46.6081 627.268 47.0881C627.268 47.2281 627.268 47.358 627.268 47.498C627.268 47.848 627.268 48.198 627.248 48.558C627.228 48.958 627.198 49.348 627.158 49.758C627.108 50.228 627.038 50.6881 626.948 51.1681C626.858 51.6381 626.758 52.118 626.628 52.598L547.418 355.648C547.298 356.118 547.158 356.578 547.008 357.028C547.008 357.028 547.008 357.028 547.008 357.038C546.858 357.488 546.688 357.918 546.508 358.348C546.328 358.778 546.138 359.188 545.938 359.588C545.738 359.988 545.518 360.378 545.288 360.748C545.058 361.118 544.828 361.478 544.578 361.828C544.328 362.178 544.078 362.508 543.808 362.818C543.538 363.138 543.268 363.438 542.988 363.718C542.988 363.718 542.988 363.718 542.978 363.728C542.698 364.008 542.408 364.278 542.118 364.518C542.118 364.518 542.108 364.528 542.098 364.538C541.808 364.788 541.508 365.008 541.208 365.228C541.208 365.228 541.188 365.238 541.178 365.248C540.938 365.418 540.698 365.558 540.448 365.708C540.358 365.768 540.258 365.828 540.168 365.878C539.878 366.038 539.578 366.188 539.278 366.328C539.278 366.328 539.268 366.328 539.258 366.328C538.948 366.458 538.638 366.578 538.328 366.678C538.228 366.708 538.128 366.738 538.028 366.758C537.818 366.818 537.598 366.878 537.378 366.918C537.258 366.938 537.148 366.958 537.028 366.978C536.828 367.008 536.618 367.038 536.408 367.058C536.288 367.068 536.168 367.078 536.058 367.088C535.838 367.088 535.618 367.088 535.408 367.088C535.308 367.088 535.198 367.088 535.098 367.078C534.778 367.058 534.458 367.018 534.138 366.948L552.998 370.698C553.318 370.758 553.638 370.798 553.958 370.828C554.058 370.828 554.158 370.828 554.268 370.838C554.418 370.838 554.568 370.858 554.728 370.858C554.798 370.858 554.858 370.848 554.928 370.848C555.048 370.848 555.168 370.838 555.278 370.818C555.488 370.798 555.688 370.778 555.898 370.738C556.018 370.718 556.128 370.698 556.248 370.678C556.308 370.668 556.378 370.658 556.438 370.648C556.588 370.618 556.738 370.568 556.888 370.518C556.958 370.498 557.038 370.488 557.108 370.458C557.128 370.458 557.158 370.438 557.178 370.428C557.488 370.328 557.798 370.218 558.108 370.088C558.108 370.088 558.118 370.088 558.128 370.078C558.428 369.948 558.718 369.798 559.008 369.638C559.108 369.588 559.198 369.528 559.298 369.468C559.438 369.388 559.578 369.308 559.718 369.218C559.798 369.168 559.878 369.108 559.958 369.058C559.978 369.048 559.998 369.028 560.018 369.018C560.018 369.018 560.038 369.008 560.048 368.998C560.098 368.958 560.148 368.928 560.198 368.888C560.278 368.828 560.358 368.768 560.438 368.708C560.518 368.648 560.598 368.588 560.678 368.528C560.738 368.478 560.798 368.428 560.868 368.378C560.898 368.358 560.918 368.338 560.948 368.318C560.948 368.318 560.948 368.318 560.958 368.318C560.958 368.318 560.958 368.318 560.968 368.318C560.998 368.298 561.028 368.268 561.058 368.248C561.118 368.198 561.178 368.138 561.238 368.088C561.298 368.038 561.358 367.978 561.418 367.928C561.468 367.878 561.518 367.828 561.578 367.778C561.628 367.728 561.678 367.678 561.728 367.628C561.758 367.598 561.798 367.558 561.828 367.528C561.828 367.528 561.828 367.528 561.838 367.518C561.848 367.508 561.868 367.488 561.878 367.478C561.928 367.428 561.978 367.378 562.028 367.328C562.068 367.278 562.118 367.238 562.158 367.188C562.198 367.138 562.248 367.098 562.288 367.048C562.328 366.998 562.378 366.948 562.418 366.908C562.458 366.858 562.508 366.808 562.548 366.758C562.588 366.718 562.618 366.678 562.658 366.638C562.658 366.638 562.658 366.638 562.668 366.628C562.708 366.578 562.748 366.538 562.788 366.488C562.828 366.438 562.868 366.388 562.908 366.348C562.948 366.298 562.988 366.248 563.028 366.198C563.068 366.148 563.098 366.108 563.138 366.058C563.178 366.008 563.208 365.958 563.248 365.918C563.288 365.868 563.318 365.818 563.358 365.778C563.388 365.738 563.408 365.698 563.438 365.668C563.438 365.668 563.448 365.648 563.458 365.648C563.488 365.598 563.528 365.558 563.558 365.508C563.588 365.458 563.628 365.418 563.658 365.368C563.688 365.318 563.718 365.268 563.758 365.228C563.788 365.178 563.818 365.128 563.858 365.088C563.888 365.038 563.918 364.998 563.948 364.948C563.978 364.898 564.008 364.848 564.038 364.808C564.068 364.758 564.098 364.708 564.128 364.658C564.128 364.648 564.148 364.628 564.158 364.618C564.178 364.588 564.198 364.558 564.218 364.518C564.248 364.468 564.278 364.418 564.308 364.368C564.338 364.318 564.368 364.268 564.388 364.218C564.418 364.168 564.448 364.118 564.468 364.068C564.498 364.018 564.528 363.968 564.548 363.918C564.578 363.868 564.598 363.818 564.628 363.768C564.658 363.718 564.678 363.668 564.708 363.618C564.738 363.568 564.758 363.518 564.788 363.468C564.788 363.468 564.788 363.458 564.788 363.448C564.808 363.398 564.838 363.358 564.858 363.308C564.888 363.258 564.908 363.208 564.938 363.158C564.968 363.108 564.988 363.058 565.018 362.998C565.038 362.948 565.068 362.898 565.088 362.838C565.108 362.788 565.138 362.728 565.158 362.678C565.178 362.628 565.208 362.568 565.228 362.518C565.248 362.468 565.278 362.408 565.298 362.358C565.318 362.308 565.338 362.258 565.358 362.208C565.378 362.158 565.408 362.098 565.428 362.048C565.448 361.988 565.478 361.938 565.498 361.878C565.518 361.818 565.538 361.768 565.568 361.708C565.588 361.648 565.608 361.598 565.638 361.538C565.668 361.478 565.678 361.428 565.698 361.368C565.718 361.308 565.738 361.248 565.758 361.188C565.778 361.128 565.798 361.068 565.818 361.008C565.828 360.978 565.838 360.948 565.848 360.908C565.848 360.888 565.868 360.858 565.868 360.838C565.888 360.778 565.908 360.718 565.928 360.658C565.948 360.598 565.968 360.528 565.988 360.468C566.008 360.408 566.028 360.338 566.048 360.278C566.068 360.218 566.088 360.148 566.108 360.078C566.128 360.008 566.148 359.948 566.168 359.878C566.168 359.848 566.188 359.818 566.188 359.798C566.188 359.768 566.208 359.738 566.208 359.718C566.208 359.688 566.228 359.658 566.228 359.638C566.228 359.608 566.238 359.578 566.248 359.558L644.998 58.348C644.998 58.348 645.018 58.258 645.028 58.218C645.038 58.178 645.048 58.1281 645.058 58.0881C645.068 58.048 645.078 57.998 645.088 57.958C645.098 57.918 645.108 57.868 645.118 57.828C645.138 57.748 645.158 57.678 645.168 57.598C645.188 57.518 645.198 57.448 645.218 57.368C645.238 57.288 645.248 57.2181 645.268 57.1381C645.278 57.0681 645.298 56.998 645.308 56.928C645.308 56.928 645.308 56.9281 645.308 56.9181C645.328 56.8281 645.338 56.738 645.358 56.658C645.378 56.568 645.388 56.478 645.398 56.398C645.408 56.308 645.428 56.2181 645.438 56.1381C645.448 56.0481 645.458 55.958 645.478 55.878C645.488 55.768 645.508 55.658 645.518 55.548C645.518 55.548 645.518 55.548 645.518 55.538C645.528 55.428 645.538 55.3081 645.548 55.1981C645.558 55.0881 645.568 54.968 645.578 54.858C645.578 54.748 645.598 54.628 645.598 54.518C645.598 54.468 645.598 54.418 645.598 54.368C645.618 54.018 645.618 53.668 645.608 53.318C645.608 53.208 645.608 53.088 645.608 52.968C645.608 52.948 645.608 52.928 645.608 52.908L645.648 52.768Z" fill="url(#paint20_linear_7_147)"/>
<path d="M624.377 173.508L616.478 170.048C615.758 170.788 615.027 171.508 614.277 172.208C614.227 172.248 614.187 172.298 614.147 172.338C613.557 172.888 612.958 173.418 612.348 173.948C612.218 174.058 612.098 174.168 611.968 174.278C611.368 174.788 610.747 175.298 610.127 175.788C610.057 175.848 609.977 175.898 609.907 175.958C609.087 176.598 608.267 177.218 607.417 177.808C607.337 177.868 607.247 177.928 607.167 177.978C606.337 178.558 605.487 179.118 604.637 179.658C604.507 179.738 604.368 179.818 604.238 179.908C603.768 180.198 603.298 180.478 602.828 180.758C602.678 180.848 602.528 180.938 602.368 181.028C601.778 181.368 601.178 181.698 600.568 182.008C600.468 182.058 600.367 182.108 600.267 182.158C599.747 182.428 599.228 182.688 598.698 182.938C598.528 183.018 598.357 183.098 598.188 183.178C597.607 183.448 597.038 183.708 596.448 183.958C596.398 183.978 596.357 183.998 596.307 184.018C595.677 184.288 595.047 184.538 594.417 184.778C594.247 184.848 594.077 184.908 593.907 184.968C593.397 185.158 592.878 185.348 592.358 185.518C592.218 185.568 592.077 185.618 591.938 185.658C591.298 185.868 590.657 186.068 590.017 186.258C589.867 186.298 589.728 186.338 589.578 186.378C589.058 186.528 588.527 186.668 587.997 186.798C587.817 186.838 587.648 186.888 587.468 186.928C586.818 187.088 586.157 187.228 585.497 187.358C585.427 187.368 585.357 187.378 585.297 187.398C584.697 187.518 584.098 187.618 583.488 187.718C583.298 187.748 583.117 187.778 582.927 187.798C582.347 187.878 581.767 187.958 581.188 188.028C581.087 188.038 580.987 188.058 580.887 188.068C580.217 188.138 579.547 188.198 578.877 188.238C578.707 188.248 578.528 188.258 578.348 188.268C577.808 188.298 577.268 188.318 576.728 188.328C576.568 188.328 576.398 188.338 576.238 188.338C575.568 188.338 574.888 188.338 574.218 188.328C574.088 188.328 573.958 188.318 573.828 188.308C573.268 188.288 572.697 188.258 572.137 188.218C571.947 188.208 571.768 188.188 571.578 188.178C570.898 188.118 570.207 188.058 569.527 187.978C564.797 187.398 560.348 186.158 556.218 184.348L564.118 187.808C568.248 189.618 572.697 190.858 577.427 191.438C578.117 191.518 578.798 191.588 579.478 191.638C579.668 191.658 579.847 191.668 580.037 191.678C580.607 191.718 581.168 191.748 581.728 191.768C581.858 191.768 581.988 191.778 582.118 191.788C582.798 191.808 583.467 191.808 584.137 191.798C584.297 191.798 584.467 191.798 584.627 191.788C585.167 191.778 585.707 191.758 586.247 191.728C586.417 191.728 586.597 191.708 586.777 191.698C587.447 191.658 588.117 191.598 588.787 191.528C588.887 191.518 588.988 191.508 589.088 191.488C589.668 191.418 590.248 191.348 590.828 191.258C591.018 191.228 591.197 191.198 591.387 191.178C591.987 191.078 592.598 190.978 593.198 190.858C593.268 190.848 593.327 190.838 593.397 190.818C594.057 190.688 594.718 190.538 595.368 190.388C595.548 190.348 595.717 190.298 595.897 190.258C596.427 190.128 596.948 189.988 597.478 189.838C597.628 189.798 597.767 189.758 597.917 189.718C598.567 189.528 599.208 189.328 599.848 189.118C599.988 189.068 600.127 189.018 600.267 188.978C600.787 188.798 601.308 188.618 601.828 188.428C601.998 188.368 602.168 188.298 602.338 188.238C602.968 187.998 603.598 187.748 604.228 187.478C604.278 187.458 604.327 187.438 604.377 187.408C604.957 187.158 605.538 186.898 606.108 186.628C606.278 186.548 606.447 186.468 606.627 186.378C607.147 186.128 607.678 185.868 608.198 185.598C608.298 185.548 608.397 185.498 608.497 185.448C609.097 185.128 609.697 184.798 610.297 184.468C610.447 184.378 610.597 184.288 610.757 184.198C611.227 183.918 611.697 183.638 612.167 183.348C612.267 183.288 612.358 183.238 612.458 183.178C612.498 183.158 612.528 183.128 612.568 183.108C613.428 182.568 614.268 182.008 615.098 181.428C615.178 181.368 615.268 181.318 615.348 181.258C616.188 180.668 617.018 180.048 617.838 179.408C617.888 179.368 617.928 179.338 617.978 179.308C618.008 179.288 618.037 179.258 618.057 179.238C618.677 178.748 619.287 178.248 619.887 177.728C620.017 177.618 620.147 177.508 620.277 177.398C620.887 176.878 621.488 176.338 622.078 175.788C622.088 175.778 622.108 175.768 622.118 175.748C622.148 175.718 622.178 175.688 622.208 175.658C622.958 174.958 623.687 174.238 624.407 173.508H624.377Z" fill="url(#paint21_linear_7_147)"/>
<path d="M592.338 68.0681C622.108 71.7181 641.128 101.528 634.828 134.648C632.188 148.518 625.528 160.768 616.478 170.048C615.508 149.218 601.768 132.258 582.048 129.838C561.368 127.298 541.008 141.598 533.038 162.878C526.598 151.248 524.108 136.678 527.018 121.398C533.318 88.2881 562.568 64.4081 592.328 68.0581L592.338 68.0681ZM581.688 124.038C592.008 125.308 602.148 117.018 604.328 105.538C606.508 94.0581 599.918 83.7281 589.598 82.4581C579.278 81.1881 569.138 89.4681 566.948 100.948C564.768 112.428 571.358 122.768 581.678 124.038" fill="url(#paint22_linear_7_147)"/>
<path d="M589.598 82.4581C599.918 83.7281 606.508 94.0581 604.328 105.538C602.148 117.018 592.008 125.308 581.688 124.038C571.368 122.768 564.768 112.428 566.958 100.948C569.138 89.4681 579.288 81.1881 589.608 82.4581H589.598Z" fill="url(#paint23_linear_7_147)"/>
<path d="M589.598 82.4581C599.918 83.7281 606.508 94.0581 604.328 105.538C602.148 117.018 592.008 125.308 581.688 124.038C571.368 122.768 564.768 112.428 566.958 100.948C569.138 89.4681 579.288 81.1881 589.608 82.4581H589.598Z" fill="#A6A6A6"/>
<path d="M582.058 129.838C601.768 132.258 615.508 149.218 616.488 170.048C603.948 182.938 586.828 190.118 569.528 187.998C553.488 186.028 540.578 176.458 533.058 162.888C541.028 141.608 561.388 127.308 582.068 129.848L582.058 129.838Z" fill="url(#paint24_linear_7_147)"/>
<path d="M582.058 129.838C601.768 132.258 615.508 149.218 616.488 170.048C603.948 182.938 586.828 190.118 569.528 187.998C553.488 186.028 540.578 176.458 533.058 162.888C541.028 141.608 561.388 127.308 582.068 129.848L582.058 129.838Z" fill="#A6A6A6"/>
<path d="M589.598 82.4581C599.918 83.7281 606.508 94.0581 604.328 105.538C602.148 117.018 592.008 125.308 581.688 124.038C571.368 122.768 564.768 112.428 566.958 100.948C569.138 89.4681 579.288 81.1881 589.608 82.4581H589.598Z" fill="url(#paint25_linear_7_147)"/>
<path d="M589.598 82.4581C599.918 83.7281 606.508 94.0581 604.328 105.538C602.148 117.018 592.008 125.308 581.688 124.038C571.368 122.768 564.768 112.428 566.958 100.948C569.138 89.4681 579.288 81.1881 589.608 82.4581H589.598Z" fill="url(#paint26_linear_7_147)"/>
<path d="M589.598 82.4581C599.918 83.7281 606.508 94.0581 604.328 105.538C602.148 117.018 592.008 125.308 581.688 124.038C571.368 122.768 564.768 112.428 566.958 100.948C569.138 89.4681 579.288 81.1881 589.608 82.4581H589.598Z" fill="url(#paint27_linear_7_147)"/>
<path d="M582.058 129.838C601.768 132.258 615.508 149.218 616.488 170.048C603.948 182.938 586.828 190.118 569.528 187.998C553.488 186.028 540.578 176.458 533.058 162.888C541.028 141.608 561.388 127.308 582.068 129.848L582.058 129.838Z" fill="url(#paint28_linear_7_147)"/>
<path d="M582.058 129.838C601.768 132.258 615.508 149.218 616.488 170.048C603.948 182.938 586.828 190.118 569.528 187.998C553.488 186.028 540.578 176.458 533.058 162.888C541.028 141.608 561.388 127.308 582.068 129.848L582.058 129.838Z" fill="url(#paint29_linear_7_147)"/>
<path d="M582.058 129.838C601.768 132.258 615.508 149.218 616.488 170.048C603.948 182.938 586.828 190.118 569.528 187.998C553.488 186.028 540.578 176.458 533.058 162.888C541.028 141.608 561.388 127.308 582.068 129.848L582.058 129.838Z" fill="url(#paint30_linear_7_147)"/>
<path d="M643.468 133.278C643.498 133.058 643.517 132.848 643.537 132.628C643.617 131.898 643.688 131.168 643.738 130.448C643.738 130.408 643.738 130.368 643.738 130.328C643.788 129.708 643.818 129.098 643.848 128.478C643.848 128.388 643.848 128.298 643.848 128.208C643.888 127.158 643.917 126.118 643.907 125.078C643.907 124.888 643.907 124.708 643.897 124.518C643.887 123.648 643.857 122.788 643.807 121.928C643.787 121.628 643.777 121.338 643.757 121.048C643.697 120.158 643.617 119.268 643.517 118.388C643.497 118.248 643.488 118.108 643.478 117.978C643.358 116.978 643.207 115.988 643.047 114.998C643.007 114.738 642.957 114.468 642.907 114.208C642.767 113.438 642.618 112.678 642.448 111.918C642.388 111.668 642.337 111.418 642.277 111.158C642.047 110.198 641.807 109.248 641.537 108.318C641.497 108.168 641.447 108.028 641.397 107.878C641.157 107.078 640.907 106.288 640.637 105.508C640.547 105.248 640.458 104.978 640.358 104.718C640.078 103.948 639.788 103.178 639.478 102.428C639.428 102.318 639.398 102.198 639.348 102.088C639.338 102.058 639.317 102.028 639.307 101.998C638.907 101.048 638.477 100.118 638.027 99.1981C637.917 98.9781 637.808 98.7581 637.698 98.5381C637.268 97.6781 636.818 96.8281 636.338 95.9881C636.308 95.9381 636.277 95.8781 636.247 95.8281C636.247 95.8081 636.228 95.7981 636.218 95.7781C635.798 95.0581 635.367 94.3481 634.927 93.6581C634.797 93.4581 634.667 93.2781 634.537 93.0781C634.207 92.5781 633.877 92.0881 633.537 91.6081C633.477 91.5281 633.428 91.4381 633.368 91.3581C633.218 91.1581 633.067 90.9581 632.917 90.7581C632.687 90.4481 632.448 90.1281 632.218 89.8181C631.998 89.5281 631.767 89.2481 631.537 88.9681C631.297 88.6681 631.047 88.3681 630.797 88.0681C630.717 87.9681 630.637 87.8681 630.557 87.7681C630.377 87.5681 630.197 87.3681 630.017 87.1681C629.807 86.9381 629.607 86.7081 629.397 86.4781C629.117 86.1781 628.827 85.8781 628.537 85.5781C628.327 85.3681 628.117 85.1481 627.907 84.9381C627.847 84.8781 627.798 84.8281 627.738 84.7681C627.438 84.4681 627.117 84.1781 626.807 83.8881C626.667 83.7581 626.537 83.6281 626.397 83.5081C625.897 83.0581 625.397 82.6081 624.877 82.1781C624.857 82.1681 624.848 82.1481 624.828 82.1381C624.728 82.0581 624.627 81.9781 624.527 81.8881C624.097 81.5381 623.668 81.1881 623.228 80.8581C623.038 80.7181 622.847 80.5781 622.657 80.4381C622.417 80.2581 622.188 80.0781 621.948 79.9081C621.818 79.8181 621.687 79.7281 621.557 79.6381C621.357 79.4981 621.148 79.3581 620.938 79.2181C620.568 78.9681 620.187 78.7181 619.807 78.4781C619.607 78.3481 619.398 78.2181 619.198 78.0881C619.098 78.0281 618.997 77.9581 618.897 77.8981C618.567 77.6981 618.217 77.5081 617.877 77.3081C617.727 77.2181 617.577 77.1281 617.427 77.0481C616.857 76.7281 616.288 76.4281 615.698 76.1381C615.678 76.1281 615.647 76.1181 615.627 76.1081C614.937 75.7681 614.237 75.4381 613.527 75.1181L605.627 71.6581C606.337 71.9681 607.038 72.2981 607.728 72.6481C608.338 72.9481 608.937 73.2681 609.527 73.5981C609.677 73.6881 609.838 73.7781 609.988 73.8681C610.428 74.1181 610.867 74.3781 611.297 74.6381C611.507 74.7681 611.707 74.8981 611.917 75.0281C612.297 75.2681 612.667 75.5081 613.037 75.7581C613.247 75.8981 613.447 76.0381 613.657 76.1781C614.027 76.4381 614.397 76.7081 614.757 76.9781C614.947 77.1181 615.138 77.2581 615.328 77.3981C615.768 77.7281 616.198 78.0781 616.618 78.4281C616.718 78.5081 616.827 78.5881 616.927 78.6781C617.457 79.1181 617.978 79.5781 618.488 80.0481C618.628 80.1781 618.757 80.3081 618.897 80.4381C619.267 80.7781 619.628 81.1281 619.988 81.4781C620.198 81.6881 620.408 81.9081 620.618 82.1181C620.908 82.4181 621.198 82.7081 621.478 83.0181C621.688 83.2481 621.898 83.4781 622.098 83.7081C622.358 83.9981 622.617 84.2981 622.877 84.5981C623.127 84.8981 623.378 85.1981 623.618 85.4981C623.848 85.7781 624.077 86.0581 624.297 86.3481C624.537 86.6581 624.767 86.9681 624.997 87.2881C625.207 87.5681 625.418 87.8481 625.618 88.1381C625.958 88.6181 626.288 89.1181 626.618 89.6081C626.748 89.7981 626.877 89.9881 627.007 90.1881C627.457 90.8881 627.887 91.5881 628.297 92.3081C628.337 92.3781 628.377 92.4481 628.407 92.5181C628.887 93.3481 629.337 94.1981 629.767 95.0681C629.877 95.2881 629.988 95.5081 630.098 95.7281C630.548 96.6481 630.977 97.5781 631.377 98.5281C631.437 98.6681 631.487 98.8181 631.547 98.9581C631.857 99.7081 632.147 100.478 632.427 101.248C632.527 101.508 632.618 101.778 632.708 102.038C632.978 102.818 633.228 103.608 633.468 104.408C633.508 104.558 633.558 104.698 633.608 104.848C633.878 105.788 634.118 106.728 634.348 107.688C634.408 107.938 634.457 108.188 634.517 108.448C634.687 109.208 634.838 109.968 634.978 110.738C635.028 110.998 635.078 111.258 635.118 111.528C635.288 112.508 635.427 113.498 635.547 114.508C635.567 114.648 635.578 114.788 635.588 114.918C635.688 115.798 635.768 116.688 635.828 117.578C635.848 117.868 635.867 118.168 635.877 118.458C635.927 119.318 635.958 120.178 635.968 121.048C635.968 121.238 635.978 121.418 635.978 121.608C635.978 122.648 635.957 123.688 635.917 124.738C635.887 125.438 635.857 126.148 635.797 126.858C635.797 126.898 635.797 126.938 635.787 126.978C635.737 127.698 635.668 128.428 635.588 129.158C635.568 129.378 635.537 129.588 635.517 129.808C635.447 130.428 635.357 131.058 635.267 131.678C635.247 131.838 635.228 131.998 635.198 132.158C635.068 132.978 634.927 133.808 634.777 134.638C634.577 135.708 634.338 136.768 634.088 137.828C633.988 138.228 633.887 138.628 633.787 139.018C633.687 139.408 633.588 139.798 633.478 140.188C633.358 140.628 633.228 141.058 633.098 141.488C632.988 141.868 632.867 142.258 632.747 142.638C632.597 143.118 632.437 143.588 632.277 144.058C632.177 144.348 632.078 144.648 631.978 144.938C631.788 145.478 631.587 146.008 631.387 146.538C631.297 146.768 631.217 146.998 631.127 147.228C630.837 147.968 630.538 148.698 630.218 149.428C630.148 149.588 630.077 149.748 630.007 149.908C629.757 150.478 629.498 151.038 629.238 151.588C629.128 151.828 629.007 152.068 628.887 152.308C628.657 152.778 628.427 153.238 628.188 153.708C628.058 153.968 627.917 154.218 627.787 154.468C627.617 154.778 627.447 155.088 627.277 155.398C626.687 156.468 626.077 157.518 625.438 158.548C625.388 158.628 625.327 158.718 625.277 158.798C624.647 159.798 623.987 160.778 623.307 161.738C623.197 161.898 623.078 162.068 622.968 162.228C622.248 163.238 621.498 164.218 620.718 165.178C620.498 165.448 620.277 165.718 620.057 165.988C619.837 166.248 619.627 166.508 619.397 166.768C619.107 167.108 618.807 167.448 618.507 167.788C618.287 168.038 618.068 168.288 617.838 168.538C617.368 169.048 616.897 169.558 616.417 170.058L624.318 173.518C624.708 173.118 625.088 172.718 625.468 172.308C625.558 172.208 625.648 172.108 625.738 172.008C625.968 171.758 626.187 171.508 626.407 171.258C626.707 170.918 627.007 170.588 627.297 170.238C627.517 169.978 627.738 169.718 627.958 169.458C628.108 169.278 628.257 169.108 628.407 168.928C628.477 168.838 628.548 168.738 628.618 168.648C629.388 167.688 630.138 166.698 630.868 165.698C630.908 165.638 630.948 165.588 630.988 165.538C631.068 165.428 631.128 165.318 631.208 165.208C631.888 164.248 632.537 163.268 633.177 162.268C633.217 162.208 633.257 162.148 633.297 162.078C633.307 162.058 633.318 162.038 633.338 162.008C633.978 160.978 634.587 159.928 635.177 158.858C635.247 158.738 635.317 158.628 635.387 158.508C635.487 158.318 635.587 158.128 635.688 157.938C635.817 157.688 635.958 157.428 636.088 157.178C636.328 156.718 636.557 156.248 636.787 155.778C636.907 155.538 637.017 155.308 637.137 155.068C637.177 154.978 637.227 154.878 637.277 154.788C637.497 154.328 637.707 153.848 637.907 153.378C637.977 153.218 638.058 153.058 638.118 152.898C638.418 152.208 638.708 151.518 638.978 150.818C638.998 150.778 639.007 150.738 639.017 150.698C639.107 150.468 639.187 150.238 639.277 150.008C639.477 149.478 639.678 148.948 639.868 148.408C639.968 148.118 640.067 147.818 640.167 147.528C640.287 147.188 640.407 146.848 640.517 146.508C640.557 146.378 640.597 146.238 640.637 146.108C640.757 145.728 640.868 145.338 640.988 144.958C641.118 144.528 641.248 144.088 641.368 143.658C641.478 143.268 641.577 142.878 641.677 142.488C641.747 142.218 641.827 141.938 641.897 141.668C641.927 141.548 641.948 141.418 641.978 141.298C642.228 140.248 642.467 139.188 642.667 138.108C642.817 137.348 642.948 136.588 643.068 135.828C643.068 135.768 643.088 135.698 643.098 135.638C643.118 135.478 643.147 135.318 643.167 135.158C643.257 134.528 643.337 133.908 643.417 133.288L643.468 133.278Z" fill="url(#paint31_linear_7_147)"/>
<mask id="mask2_7_147" style="mask-type:luminance" maskUnits="userSpaceOnUse" x="351" y="156" width="9" height="4">
<path d="M358.688 158.868L351.118 156.178C351.318 156.248 351.518 156.308 351.738 156.358L359.308 159.048C359.098 158.998 358.888 158.938 358.688 158.868Z" fill="white"/>
</mask>
<g mask="url(#mask2_7_147)">
<path d="M351.738 156.358L359.308 159.048C359.098 158.998 358.888 158.938 358.688 158.868L351.118 156.178C351.318 156.248 351.518 156.308 351.738 156.358Z" fill="#858585"/>
</g>
<path d="M366.478 159.838L374.048 162.518L359.298 159.048L351.738 156.358L366.478 159.838Z" fill="#468F35"/>
<path d="M383.948 163.948L391.518 166.638L368.608 183.498L361.048 180.818L383.948 163.948Z" fill="#468F35"/>
<path d="M486.118 125.198C489.588 126.018 491.598 129.808 490.598 133.668L478.868 178.908C477.868 182.768 474.238 185.228 470.768 184.408L383.938 163.958L361.038 180.828L366.478 159.848L351.728 156.378C348.258 155.558 346.258 151.778 347.258 147.908L358.988 102.668C359.988 98.8081 363.608 96.3481 367.078 97.1581L486.118 125.198ZM464.268 148.408C465.658 148.738 467.108 147.748 467.508 146.198C467.908 144.648 467.108 143.128 465.718 142.808L376.518 121.798C375.128 121.468 373.678 122.458 373.278 124.008C372.878 125.558 373.678 127.078 375.068 127.398L464.268 148.408ZM430.468 152.268C431.858 152.598 433.308 151.608 433.708 150.058C434.108 148.508 433.308 146.988 431.918 146.668L373.638 132.938C372.248 132.608 370.798 133.598 370.398 135.148C369.998 136.698 370.798 138.218 372.188 138.538L430.468 152.268Z" fill="url(#paint32_linear_7_147)"/>
<path d="M431.927 146.658C433.317 146.988 434.117 148.508 433.717 150.048C433.317 151.598 431.867 152.578 430.477 152.258L372.197 138.528C370.807 138.198 370.007 136.678 370.407 135.138C370.807 133.598 372.258 132.608 373.648 132.928L431.927 146.658Z" fill="#FDFDFD"/>
<path d="M465.728 142.798C467.118 143.128 467.918 144.648 467.518 146.188C467.118 147.738 465.668 148.718 464.278 148.398L375.078 127.388C373.688 127.058 372.888 125.538 373.288 123.998C373.688 122.448 375.138 121.468 376.528 121.788L465.728 142.798Z" fill="#FDFDFD"/>
<path d="M498.398 133.808C498.398 133.688 498.378 133.578 498.368 133.468C498.358 133.368 498.348 133.258 498.328 133.158C498.308 133.048 498.288 132.938 498.268 132.828C498.248 132.728 498.228 132.628 498.198 132.528C498.168 132.418 498.138 132.308 498.108 132.208C498.078 132.108 498.048 132.018 498.018 131.928C497.978 131.818 497.938 131.718 497.898 131.618C497.868 131.558 497.848 131.488 497.818 131.418C497.818 131.398 497.798 131.378 497.788 131.358C497.678 131.108 497.548 130.858 497.398 130.628C497.388 130.608 497.378 130.588 497.368 130.578C497.338 130.528 497.298 130.478 497.268 130.428C497.198 130.318 497.128 130.218 497.048 130.108C497.028 130.078 497.008 130.048 496.988 130.018C496.948 129.968 496.898 129.918 496.858 129.868C496.798 129.798 496.748 129.728 496.688 129.668C496.668 129.638 496.648 129.618 496.618 129.588C496.558 129.528 496.498 129.468 496.438 129.408C496.388 129.368 496.348 129.318 496.298 129.278C496.288 129.268 496.268 129.248 496.258 129.238C496.138 129.128 496.018 129.028 495.898 128.938C495.888 128.938 495.878 128.918 495.868 128.918C495.758 128.838 495.648 128.758 495.538 128.688C495.508 128.668 495.478 128.658 495.458 128.638C495.418 128.608 495.368 128.588 495.328 128.558C495.278 128.528 495.218 128.488 495.168 128.458C495.108 128.428 495.038 128.388 494.968 128.358C494.928 128.338 494.878 128.308 494.838 128.288C494.818 128.278 494.788 128.268 494.768 128.258C494.628 128.198 494.488 128.138 494.338 128.088C494.338 128.088 494.328 128.088 494.318 128.088L488.288 125.948L486.778 125.408C486.778 125.408 486.768 125.408 486.758 125.408C486.938 125.468 487.108 125.548 487.278 125.618C487.318 125.638 487.368 125.658 487.408 125.688C487.528 125.748 487.648 125.818 487.768 125.888C487.818 125.918 487.858 125.938 487.898 125.968C488.038 126.058 488.178 126.148 488.308 126.248C488.318 126.248 488.328 126.268 488.338 126.268C488.478 126.378 488.618 126.498 488.748 126.618C488.798 126.658 488.838 126.708 488.888 126.748C488.978 126.828 489.058 126.918 489.138 127.008C489.198 127.068 489.248 127.138 489.308 127.208C489.368 127.288 489.438 127.368 489.498 127.448C489.578 127.548 489.648 127.658 489.718 127.768C489.758 127.838 489.808 127.898 489.848 127.968C489.988 128.198 490.118 128.448 490.238 128.698C490.278 128.778 490.308 128.868 490.348 128.948C490.388 129.048 490.428 129.148 490.468 129.258C490.498 129.348 490.528 129.448 490.558 129.548C490.588 129.658 490.618 129.758 490.648 129.868C490.668 129.968 490.698 130.068 490.718 130.168C490.738 130.278 490.768 130.388 490.778 130.498C490.798 130.598 490.808 130.698 490.818 130.808C490.828 130.918 490.848 131.038 490.848 131.148C490.848 131.228 490.848 131.318 490.858 131.398C490.858 131.658 490.858 131.918 490.858 132.178C490.858 132.218 490.858 132.258 490.858 132.298C490.848 132.478 490.818 132.668 490.788 132.848C490.788 132.898 490.778 132.948 490.768 132.998C490.768 133.028 490.758 133.058 490.748 133.098C490.708 133.298 490.668 133.488 490.618 133.688L478.888 178.928C478.838 179.138 478.768 179.348 478.698 179.548C478.678 179.608 478.658 179.668 478.638 179.728C478.568 179.908 478.498 180.078 478.428 180.248C478.418 180.268 478.408 180.298 478.398 180.328C478.308 180.518 478.208 180.708 478.108 180.888C478.078 180.938 478.048 180.988 478.028 181.028C477.938 181.168 477.858 181.308 477.758 181.448C477.728 181.488 477.698 181.538 477.668 181.578C477.548 181.748 477.418 181.918 477.288 182.078C477.258 182.108 477.228 182.138 477.208 182.168C477.098 182.298 476.988 182.418 476.868 182.538C476.798 182.608 476.718 182.678 476.648 182.748C476.558 182.828 476.478 182.908 476.388 182.978C476.238 183.108 476.078 183.228 475.918 183.338C475.878 183.368 475.838 183.398 475.798 183.428C475.698 183.498 475.598 183.558 475.488 183.618C475.398 183.668 475.318 183.728 475.228 183.778C475.118 183.838 475.008 183.888 474.898 183.938C474.808 183.978 474.728 184.028 474.638 184.068C474.528 184.118 474.408 184.158 474.298 184.198C474.208 184.228 474.118 184.268 474.028 184.298C473.908 184.338 473.788 184.358 473.668 184.398C473.578 184.418 473.488 184.448 473.398 184.468C473.278 184.498 473.148 184.508 473.028 184.528C472.938 184.538 472.848 184.558 472.758 184.568C472.628 184.578 472.498 184.578 472.368 184.588C472.278 184.588 472.198 184.598 472.108 184.598C471.958 184.598 471.808 184.578 471.658 184.568C471.588 184.568 471.518 184.568 471.458 184.558C471.238 184.528 471.018 184.498 470.808 184.438L383.978 163.988L391.548 166.678L478.378 187.128C478.598 187.178 478.818 187.218 479.038 187.248C479.108 187.248 479.178 187.248 479.238 187.258C479.388 187.268 479.538 187.288 479.688 187.288C479.778 187.288 479.858 187.288 479.948 187.278C480.078 187.278 480.208 187.278 480.338 187.258C480.428 187.258 480.518 187.228 480.608 187.218C480.728 187.198 480.858 187.188 480.978 187.158C481.068 187.138 481.158 187.108 481.248 187.088C481.368 187.058 481.488 187.028 481.608 186.988C481.698 186.958 481.788 186.918 481.878 186.888C481.988 186.848 482.108 186.808 482.218 186.758C482.308 186.718 482.398 186.668 482.488 186.628C482.598 186.578 482.708 186.528 482.808 186.468C482.898 186.418 482.988 186.358 483.078 186.308C483.178 186.248 483.278 186.188 483.378 186.118C483.378 186.118 483.388 186.118 483.398 186.108C483.428 186.088 483.468 186.058 483.498 186.028C483.658 185.918 483.818 185.798 483.968 185.668C483.988 185.648 484.008 185.638 484.028 185.618C484.098 185.558 484.158 185.498 484.228 185.428C484.298 185.358 484.378 185.288 484.448 185.218C484.468 185.198 484.488 185.188 484.508 185.168C484.608 185.068 484.698 184.958 484.788 184.858C484.818 184.828 484.848 184.798 484.878 184.758C484.878 184.758 484.878 184.748 484.888 184.738C484.998 184.608 485.108 184.468 485.218 184.318C485.228 184.298 485.248 184.278 485.258 184.258C485.288 184.218 485.318 184.168 485.348 184.128C485.398 184.048 485.448 183.978 485.498 183.898C485.538 183.838 485.568 183.768 485.608 183.708C485.638 183.658 485.668 183.608 485.698 183.558C485.718 183.528 485.738 183.498 485.758 183.468C485.838 183.328 485.908 183.178 485.978 183.028C485.978 183.028 485.978 183.008 485.988 183.008C485.998 182.988 486.008 182.958 486.018 182.928C486.068 182.808 486.128 182.688 486.178 182.568C486.198 182.518 486.218 182.458 486.238 182.408C486.258 182.348 486.278 182.288 486.298 182.228C486.318 182.178 486.338 182.128 486.358 182.068C486.408 181.918 486.448 181.768 486.488 181.608L498.218 136.368C498.218 136.368 498.228 136.308 498.238 136.288C498.278 136.118 498.308 135.958 498.338 135.788C498.338 135.758 498.358 135.718 498.358 135.688C498.358 135.648 498.358 135.598 498.378 135.558C498.408 135.368 498.428 135.188 498.448 134.998C498.448 134.988 498.448 134.978 498.448 134.968C498.448 134.938 498.448 134.908 498.448 134.878C498.468 134.618 498.468 134.358 498.448 134.098C498.448 134.058 498.448 134.018 498.448 133.978C498.448 133.938 498.448 133.888 498.438 133.848L498.398 133.808Z" fill="url(#paint33_linear_7_147)"/>
<defs>
<linearGradient id="paint0_linear_7_147" x1="203.331" y1="351.995" x2="362.951" y2="694.285" gradientUnits="userSpaceOnUse">
<stop stop-color="white"/>
<stop offset="1" stop-color="#C4D3FF"/>
</linearGradient>
<linearGradient id="paint1_linear_7_147" x1="115.321" y1="393.044" x2="256.401" y2="695.604" gradientUnits="userSpaceOnUse">
<stop stop-color="#C4D3FF"/>
<stop offset="0.27" stop-color="#B4C3F4"/>
<stop offset="0.78" stop-color="#8B9ADA"/>
<stop offset="1" stop-color="#7887CE"/>
</linearGradient>
<linearGradient id="paint2_linear_7_147" x1="234.251" y1="404.335" x2="320.861" y2="590.055" gradientUnits="userSpaceOnUse">
<stop stop-color="#FFA839"/>
<stop offset="0.1" stop-color="#FF9649"/>
<stop offset="0.31" stop-color="#FF6773"/>
<stop offset="0.54" stop-color="#FF2CAB"/>
<stop offset="1" stop-color="#9000FF"/>
</linearGradient>
<linearGradient id="paint3_linear_7_147" x1="171.261" y1="393.765" x2="181.551" y2="415.825" gradientUnits="userSpaceOnUse">
<stop stop-color="#FF4D8F"/>
<stop offset="1" stop-color="#C42673"/>
</linearGradient>
<linearGradient id="paint4_linear_7_147" x1="232.351" y1="597.305" x2="244.161" y2="622.645" gradientUnits="userSpaceOnUse">
<stop stop-color="#FF4D8F"/>
<stop offset="1" stop-color="#C42673"/>
</linearGradient>
<linearGradient id="paint5_linear_7_147" x1="106.711" y1="633.305" x2="129.441" y2="682.055" gradientUnits="userSpaceOnUse">
<stop offset="0.17" stop-color="#FFFADB"/>
<stop offset="0.49" stop-color="#FFED74"/>
<stop offset="1" stop-color="#FFAE00"/>
</linearGradient>
<linearGradient id="paint6_linear_7_147" x1="10.3113" y1="565.304" x2="27.1013" y2="601.324" gradientUnits="userSpaceOnUse">
<stop offset="0.17" stop-color="#FFFADB"/>
<stop offset="0.49" stop-color="#FFED74"/>
<stop offset="1" stop-color="#FFAE00"/>
</linearGradient>
<linearGradient id="paint7_linear_7_147" x1="143.961" y1="570.195" x2="214.921" y2="570.195" gradientUnits="userSpaceOnUse">
<stop stop-color="#AEBDF1"/>
<stop offset="0.74" stop-color="#8695D7"/>
<stop offset="1" stop-color="#7887CE"/>
</linearGradient>
<linearGradient id="paint8_linear_7_147" x1="127.581" y1="477.084" x2="163.461" y2="554.014" gradientUnits="userSpaceOnUse">
<stop stop-color="#78C552"/>
<stop offset="1" stop-color="#468F35"/>
</linearGradient>
<linearGradient id="paint9_linear_7_147" x1="157.091" y1="463.055" x2="204.961" y2="565.705" gradientUnits="userSpaceOnUse">
<stop offset="0.26" stop-color="#C2FF7F"/>
<stop offset="1" stop-color="#78DA52"/>
</linearGradient>
<linearGradient id="paint10_linear_7_147" x1="156.351" y1="481.325" x2="201.381" y2="577.895" gradientUnits="userSpaceOnUse">
<stop stop-color="white"/>
<stop offset="1" stop-color="#C4D3FF"/>
</linearGradient>
<linearGradient id="paint11_linear_7_147" x1="156.351" y1="481.325" x2="201.381" y2="577.895" gradientUnits="userSpaceOnUse">
<stop stop-color="white"/>
<stop offset="1" stop-color="#C4D3FF"/>
</linearGradient>
<linearGradient id="paint12_linear_7_147" x1="313.541" y1="436.085" x2="352.941" y2="520.585" gradientUnits="userSpaceOnUse">
<stop stop-color="#94FFFF"/>
<stop offset="1" stop-color="#74BAE3"/>
</linearGradient>
<linearGradient id="paint13_linear_7_147" x1="258.911" y1="461.295" x2="294.831" y2="538.335" gradientUnits="userSpaceOnUse">
<stop stop-color="#74BAE3"/>
<stop offset="1" stop-color="#0085B8"/>
</linearGradient>
<linearGradient id="paint14_linear_7_147" x1="369.693" y1="15.7356" x2="392.576" y2="64.8169" gradientUnits="userSpaceOnUse">
<stop offset="0.17" stop-color="#FFFADB"/>
<stop offset="0.49" stop-color="#FFED74"/>
<stop offset="1" stop-color="#FFAE00"/>
</linearGradient>
<linearGradient id="paint15_linear_7_147" x1="617.588" y1="276.768" x2="634.378" y2="312.788" gradientUnits="userSpaceOnUse">
<stop offset="0.17" stop-color="#FFFADB"/>
<stop offset="0.49" stop-color="#FFED74"/>
<stop offset="1" stop-color="#FFAE00"/>
</linearGradient>
<linearGradient id="paint16_linear_7_147" x1="421.798" y1="338.488" x2="573.158" y2="13.8981" gradientUnits="userSpaceOnUse">
<stop stop-color="#C4D3FF"/>
<stop offset="1" stop-color="white"/>
</linearGradient>
<linearGradient id="paint17_linear_7_147" x1="452.668" y1="43.6081" x2="462.548" y2="22.4381" gradientUnits="userSpaceOnUse">
<stop stop-color="#FF8939"/>
<stop offset="0.31" stop-color="#FB9845"/>
<stop offset="0.91" stop-color="#F2C166"/>
<stop offset="1" stop-color="#F1C86C"/>
</linearGradient>
<linearGradient id="paint18_linear_7_147" x1="401.698" y1="247.188" x2="412.688" y2="223.618" gradientUnits="userSpaceOnUse">
<stop stop-color="#FF4D8F"/>
<stop offset="1" stop-color="#C42673"/>
</linearGradient>
<linearGradient id="paint19_linear_7_147" x1="425.678" y1="229.498" x2="580.778" y2="74.3981" gradientUnits="userSpaceOnUse">
<stop stop-color="#4790FE"/>
<stop offset="0.56" stop-color="#9000FF"/>
<stop offset="0.75" stop-color="#C615D5"/>
<stop offset="0.91" stop-color="#EF25B6"/>
<stop offset="1" stop-color="#FF2CAB"/>
</linearGradient>
<linearGradient id="paint20_linear_7_147" x1="518.128" y1="359.478" x2="661.398" y2="52.228" gradientUnits="userSpaceOnUse">
<stop stop-color="#7887CE"/>
<stop offset="0.22" stop-color="#8B9ADA"/>
<stop offset="0.73" stop-color="#B4C3F4"/>
<stop offset="1" stop-color="#C4D3FF"/>
</linearGradient>
<linearGradient id="paint21_linear_7_147" x1="582.128" y1="196.448" x2="598.468" y2="161.428" gradientUnits="userSpaceOnUse">
<stop stop-color="#7887CE"/>
<stop offset="0.26" stop-color="#8695D7"/>
<stop offset="1" stop-color="#AEBDF1"/>
</linearGradient>
<linearGradient id="paint22_linear_7_147" x1="559.028" y1="174.998" x2="606.918" y2="72.2781" gradientUnits="userSpaceOnUse">
<stop stop-color="#5D9BFB"/>
<stop offset="1" stop-color="#93D6FB"/>
</linearGradient>
<linearGradient id="paint23_linear_7_147" x1="577.248" y1="85.2481" x2="594.038" y2="121.248" gradientUnits="userSpaceOnUse">
<stop stop-color="#C4D3FF"/>
<stop offset="1" stop-color="white"/>
</linearGradient>
<linearGradient id="paint24_linear_7_147" x1="561.078" y1="132.858" x2="586.988" y2="188.408" gradientUnits="userSpaceOnUse">
<stop stop-color="#C4D3FF"/>
<stop offset="1" stop-color="white"/>
</linearGradient>
<linearGradient id="paint25_linear_7_147" x1="564.508" y1="188.248" x2="609.858" y2="91.0081" gradientUnits="userSpaceOnUse">
<stop stop-color="#C4D3FF"/>
<stop offset="0.85" stop-color="white"/>
</linearGradient>
<linearGradient id="paint26_linear_7_147" x1="564.508" y1="188.248" x2="609.858" y2="91.0081" gradientUnits="userSpaceOnUse">
<stop stop-color="#C4D3FF"/>
<stop offset="0.85" stop-color="white"/>
</linearGradient>
<linearGradient id="paint27_linear_7_147" x1="564.508" y1="188.248" x2="609.858" y2="91.0081" gradientUnits="userSpaceOnUse">
<stop stop-color="#C4D3FF"/>
<stop offset="0.85" stop-color="white"/>
</linearGradient>
<linearGradient id="paint28_linear_7_147" x1="564.508" y1="188.248" x2="609.858" y2="91.0081" gradientUnits="userSpaceOnUse">
<stop stop-color="#C4D3FF"/>
<stop offset="0.85" stop-color="white"/>
</linearGradient>
<linearGradient id="paint29_linear_7_147" x1="564.508" y1="188.248" x2="609.858" y2="91.0081" gradientUnits="userSpaceOnUse">
<stop stop-color="#C4D3FF"/>
<stop offset="0.85" stop-color="white"/>
</linearGradient>
<linearGradient id="paint30_linear_7_147" x1="564.508" y1="188.248" x2="609.858" y2="91.0081" gradientUnits="userSpaceOnUse">
<stop stop-color="#C4D3FF"/>
<stop offset="0.85" stop-color="white"/>
</linearGradient>
<linearGradient id="paint31_linear_7_147" x1="598.837" y1="161.818" x2="634.657" y2="84.9881" gradientUnits="userSpaceOnUse">
<stop stop-color="#3F6EFB"/>
<stop offset="0.73" stop-color="#5D9BFB"/>
<stop offset="1" stop-color="#3F6EFB"/>
</linearGradient>
<linearGradient id="paint32_linear_7_147" x1="392.418" y1="83.9181" x2="445.448" y2="197.638" gradientUnits="userSpaceOnUse">
<stop offset="0.26" stop-color="#C2FF7F"/>
<stop offset="1" stop-color="#78DA52"/>
</linearGradient>
<linearGradient id="paint33_linear_7_147" x1="414.368" y1="194.378" x2="487.888" y2="120.858" gradientUnits="userSpaceOnUse">
<stop stop-color="#468F35"/>
<stop offset="1" stop-color="#78C552"/>
</linearGradient>
</defs>
</svg>
