<svg width="20" height="20" viewBox="0 0 20 20" fill="none" xmlns="http://www.w3.org/2000/svg">
<g id="search">
<path id="Vector" d="M9.16666 17.2917C4.68332 17.2917 1.04166 13.65 1.04166 9.16669C1.04166 4.68335 4.68332 1.04169 9.16666 1.04169C13.65 1.04169 17.2917 4.68335 17.2917 9.16669C17.2917 13.65 13.65 17.2917 9.16666 17.2917ZM9.16666 2.29169C5.37499 2.29169 2.29166 5.37502 2.29166 9.16669C2.29166 12.9584 5.37499 16.0417 9.16666 16.0417C12.9583 16.0417 16.0417 12.9584 16.0417 9.16669C16.0417 5.37502 12.9583 2.29169 9.16666 2.29169Z" fill="black" fill-opacity="0.88"/>
<path id="Vector_2" d="M16.8 18.9917C16.7333 18.9917 16.6667 18.9833 16.6083 18.975C16.2167 18.925 15.5083 18.6583 15.1083 17.4667C14.9 16.8417 14.975 16.2167 15.3167 15.7417C15.6583 15.2667 16.2333 15 16.8917 15C17.7417 15 18.4083 15.325 18.7083 15.9C19.0083 16.475 18.925 17.2083 18.45 17.9167C17.8583 18.8083 17.2167 18.9917 16.8 18.9917ZM16.3 17.075C16.4417 17.5083 16.6417 17.725 16.775 17.7417C16.9083 17.7583 17.1583 17.6 17.4167 17.225C17.6583 16.8667 17.675 16.6083 17.6167 16.4917C17.5583 16.375 17.325 16.25 16.8917 16.25C16.6333 16.25 16.4417 16.3333 16.3333 16.475C16.2333 16.6167 16.2167 16.8333 16.3 17.075Z" fill="black" fill-opacity="0.88"/>
</g>
</svg>
